<?xml version="1.0" encoding="utf-8"?>
<!-- Generator: Adobe Illustrator 24.2.1, SVG Export Plug-In . SVG Version: 6.00 Build 0)  -->
<svg version="1.1" id="Layer_1" xmlns="http://www.w3.org/2000/svg" xmlns:xlink="http://www.w3.org/1999/xlink" x="0px" y="0px"
	 viewBox="0 0 582 404" style="enable-background:new 0 0 582 404;" xml:space="preserve">
<style type="text/css">
	.st0{clip-path:url(#SVGID_2_);}
	.st1{clip-path:url(#SVGID_4_);}
	.st2{fill:#202D60;}
	.st3{clip-path:url(#SVGID_6_);}
	.st4{clip-path:url(#SVGID_8_);}
	.st5{clip-path:url(#SVGID_10_);}
	.st6{clip-path:url(#SVGID_12_);}
	.st7{fill:#0B2967;}
	.st8{clip-path:url(#SVGID_14_);}
	.st9{clip-path:url(#SVGID_16_);}
	.st10{clip-path:url(#SVGID_18_);}
	.st11{clip-path:url(#SVGID_20_);}
	.st12{clip-path:url(#SVGID_22_);}
	.st13{clip-path:url(#SVGID_24_);}
	.st14{fill:#1F2E61;}
	.st15{clip-path:url(#SVGID_26_);}
	.st16{clip-path:url(#SVGID_28_);}
	.st17{fill:none;stroke:#0B2967;stroke-width:2.5;stroke-linecap:round;stroke-linejoin:round;}
	.st18{clip-path:url(#SVGID_30_);}
	.st19{clip-path:url(#SVGID_32_);}
	.st20{clip-path:url(#SVGID_34_);}
	.st21{clip-path:url(#SVGID_36_);}
	.st22{clip-path:url(#SVGID_38_);}
	.st23{clip-path:url(#SVGID_40_);}
	.st24{clip-path:url(#SVGID_42_);}
	.st25{clip-path:url(#SVGID_44_);}
	.st26{fill:none;stroke:#0B2967;stroke-width:2.3438;stroke-linecap:round;stroke-linejoin:round;}
	.st27{clip-path:url(#SVGID_46_);}
	.st28{clip-path:url(#SVGID_48_);}
	.st29{clip-path:url(#SVGID_50_);}
	.st30{clip-path:url(#SVGID_52_);}
</style>
<g>
	<defs>
		<rect id="SVGID_1_" x="166" y="301.1" width="96" height="96"/>
	</defs>
	<clipPath id="SVGID_2_">
		<use xlink:href="#SVGID_1_"  style="overflow:visible;"/>
	</clipPath>
	<g class="st0">
		<g>
			<defs>
				<rect id="SVGID_3_" x="166" y="301.1" width="96" height="96"/>
			</defs>
			<clipPath id="SVGID_4_">
				<use xlink:href="#SVGID_3_"  style="overflow:visible;"/>
			</clipPath>
			<g class="st1">
				<path class="st2" d="M242.6,364.4c-1.1,0-2.1-0.3-3.1-0.9l-20.8-13.3c-0.6-0.4-0.7-1.1-0.4-1.7s1.1-0.7,1.7-0.4l20.8,13.3
					c1.5,0.9,3.5,0.4,4.4-1.1c0.9-1.4,0.5-3.3-0.9-4.3l-32.1-20.9c-0.6-0.4-0.7-1.1-0.4-1.7c0.4-0.6,1.1-0.7,1.7-0.4l0,0l32.1,20.9
					c2.6,1.7,3.4,5.2,1.7,7.9C246.3,363.4,244.5,364.4,242.6,364.4"/>
				<path class="st2" d="M242.8,375.1c-1.1,0-2.1-0.3-3.1-0.9l-22-14.1c-0.6-0.4-0.7-1.1-0.4-1.7s1.1-0.7,1.7-0.4l22,14.1
					c0.7,0.5,1.6,0.6,2.4,0.4c1.7-0.4,2.8-2.1,2.4-3.8c-0.2-0.8-0.7-1.5-1.4-2l-22-14.1c-0.6-0.4-0.7-1.1-0.4-1.7s1.1-0.7,1.7-0.4
					l22,14.1c2.6,1.7,3.4,5.3,1.6,7.9c-0.8,1.2-2.1,2.1-3.5,2.4C243.6,375,243.2,375,242.8,375.1"/>
				<path class="st2" d="M183.5,356.8c-0.3,0-0.6-0.1-0.9-0.4c-0.8-0.7-10.3-7.4-16.1-11.4c-0.6-0.4-0.7-1.1-0.3-1.7l15.4-23.9
					c0.4-0.6,1.1-0.7,1.7-0.4c0.1,0.1,3.3,1.9,6.3,3.9c2.3-1.5,9.3-5.6,16-2.9c0.6,0.3,0.9,1,0.7,1.6c-0.3,0.6-1,0.9-1.6,0.7l0,0
					c-6.7-2.6-14.3,3-14.3,3.1c-0.4,0.3-1,0.3-1.4,0c-2.1-1.4-4.6-2.9-5.9-3.7l-14.1,21.9c4.5,3.1,14.8,10.3,15.5,11
					c0.5,0.5,0.5,1.3,0,1.8C184.1,356.6,183.8,356.7,183.5,356.8"/>
				<path class="st2" d="M222.7,382.8c-1.1,0-2.1-0.3-3.1-0.9l-7.8-4.4c-0.6-0.3-0.8-1.1-0.5-1.7c0.3-0.6,1.1-0.8,1.7-0.5l0,0
					l7.8,4.5c0.7,0.5,1.6,0.7,2.5,0.5c1.7-0.4,2.8-2.1,2.4-3.8c-0.2-0.8-0.7-1.5-1.4-2l-11.4-7.4c-0.6-0.4-0.7-1.1-0.4-1.7
					s1.1-0.7,1.7-0.4l0,0l11.5,7.4c2.6,1.7,3.4,5.2,1.7,7.8c-0.8,1.3-2.1,2.2-3.6,2.5C223.6,382.8,223.2,382.8,222.7,382.8"/>
				<path class="st2" d="M234,379.7c-1.1,0-2.1-0.3-3-0.9l-0.1-0.1l-6.4-4.3c-0.5-0.4-0.6-1.2-0.2-1.8c0.4-0.5,1.1-0.6,1.6-0.3
					l6.4,4.3c1.7,0.9,3,0.6,4-0.9c0.9-1.5,0.5-3.5-1-4.4c0,0,0,0,0,0L214,357.7c-0.6-0.3-0.8-1.1-0.5-1.7s1.1-0.8,1.7-0.5
					c0.1,0,0.1,0.1,0.2,0.1l21.3,13.6c2.6,1.7,3.4,5.2,1.7,7.9C237.4,378.6,235.8,379.6,234,379.7"/>
				<path class="st2" d="M241.5,352.8c-0.3,0-0.6-0.1-0.9-0.4c-0.5-0.5-0.5-1.3,0-1.8c0.7-0.8,11.4-6.8,18.4-10.7l-13.9-21.7
					c-3.6,2.1-12.7,7.3-15.8,7.3c-2.1-0.1-4.2-0.3-6.2-0.6c-4.1-0.5-7.9-1-12.3,0.4c-4.2,1.2-8,3.2-11.3,6c-1.3,1.1-3.4,3.7-3.4,6
					c-0.1,0.9,0.3,1.8,1,2.5c2.3,2.2,4.6,1.5,7.6-0.4c2.6-2,5.1-4.1,7.4-6.3c0.5-0.5,1.3-0.4,1.8,0.1c0.5,0.5,0.4,1.3-0.1,1.8
					c-2.5,2.4-5.1,4.6-7.8,6.6c-1.9,1.2-6.4,4-10.6,0.1c-1.2-1.1-1.9-2.7-1.8-4.3c0.1-3.4,2.9-6.6,4.3-7.9c3.6-3,7.7-5.2,12.2-6.4
					c5-1.6,9.2-1,13.4-0.5c2,0.3,4,0.5,6,0.5l0,0c2,0,10.2-4.4,15.4-7.5c0.6-0.3,1.3-0.2,1.7,0.4l15.2,23.8c0.4,0.6,0.2,1.3-0.4,1.7
					c0,0,0,0-0.1,0c-6.9,3.9-18,10.2-19,11C242.1,352.7,241.8,352.8,241.5,352.8"/>
				<path class="st2" d="M206.4,382.4c-3.1-0.1-5.7-2.5-6.1-5.6c-0.2-1.3,0.3-2.7,1.3-3.6l2.3-2.3l0.1-0.1l1.1-0.8
					c1.9-1.8,5.2-1.5,7.3,0.6s2.4,5.6,0.5,7.4l-0.8,0.8l0,0l-2.6,2.5C208.6,382,207.6,382.4,206.4,382.4 M205.6,372.6l-2.3,2.3
					c-0.4,0.4-0.6,1-0.6,1.6c0.1,0.8,0.5,1.6,1.1,2.1c1.2,1.3,3,1.6,3.9,0.7l3.4-3.3c0.9-0.9,0.6-2.6-0.6-3.9s-2.9-1.5-3.9-0.5
					l-0.1,0.1L205.6,372.6z M211.2,377.8L211.2,377.8z"/>
				<path class="st2" d="M200.3,376.2c-0.2,0-0.4,0-0.7,0c-1.4-0.2-2.7-0.9-3.6-1.9c-2.2-2.3-2.4-5.4-0.5-7.2l2.3-2.3l3.7-3.6
					c1.9-1.9,5.3-1.6,7.4,0.6s2.4,5.6,0.5,7.4l-3.3,3.4l0,0l-2.6,2.5C202.6,375.7,201.5,376.1,200.3,376.2 M204.7,362.3
					c-0.5,0-1.1,0.2-1.5,0.5l-3.6,3.5l-2.3,2.4c-0.9,0.9-0.7,2.5,0.5,3.7c0.6,0.6,1.4,1,2.2,1.2c0.6,0.1,1.2-0.1,1.7-0.5l2.6-2.5
					l3.3-3.4c0.9-0.9,0.7-2.7-0.5-3.9C206.4,362.7,205.6,362.3,204.7,362.3 M205.2,371.6L205.2,371.6z"/>
				<path class="st2" d="M193.6,370c-3.1-0.1-5.7-2.5-6.1-5.6c-0.2-1.3,0.3-2.7,1.3-3.6l2.3-2.3l3-2.7c1.9-1.8,5.2-1.6,7.3,0.6
					s2.4,5.6,0.5,7.4l-2.6,2.5l0,0l-2.6,2.5C195.8,369.7,194.7,370.1,193.6,370 M197.2,357.1c-0.5,0-1.1,0.2-1.5,0.6l-3,2.6
					l-2.3,2.3c-0.4,0.4-0.6,1-0.6,1.6c0.1,0.8,0.5,1.6,1.1,2.1c1.2,1.3,3,1.6,3.9,0.7l5.3-5c0.9-0.9,0.6-2.6-0.6-3.9
					C199,357.5,198.1,357.2,197.2,357.1 M198.4,365.5L198.4,365.5z"/>
				<path class="st2" d="M187.4,363.8c-0.2,0-0.4,0-0.7,0c-1.4-0.2-2.7-0.9-3.6-1.9c-1-1-1.6-2.3-1.8-3.6c-0.1-1.3,0.3-2.7,1.3-3.6
					l2.3-2.3l0.1-0.1l1.1-0.8c1-0.9,2.3-1.3,3.6-1.2c1.4,0.1,2.7,0.8,3.7,1.8c1,1,1.6,2.3,1.8,3.7c0.2,1.4-0.3,2.7-1.3,3.7l-0.8,0.8
					l0,0l-2.6,2.5C189.7,363.4,188.6,363.8,187.4,363.8 M186.6,354.1l-2.3,2.3c-0.4,0.4-0.6,1-0.6,1.6c0.1,0.8,0.5,1.6,1.1,2.1
					c0.6,0.6,1.4,1,2.2,1.2c0.6,0.1,1.2-0.1,1.7-0.5l3.4-3.2c0.4-0.4,0.6-1.1,0.5-1.7c-0.1-0.8-0.5-1.6-1.1-2.2
					c-0.6-0.6-1.3-1-2.1-1.1c-0.6-0.1-1.2,0.1-1.7,0.5l-0.1,0.1L186.6,354.1z M192.3,359.3L192.3,359.3z"/>
			</g>
		</g>
	</g>
</g>
<g>
	<defs>
		<rect id="SVGID_5_" x="24.6" y="146.5" width="96" height="96"/>
	</defs>
	<clipPath id="SVGID_6_">
		<use xlink:href="#SVGID_5_"  style="overflow:visible;"/>
	</clipPath>
	<g class="st3">
		<g>
			<defs>
				<rect id="SVGID_7_" x="24.6" y="146.5" width="96" height="96"/>
			</defs>
			<clipPath id="SVGID_8_">
				<use xlink:href="#SVGID_7_"  style="overflow:visible;"/>
			</clipPath>
			<g class="st4">
				<path class="st2" d="M80.7,178.9H64.5c-0.7,0-1.2-0.6-1.2-1.2V155c0-0.7,0.6-1.2,1.2-1.2c0,0,0,0,0,0h16.2
					c0.7,0,1.2,0.5,1.2,1.2c0,0,0,0,0,0v22.7C81.9,178.4,81.4,179,80.7,178.9 M65.8,176.5h13.7v-20.3H65.8V176.5z"/>
				<path class="st2" d="M58.1,242.4L58.1,242.4c-0.7,0-1.3-0.6-1.3-1.3l3.1-63.5c0-0.7,0.6-1.2,1.3-1.2c0.7,0,1.2,0.6,1.2,1.3
					l-3.1,63.5C59.3,241.9,58.7,242.4,58.1,242.4"/>
				<path class="st2" d="M92.5,242.4H52.7c-0.7,0.1-1.3-0.4-1.4-1.1c-0.1-0.7,0.4-1.3,1.1-1.4c0.1,0,0.1,0,0.2,0h39.8
					c0.7-0.1,1.3,0.4,1.4,1.1c0.1,0.7-0.4,1.3-1.1,1.4C92.7,242.4,92.6,242.4,92.5,242.4"/>
				<path class="st2" d="M87.2,242.4c-0.7,0-1.2-0.5-1.2-1.2l-0.2-5c0-0.7,0.5-1.3,1.2-1.3c0.7,0,1.3,0.5,1.3,1.2l0.3,5
					C88.5,241.8,88,242.4,87.2,242.4L87.2,242.4 M86.6,230.5c-0.7,0-1.2-0.5-1.3-1.2l-2.5-51.6c0-0.7,0.5-1.3,1.2-1.3c0,0,0,0,0,0
					c0.7,0,1.3,0.5,1.3,1.2l2.5,51.6C87.9,229.9,87.4,230.5,86.6,230.5C86.7,230.5,86.7,230.5,86.6,230.5L86.6,230.5"/>
				<path class="st2" d="M88.6,178.9h-32c-0.7,0.1-1.3-0.4-1.4-1.1c-0.1-0.7,0.4-1.3,1.1-1.4c0.1,0,0.1,0,0.2,0h32
					c0.7,0.1,1.2,0.7,1.1,1.4C89.6,178.4,89.2,178.9,88.6,178.9"/>
				<path class="st2" d="M85.1,171.3H60c-0.7-0.1-1.2-0.7-1.1-1.4c0.1-0.6,0.5-1.1,1.1-1.1h25.1c0.7-0.1,1.3,0.4,1.4,1.1
					c0.1,0.7-0.4,1.3-1.1,1.4C85.3,171.3,85.2,171.3,85.1,171.3"/>
				<path class="st2" d="M87.2,206H57.9c-0.7-0.1-1.2-0.7-1.1-1.4c0.1-0.6,0.5-1.1,1.1-1.1h29.3c0.7,0.1,1.2,0.7,1.1,1.4
					C88.3,205.5,87.8,205.9,87.2,206"/>
				<path class="st2" d="M83.8,155.9H61.3c-0.7,0-1.2-0.6-1.2-1.3c0-0.4,0.2-0.8,0.6-1.1l11.3-7c0.4-0.2,0.9-0.2,1.3,0l11.2,7
					c0.5,0.3,0.7,0.9,0.5,1.4C84.9,155.6,84.4,155.9,83.8,155.9 M65.6,153.4h13.8l-6.8-4.3L65.6,153.4z"/>
				<path class="st2" d="M76.8,242.5c-0.7,0-1.2-0.5-1.2-1.2c0,0,0,0,0,0v-10c-0.1-1.6-1.5-2.8-3.1-2.8c-1.5,0.1-2.7,1.3-2.8,2.8v10
					c-0.1,0.7-0.7,1.2-1.4,1.1c-0.6-0.1-1.1-0.5-1.1-1.1v-10c0.1-3,2.7-5.3,5.6-5.2c2.8,0.1,5.1,2.4,5.2,5.2v10
					C78,241.9,77.5,242.5,76.8,242.5C76.8,242.5,76.8,242.5,76.8,242.5"/>
				<path class="st2" d="M75.3,198.7H70c-0.7,0-1.2-0.5-1.2-1.2c0,0,0,0,0,0V191c0.1-2.2,2-3.8,4.1-3.7c2,0.1,3.6,1.7,3.7,3.7v6.5
					C76.5,198.2,76,198.7,75.3,198.7C75.3,198.7,75.3,198.7,75.3,198.7 M71.2,196.3H74V191c-0.1-0.8-0.8-1.4-1.5-1.3
					c-0.7,0.1-1.2,0.6-1.3,1.3V196.3z"/>
				<path class="st2" d="M76,171.3h-6.7c-0.7,0-1.2-0.5-1.3-1.2c0,0,0,0,0,0v-15c0-0.7,0.6-1.2,1.2-1.2c0,0,0,0,0,0H76
					c0.7,0,1.2,0.5,1.2,1.2c0,0,0,0,0,0v15C77.2,170.7,76.7,171.2,76,171.3C76,171.2,76,171.2,76,171.3 M70.5,168.8h4.2v-12.6h-4.2
					V168.8z"/>
			</g>
		</g>
	</g>
</g>
<g>
	<defs>
		<rect id="SVGID_9_" x="10" y="3.4" width="96" height="96"/>
	</defs>
	<clipPath id="SVGID_10_">
		<use xlink:href="#SVGID_9_"  style="overflow:visible;"/>
	</clipPath>
	<g class="st5">
		<g>
			<defs>
				<rect id="SVGID_11_" x="10" y="3.4" width="96" height="96"/>
			</defs>
			<clipPath id="SVGID_12_">
				<use xlink:href="#SVGID_11_"  style="overflow:visible;"/>
			</clipPath>
			<g class="st6">
				<path class="st7" d="M104.8,82.2h-10c-0.7,0.1-1.3-0.4-1.4-1.1c-0.1-0.7,0.4-1.3,1.1-1.4c0.1,0,0.1,0,0.2,0h8.7V23.1H46.8v56.7
					h49.9c0.7,0.1,1.2,0.7,1.1,1.4c-0.1,0.6-0.5,1.1-1.1,1.1H45.6c-0.7,0-1.2-0.6-1.3-1.2V21.8c0-0.7,0.6-1.2,1.2-1.2c0,0,0,0,0,0
					h59.2c0.7,0,1.2,0.5,1.2,1.2V81C106,81.7,105.4,82.2,104.8,82.2"/>
				<path class="st7" d="M81.6,39.9H68.8c-0.7,0-1.2-0.5-1.2-1.2c0,0,0,0,0,0V26.9c0.1-0.7,0.7-1.2,1.4-1.1c0.6,0.1,1.1,0.5,1.1,1.1
					v10.5h10.3V26.9c0.1-0.7,0.7-1.2,1.4-1.1c0.6,0.1,1.1,0.5,1.1,1.1v11.8C82.8,39.3,82.3,39.9,81.6,39.9"/>
				<path class="st7" d="M59.5,63.7H25.2C24.5,63.6,24,63,24,62.3c0.1-0.6,0.5-1.1,1.1-1.1h34.3c0.7,0.1,1.2,0.7,1.1,1.4
					C60.6,63.1,60.1,63.6,59.5,63.7 M18.2,63.7h-7c-0.7-0.1-1.2-0.7-1.1-1.4c0.1-0.6,0.5-1.1,1.1-1.1h7c0.7,0.1,1.2,0.7,1.1,1.4
					C19.3,63.1,18.8,63.6,18.2,63.7"/>
				<path class="st7" d="M68.6,47h-5c-0.7-0.1-1.2-0.7-1.1-1.4c0.1-0.6,0.5-1.1,1.1-1.1h5c0.7,0.1,1.2,0.7,1.1,1.4
					C69.6,46.5,69.2,47,68.6,47 M56.6,47H29.7c-0.7-0.1-1.2-0.7-1.1-1.4c0.1-0.6,0.5-1.1,1.1-1.1h26.9c0.7,0.1,1.2,0.7,1.1,1.4
					C57.7,46.5,57.2,47,56.6,47"/>
				<path class="st7" d="M61.5,55.6h-5c-0.7,0-1.2-0.6-1.2-1.2c0-0.7,0.6-1.2,1.2-1.2h5c0.7,0,1.2,0.6,1.2,1.2
					C62.8,55,62.2,55.6,61.5,55.6 M48.6,55.6H21.4c-0.7,0-1.2-0.6-1.2-1.2s0.6-1.2,1.2-1.2c0,0,0,0,0,0h27.2c0.7,0,1.2,0.6,1.2,1.2
					C49.8,55,49.3,55.6,48.6,55.6"/>
			</g>
		</g>
	</g>
</g>
<g>
	<defs>
		<rect id="SVGID_13_" x="166" y="-7.2" width="96" height="96"/>
	</defs>
	<clipPath id="SVGID_14_">
		<use xlink:href="#SVGID_13_"  style="overflow:visible;"/>
	</clipPath>
	<g class="st8">
		<g>
			<defs>
				<rect id="SVGID_15_" x="166" y="-7.2" width="96" height="96"/>
			</defs>
			<clipPath id="SVGID_16_">
				<use xlink:href="#SVGID_15_"  style="overflow:visible;"/>
			</clipPath>
			<g class="st9">
				<path class="st7" d="M256.1,38.5h-23.9c-0.7-0.1-1.2-0.7-1.1-1.4c0.1-0.6,0.5-1.1,1.1-1.1h23.9c0.7-0.1,1.3,0.4,1.4,1.1
					s-0.4,1.3-1.1,1.4C256.3,38.5,256.2,38.5,256.1,38.5"/>
				<path class="st7" d="M260.7,54.3h-14.3c-0.7,0-1.2-0.6-1.2-1.3c0,0,0,0,0,0V37.2c0.1-0.7,0.7-1.2,1.4-1.1
					c0.6,0.1,1.1,0.5,1.1,1.1v14.6h13c0.7-0.1,1.3,0.4,1.4,1.1c0.1,0.7-0.4,1.3-1.1,1.4C260.9,54.3,260.8,54.3,260.7,54.3"/>
				<path class="st7" d="M167.2,36.4c-0.7,0-1.2-0.6-1.2-1.2v-5.5c0-0.7,0.6-1.2,1.2-1.2l0,0h12.6c0.7,0.1,1.2,0.7,1.1,1.4
					c-0.1,0.6-0.5,1.1-1.1,1.1h-11.4v4.3C168.4,35.9,167.9,36.4,167.2,36.4L167.2,36.4"/>
				<path class="st7" d="M190.3,71.8L190.3,71.8c-0.7,0-1.2-0.6-1.2-1.3c0-0.7,0.6-1.2,1.3-1.2c0.7,0,1.2,0.6,1.2,1.2
					C191.5,71.3,191,71.8,190.3,71.8C190.3,71.8,190.3,71.8,190.3,71.8"/>
				<path class="st7" d="M173.6,71.8h-6.4c-0.7,0-1.2-0.6-1.2-1.3V35.2c0-0.7,0.6-1.2,1.2-1.2c0.7,0,1.2,0.6,1.2,1.2c0,0,0,0,0,0
					v34.2h5.2c0.7-0.1,1.3,0.4,1.4,1.1c0.1,0.7-0.4,1.3-1.1,1.4C173.8,71.9,173.8,71.9,173.6,71.8"/>
				<path class="st7" d="M197.2,71.9c-0.7,0.1-1.3-0.4-1.4-1.1c-0.1-0.7,0.4-1.3,1.1-1.4c0.1,0,0.1,0,0.2,0h35l0,0
					c0.7,0.1,1.2,0.7,1.1,1.4c-0.1,0.6-0.5,1.1-1.1,1.1H197.2z"/>
				<path class="st7" d="M232.2,71.8c-0.7,0-1.2-0.6-1.2-1.3V30.9h-11.7c-0.7,0.1-1.3-0.4-1.4-1.1c-0.1-0.7,0.4-1.3,1.1-1.4
					c0.1,0,0.1,0,0.2,0h12.9c0.7,0,1.2,0.6,1.2,1.2c0,0,0,0,0,0v40.9C233.4,71.3,232.9,71.8,232.2,71.8
					C232.2,71.8,232.2,71.8,232.2,71.8"/>
				<path class="st7" d="M225.4,64.9h-30.8c-0.7-0.1-1.2-0.7-1.1-1.4c0.1-0.6,0.5-1.1,1.1-1.1h30.8c0.7,0.1,1.2,0.7,1.1,1.4
					C226.5,64.4,226,64.9,225.4,64.9"/>
				<path class="st7" d="M190.2,71.8h-0.1c-0.7-0.1-1.2-0.7-1.1-1.3c0-0.2,0-0.4,0-0.6c0-3.9-3.2-7.1-7.1-7.1s-7.1,3.2-7.1,7.1
					c0,0.2,0,0.4,0,0.6c0.1,0.7-0.5,1.3-1.1,1.3s-1.3-0.5-1.3-1.1l0,0c0-0.3,0-0.5,0-0.8c-0.2-5.3,4-9.7,9.3-9.9
					c5.3-0.2,9.7,4,9.9,9.3c0,0.2,0,0.4,0,0.6c0,0.3,0,0.5,0,0.8C191.4,71.3,190.9,71.8,190.2,71.8"/>
				<path class="st7" d="M181.9,79.5c-5,0-9.1-3.8-9.5-8.8c0-0.7,0.5-1.3,1.1-1.3c0.7-0.1,1.3,0.4,1.3,1.1c0,0,0,0,0,0
					c0.3,3.9,3.7,6.8,7.6,6.5c3.5-0.3,6.3-3,6.5-6.5c0.1-0.7,0.7-1.2,1.3-1.1s1.2,0.7,1.1,1.3C191,75.7,186.9,79.5,181.9,79.5"/>
				<path class="st7" d="M178,71.8c-0.6,0-1.1-0.4-1.2-1c-0.1-0.3-0.1-0.6-0.1-0.9c-0.1-2.9,2.1-5.4,5-5.5s5.4,2.1,5.5,5
					c0,0.2,0,0.3,0,0.5c0,0.3,0,0.6-0.1,0.9c-0.1,0.7-0.8,1.1-1.4,1s-1.1-0.8-1-1.4l0,0c0-0.2,0-0.3,0.1-0.5c0-1.5-1.2-2.8-2.8-2.8
					c-1.5,0-2.8,1.2-2.8,2.8c0,0.2,0,0.3,0.1,0.5c0.1,0.7-0.3,1.3-1,1.4L178,71.8"/>
				<path class="st7" d="M181.9,75.2c-2.6,0-4.8-1.8-5.2-4.4c-0.1-0.7,0.3-1.3,1-1.4s1.3,0.3,1.4,1l0,0c0.3,1.5,1.7,2.5,3.2,2.3
					c1.2-0.2,2.1-1.1,2.3-2.3c0.1-0.7,0.8-1.1,1.4-1c0.7,0.1,1.1,0.8,1,1.4c0,0,0,0,0,0C186.7,73.4,184.5,75.2,181.9,75.2"/>
				<path class="st7" d="M260.7,71.8h-6c-0.7-0.1-1.2-0.7-1.1-1.4c0.1-0.6,0.5-1.1,1.1-1.1h4.7V53l-4.6-15.5c-0.1-0.7,0.3-1.3,1-1.5
					c0.6-0.1,1.2,0.2,1.4,0.8l4.6,15.7c0,0.1,0,0.2,0,0.3v17.8C261.9,71.3,261.4,71.8,260.7,71.8"/>
				<path class="st7" d="M238.2,71.8h-6c-0.7-0.1-1.2-0.7-1.1-1.4c0.1-0.6,0.5-1.1,1.1-1.1h6c0.7,0.1,1.2,0.7,1.1,1.4
					C239.3,71.3,238.8,71.8,238.2,71.8"/>
				<path class="st7" d="M238.2,71.8c-0.6,0-1.2-0.5-1.2-1.2v-0.4c0.2-5.3,4.7-9.4,10-9.2c4.7,0.2,8.5,3.7,9.1,8.4
					c0,0.4,0,0.8,0,1.2c-0.1,0.7-0.7,1.2-1.3,1.1s-1.2-0.7-1.1-1.3c0-0.3,0-0.6,0-0.9c-0.2-3.9-3.5-6.9-7.4-6.8
					c-1.9,0.1-3.6,0.9-4.9,2.3c-1.3,1.4-2,3.2-1.9,5.1v0.3C239.4,71.2,238.9,71.8,238.2,71.8C238.2,71.8,238.2,71.8,238.2,71.8
					L238.2,71.8"/>
				<path class="st7" d="M246.4,79.5c-5,0-9.1-3.8-9.5-8.8c-0.1-0.7,0.4-1.3,1.1-1.3c0,0,0,0,0,0c0.7,0,1.3,0.5,1.3,1.1
					c0.3,3.9,3.7,6.8,7.6,6.5c3.4-0.3,6.2-3,6.5-6.5c0.1-0.7,0.7-1.2,1.3-1.1s1.2,0.7,1.1,1.3c-0.4,4.8-4.3,8.6-9.1,8.8L246.4,79.5"
					/>
				<path class="st7" d="M250.4,71.8h-0.2c-0.7-0.1-1.1-0.8-1-1.4c0-0.2,0-0.3,0.1-0.5c0-1.5-1.2-2.8-2.8-2.8
					c-1.5,0-2.8,1.2-2.8,2.8c0,0.2,0,0.3,0,0.5c0.1,0.7-0.3,1.3-1,1.4s-1.3-0.3-1.4-1c-0.1-0.3-0.1-0.6-0.1-0.9
					c-0.1-2.9,2.1-5.4,5-5.5s5.4,2.1,5.5,5c0,0.2,0,0.3,0,0.5c0,0.3,0,0.6-0.1,0.9C251.5,71.4,251,71.8,250.4,71.8"/>
				<path class="st7" d="M246.5,75.2c-2.6,0-4.8-1.8-5.2-4.4c-0.1-0.7,0.3-1.3,1-1.4s1.3,0.3,1.4,1l0,0c0.3,1.5,1.7,2.5,3.2,2.3
					c1.2-0.2,2.1-1.1,2.3-2.3c0.1-0.7,0.8-1.1,1.4-1c0.7,0.1,1.1,0.8,1,1.4c0,0,0,0,0,0C251.2,73.4,249,75.2,246.5,75.2"/>
				<path class="st7" d="M199.9,56.6c-0.7,0-1.2-0.6-1.2-1.2c0,0,0,0,0,0V17c0-0.7,0.6-1.2,1.2-1.2s1.2,0.6,1.2,1.2c0,0,0,0,0,0
					v38.3C201.1,56,200.5,56.6,199.9,56.6C199.9,56.6,199.9,56.6,199.9,56.6"/>
				<path class="st7" d="M204.1,46.1c-0.7,0-1.2-0.5-1.3-1.2c0-0.6,0.4-1.1,0.9-1.2c5.9-1.6,11.2-6.9,9.7-12.8s-10.6-20.4-13.7-25.3
					c-3.1,4.8-12.1,19.3-13.6,25.3c-1.5,5.8,3.7,11,9.5,12.7c0.7,0.2,1,0.9,0.8,1.6c-0.2,0.7-0.9,1-1.6,0.8l0,0
					c-7-2-13.1-8.5-11.3-15.7c1.9-7.6,14.5-26.8,15-27.6c0.4-0.6,1.2-0.7,1.8-0.3c0.1,0.1,0.2,0.2,0.3,0.3c0.5,0.8,13.1,20,15,27.6
					c2,7.3-4.3,13.7-11.3,15.7C204.4,46,204.3,46,204.1,46.1"/>
				<path class="st7" d="M199.9,40c-0.3,0-0.5-0.1-0.7-0.2l-9.9-7c-0.6-0.3-0.8-1.1-0.5-1.7s1.1-0.8,1.7-0.5
					c0.1,0.1,0.2,0.1,0.3,0.2l9.9,7c0.6,0.4,0.7,1.2,0.3,1.7C200.7,39.8,200.3,40,199.9,40"/>
				<path class="st7" d="M199.8,40c-0.4,0-0.8-0.2-1-0.5c-0.4-0.6-0.3-1.3,0.3-1.7l9.9-7c0.6-0.3,1.4-0.1,1.7,0.5
					c0.3,0.5,0.2,1.1-0.2,1.5l-9.9,7C200.4,39.9,200.1,40,199.8,40"/>
				<path class="st7" d="M199.9,26.4c-0.3,0-0.5-0.1-0.7-0.2l-5.3-3.8c-0.6-0.3-0.8-1.1-0.5-1.7c0.3-0.6,1.1-0.8,1.7-0.5
					c0.1,0,0.2,0.1,0.2,0.2l5.3,3.8c0.6,0.4,0.7,1.2,0.3,1.7C200.7,26.2,200.3,26.4,199.9,26.4"/>
				<path class="st7" d="M199.8,26.4c-0.4,0-0.8-0.2-1-0.5c-0.4-0.6-0.3-1.3,0.3-1.7l5.3-3.8c0.6-0.3,1.4-0.1,1.7,0.5
					c0.3,0.5,0.2,1.1-0.2,1.5l-5.3,3.8C200.4,26.3,200.1,26.4,199.8,26.4"/>
			</g>
		</g>
	</g>
</g>
<g>
	<defs>
		<rect id="SVGID_17_" x="24.6" y="301.1" width="96" height="96"/>
	</defs>
	<clipPath id="SVGID_18_">
		<use xlink:href="#SVGID_17_"  style="overflow:visible;"/>
	</clipPath>
	<g class="st10">
		<g>
			<defs>
				<rect id="SVGID_19_" x="24.6" y="301.1" width="96" height="96"/>
			</defs>
			<clipPath id="SVGID_20_">
				<use xlink:href="#SVGID_19_"  style="overflow:visible;"/>
			</clipPath>
			<g class="st11">
				<path class="st7" d="M94.2,375.5c-6,0-10.8-4.8-10.8-10.8c0-6,4.8-10.8,10.8-10.8s10.8,4.8,10.8,10.8c0,0,0,0,0,0
					C105,370.7,100.2,375.5,94.2,375.5 M94.2,356.4c-4.6,0-8.3,3.7-8.3,8.3c0,4.6,3.7,8.3,8.3,8.3c4.6,0,8.3-3.7,8.3-8.3
					c0,0,0,0,0,0C102.5,360.2,98.8,356.4,94.2,356.4"/>
				<path class="st7" d="M94.2,370.6c-3.2,0-5.9-2.6-5.9-5.9c0-3.2,2.6-5.9,5.9-5.9c3.2,0,5.9,2.6,5.9,5.9c0,0,0,0,0,0
					C100.1,368,97.5,370.6,94.2,370.6 M94.2,361.4c-1.9,0-3.3,1.5-3.3,3.4c0,1.9,1.5,3.3,3.4,3.3c1.9,0,3.3-1.5,3.3-3.4
					C97.6,362.9,96.1,361.4,94.2,361.4"/>
				<path class="st7" d="M80.3,368.8H55.7c-0.7,0-1.3-0.6-1.3-1.3s0.6-1.3,1.3-1.3h24.6c0.7,0,1.3,0.6,1.3,1.3S81,368.8,80.3,368.8"
					/>
				<path class="st7" d="M37.5,368.8h-8.3c-3.3-0.5-4.8-2.5-4.5-6c0.2-1.7,0.6-3.3,1.4-4.8c0.3-0.6,0.6-1.7,1.1-2.9
					c2-5.6,3.8-10.4,5.9-11.6l1.6-1c0.2-0.1,0.4-0.2,0.7-0.2h62.3c0.7,0,1.3,0.6,1.3,1.3s-0.6,1.3-1.3,1.3h-62l-1.3,0.8
					c-1.5,0.9-3.7,7.3-4.8,10.3c-0.5,1.3-0.8,2.4-1.1,3.1c-0.6,1.3-1,2.7-1.2,4.1c-0.2,2.1,0.3,2.9,2.2,3.2h8c0.7,0,1.3,0.6,1.3,1.3
					S38.1,368.8,37.5,368.8"/>
				<path class="st7" d="M114.6,368.8h-10.5c-0.7,0-1.3-0.6-1.3-1.3s0.6-1.3,1.3-1.3h10.5c1.9,0,3.4-1.5,3.4-3.5
					c0-0.3,0-0.6-0.1-0.9c-4.4-17.2-8.8-17.2-20.5-17.2c-0.7,0-1.3-0.6-1.3-1.3c0-0.7,0.6-1.3,1.3-1.3l0,0
					c12.8,0,18.3,0.7,22.9,19.1c0.8,3.2-1.2,6.5-4.4,7.3C115.6,368.7,115.1,368.8,114.6,368.8"/>
				<path class="st7" d="M99.2,344.8c-0.5,0-1-0.3-1.2-0.8l-0.2-0.4c-2.3-6.4-6.2-17.2-19.5-17c-5.4,0.1-7.8,0.1-12.1,0h-6.6
					c-5.8,0-8.1,1.4-9.7,2.4l-0.1,0.1c-3.2,2-5,4.8-7,7.7c-2,2.9-3.8,5.8-7,7.8c-0.6,0.4-1.4,0.2-1.7-0.4s-0.2-1.4,0.4-1.7l0,0
					c2.8-1.8,4.4-4.4,6.2-7.1c2-3.1,4-6.2,7.8-8.5l0.1-0.1c1.7-1,4.5-2.8,11-2.8h6.6c4.3,0,6.7,0,12,0c15.1-0.2,19.6,12.1,21.9,18.6
					l0.2,0.4c0.2,0.6-0.1,1.3-0.7,1.6C99.5,344.8,99.4,344.8,99.2,344.8"/>
				<path class="st7" d="M77.4,344.8c-0.7,0-1.3-0.6-1.3-1.3l0,0v-18.2c0-0.7,0.6-1.3,1.3-1.3s1.3,0.6,1.3,1.3l0,0v18.2
					C78.6,344.2,78.1,344.8,77.4,344.8"/>
				<path class="st7" d="M59.6,344.8c-0.7,0-1.3-0.6-1.3-1.3l0,0v-18.2c0-0.7,0.6-1.3,1.3-1.3s1.3,0.6,1.3,1.3l0,0v18.2
					C60.9,344.2,60.3,344.8,59.6,344.8"/>
				<path class="st7" d="M46.6,375.5c-6,0-10.8-4.8-10.8-10.8c0-6,4.8-10.8,10.8-10.8s10.8,4.8,10.8,10.8c0,0,0,0,0,0
					C57.4,370.7,52.5,375.5,46.6,375.5 M46.6,356.4c-4.6,0-8.3,3.7-8.3,8.3s3.7,8.3,8.3,8.3c4.6,0,8.3-3.7,8.3-8.3c0,0,0,0,0,0
					C54.8,360.2,51.1,356.4,46.6,356.4"/>
				<path class="st7" d="M46.6,370.6c-3.2,0-5.9-2.6-5.9-5.9s2.6-5.9,5.9-5.9s5.9,2.6,5.9,5.9c0,0,0,0,0,0
					C52.4,368,49.8,370.6,46.6,370.6 M46.6,361.4c-1.9,0-3.4,1.5-3.4,3.4c0,1.9,1.5,3.4,3.3,3.4c1.9,0,3.4-1.5,3.4-3.3c0,0,0,0,0,0
					C49.9,362.9,48.4,361.4,46.6,361.4"/>
				<path class="st7" d="M114,351.7h-7.3c-0.7,0-1.3-0.6-1.3-1.3c0-0.7,0.6-1.3,1.3-1.3l0,0h7.3c0.7,0,1.3,0.6,1.3,1.3
					C115.3,351.1,114.7,351.7,114,351.7"/>
				<path class="st7" d="M117.1,355.7h-9.4c-0.7,0-1.3-0.6-1.3-1.3c0-0.7,0.6-1.3,1.3-1.3l0,0h9.4c0.7,0,1.3,0.6,1.3,1.3
					C118.3,355.1,117.8,355.7,117.1,355.7"/>
			</g>
		</g>
	</g>
</g>
<g>
	<defs>
		<rect id="SVGID_21_" x="473.3" y="301.1" width="96" height="96"/>
	</defs>
	<clipPath id="SVGID_22_">
		<use xlink:href="#SVGID_21_"  style="overflow:visible;"/>
	</clipPath>
	<g class="st12">
		<g>
			<defs>
				<rect id="SVGID_23_" x="473.3" y="301.1" width="96" height="96"/>
			</defs>
			<clipPath id="SVGID_24_">
				<use xlink:href="#SVGID_23_"  style="overflow:visible;"/>
			</clipPath>
			<g class="st13">
				<path class="st14" d="M532.7,355.9h-22.6c-0.7,0-1.2-0.6-1.2-1.3v-22.6c0-0.7,0.6-1.2,1.2-1.3h22.6c0.7,0,1.2,0.6,1.2,1.3v22.6
					C534,355.4,533.4,355.9,532.7,355.9 M511.3,353.4h20.1v-20.1h-20.1V353.4z"/>
				<path class="st14" d="M521.3,317.4c-4.5,0.3-8.4-3.1-8.7-7.7c-0.3-4.5,3.1-8.4,7.7-8.7c4.5-0.3,8.4,3.1,8.7,7.7
					c0,0.2,0,0.3,0,0.5C529.1,313.6,525.7,317.3,521.3,317.4 M521.3,303.6c-3.1-0.3-5.9,2-6.2,5.2s2,5.9,5.2,6.2
					c3.1,0.3,5.9-2,6.2-5.2c0-0.2,0-0.3,0-0.5C526.7,306.3,524.3,303.7,521.3,303.6"/>
				<path class="st14" d="M505.8,350.4c-0.5,0-1-0.3-1.2-0.8l-4.4-12.3c-0.1-0.4-0.1-0.8,0.1-1.1l8.1-12.9c0.1-0.2,0.3-0.4,0.6-0.5
					l3.6-1.5l3.7-2.4c0.4-0.2,0.9-0.2,1.3,0l2,1.1l2.5,1.5c0.6,0.4,0.7,1.2,0.3,1.7c-0.4,0.5-1.1,0.7-1.6,0.4l-3.8-2.3l-3.2,2
					l-0.2,0.1l-3.3,1.3l-7.5,12l4.2,11.8c0.2,0.6-0.1,1.4-0.8,1.6C506.1,350.4,505.9,350.4,505.8,350.4"/>
				<path class="st14" d="M536.9,350.4c-0.1,0-0.3,0-0.4-0.1c-0.6-0.2-1-0.9-0.8-1.6L540,337l-7.5-12l-3.3-1.3
					c-0.1,0-0.1-0.1-0.2-0.1l-3.2-2l-1.3,0.8l-2.4,1.4c-0.6,0.3-1.4,0.1-1.7-0.5c-0.3-0.6-0.1-1.2,0.4-1.6l2.5-1.5l2-1.2
					c0.4-0.2,0.9-0.2,1.3,0l3.7,2.4l3.5,1.5c0.2,0.1,0.4,0.3,0.6,0.5l8,12.9c0.2,0.3,0.2,0.7,0.1,1.1l-4.4,12.3
					C537.9,350,537.4,350.4,536.9,350.4"/>
				<path class="st14" d="M530.1,397.1h-17.8c-0.7,0-1.2-0.5-1.3-1.2l-0.9-36.6c0-0.7,0.6-1.2,1.3-1.2c0.6,0,1.1,0.5,1.2,1.1
					l0.9,35.4h15.3l1-35.5c0-0.7,0.6-1.2,1.2-1.2l0,0c0.7,0,1.2,0.6,1.2,1.3l-1,36.7C531.3,396.5,530.8,397.1,530.1,397.1"/>
				<path class="st14" d="M521.3,396.1c-0.7,0-1.2-0.6-1.2-1.2v-35.5c0-0.7,0.6-1.2,1.2-1.2c0.7,0,1.2,0.6,1.2,1.2v35.5
					C522.6,395.6,522,396.1,521.3,396.1"/>
				<path class="st14" d="M525.3,338.7h-8c-0.7,0-1.2-0.6-1.2-1.2c0-0.7,0.6-1.2,1.2-1.2l0,0h8c0.7,0,1.2,0.6,1.2,1.2
					C526.6,338.1,526,338.7,525.3,338.7"/>
			</g>
		</g>
	</g>
</g>
<g>
	<defs>
		<rect id="SVGID_25_" x="166" y="148" width="96" height="96"/>
	</defs>
	<clipPath id="SVGID_26_">
		<use xlink:href="#SVGID_25_"  style="overflow:visible;"/>
	</clipPath>
	<g class="st15">
		<g>
			<defs>
				<rect id="SVGID_27_" x="166" y="148" width="96" height="96"/>
			</defs>
			<clipPath id="SVGID_28_">
				<use xlink:href="#SVGID_27_"  style="overflow:visible;"/>
			</clipPath>
			<g class="st16">
				<path class="st17" d="M214.6,229.2c-21.6,4.2-42.5-9.8-46.7-31.4c-4.2-21.6,9.8-42.5,31.4-46.7c21.6-4.2,42.5,9.8,46.7,31.4
					c0.5,2.5,0.7,5.1,0.7,7.6c0,1.5-0.1,3-0.3,4.5"/>
				<path class="st17" d="M260.7,217c0,13.6-11,24.7-24.7,24.7c-13.6,0-24.7-11-24.7-24.7c0-13.6,11-24.7,24.7-24.7c0,0,0,0,0,0
					C249.7,192.3,260.7,203.4,260.7,217C260.7,217,260.7,217,260.7,217"/>
				<path class="st17" d="M260.7,217c0,13.6-11,24.7-24.7,24.7c-13.6,0-24.7-11-24.7-24.7c0-13.6,11-24.7,24.7-24.7c0,0,0,0,0,0
					C249.7,192.3,260.7,203.4,260.7,217C260.7,217,260.7,217,260.7,217z"/>
				<polyline class="st17" points="207,150.4 207,190.2 235.3,162.2 				"/>
				<path class="st17" d="M228.7,227.2h10.9c2.8,0,5.1-2.3,5.1-5.1s-2.3-5.1-5.1-5.1h-7.1c-2.8,0-5.1-2.3-5.1-5.1s2.3-5.1,5.1-5.1
					h10.9"/>
				<path class="st17" d="M228.7,227.2h10.9c2.8,0,5.1-2.3,5.1-5.1s-2.3-5.1-5.1-5.1h-7.1c-2.8,0-5.1-2.3-5.1-5.1s2.3-5.1,5.1-5.1
					h10.9"/>
				<line class="st17" x1="236.5" y1="206.8" x2="236.5" y2="199.9"/>
				<line class="st17" x1="236.5" y1="206.8" x2="236.5" y2="199.9"/>
				<line class="st17" x1="236.5" y1="234.1" x2="236.5" y2="227.2"/>
				<line class="st17" x1="236.5" y1="234.1" x2="236.5" y2="227.2"/>
			</g>
		</g>
	</g>
</g>
<g>
	<defs>
		<rect id="SVGID_29_" x="473.3" y="149.9" width="96" height="96"/>
	</defs>
	<clipPath id="SVGID_30_">
		<use xlink:href="#SVGID_29_"  style="overflow:visible;"/>
	</clipPath>
	<g class="st18">
		<g>
			<defs>
				<rect id="SVGID_31_" x="473.3" y="149.9" width="96" height="96"/>
			</defs>
			<clipPath id="SVGID_32_">
				<use xlink:href="#SVGID_31_"  style="overflow:visible;"/>
			</clipPath>
			<g class="st19">
				<path class="st7" d="M545.6,245.9h-48.6c-7.3,0-13.2-5.9-13.2-13.2v-26.4c0-7.3,5.9-13.2,13.2-13.2h48.6
					c7.3,0,13.2,5.9,13.2,13.2v26.4C558.8,240,552.9,245.9,545.6,245.9 M497.1,195.5c-5.9,0-10.7,4.8-10.7,10.7v26.4
					c0,5.9,4.8,10.7,10.7,10.7h48.6c5.9,0,10.7-4.8,10.7-10.7v-26.4c0-5.9-4.8-10.7-10.7-10.7H497.1z"/>
				<path class="st7" d="M546.1,195.5c-0.7,0-1.2-0.6-1.3-1.2v-10c-0.1-0.7,0.4-1.3,1.1-1.4c0.7-0.1,1.3,0.4,1.4,1.1
					c0,0.1,0,0.1,0,0.2v10C547.3,195,546.8,195.5,546.1,195.5 M496.6,195.5c-0.7,0-1.2-0.6-1.2-1.2v-18.4c0-14.4,11.6-26,26-26
					c14.4,0,26,11.6,26,26v1.4c0.1,0.7-0.4,1.3-1.1,1.4c-0.7,0.1-1.3-0.4-1.4-1.1c0-0.1,0-0.1,0-0.2v-1.4
					c-0.4-13-11.2-23.2-24.2-22.8c-12.4,0.4-22.5,10.4-22.8,22.8v18.4C497.8,195,497.3,195.5,496.6,195.5"/>
				<path class="st7" d="M539.6,195.5c-0.7,0-1.3-0.5-1.3-1.2c0,0,0,0,0,0v-18.6c0-9.4-7.6-17-17-17c-9.4,0-17,7.6-17,17v18.6
					c0,0.7-0.6,1.3-1.3,1.3c-0.7,0-1.3-0.6-1.3-1.3v-18.6c0-10.8,8.7-19.5,19.5-19.5c10.8,0,19.5,8.7,19.5,19.5c0,0,0,0,0,0v18.6
					C540.8,195,540.3,195.5,539.6,195.5"/>
				<path class="st7" d="M521.3,232c-2.9,0-5.2-2.3-5.2-5.2l0,0v-7.2c-3.1-2.9-3.3-7.7-0.4-10.8c2.9-3.1,7.7-3.3,10.8-0.4
					c3.1,2.9,3.3,7.7,0.4,10.8c-0.1,0.1-0.3,0.3-0.4,0.4v7.2C526.5,229.7,524.2,232,521.3,232C521.3,232,521.3,232,521.3,232
					 M521.3,208.9c-2.8,0-5.1,2.3-5.1,5.1c0,1.6,0.7,3.1,2,4c0.3,0.2,0.5,0.6,0.5,1v7.8c0,1.5,1.2,2.7,2.7,2.7s2.7-1.2,2.7-2.7l0,0
					v-7.8c0-0.4,0.2-0.8,0.5-1c2.2-1.8,2.6-5,0.9-7.2C524.4,209.6,522.9,208.9,521.3,208.9"/>
			</g>
		</g>
	</g>
</g>
<g>
	<defs>
		<rect id="SVGID_33_" x="473.3" y="3.4" width="96" height="96"/>
	</defs>
	<clipPath id="SVGID_34_">
		<use xlink:href="#SVGID_33_"  style="overflow:visible;"/>
	</clipPath>
	<g class="st20">
		<g>
			<defs>
				<rect id="SVGID_35_" x="473.3" y="3.4" width="96" height="96"/>
			</defs>
			<clipPath id="SVGID_36_">
				<use xlink:href="#SVGID_35_"  style="overflow:visible;"/>
			</clipPath>
			<g class="st21">
				<path class="st7" d="M498,66.6h-23.4c-0.7,0-1.2-0.5-1.2-1.2v-9.8c0-0.7,0.5-1.2,1.2-1.2l0,0H498c0.7,0,1.2,0.5,1.2,1.2
					c0,0,0,0,0,0v9.7C499.2,66.1,498.6,66.6,498,66.6L498,66.6 M475.8,64.2h21v-7.3h-20.9L475.8,64.2z"/>
				<path class="st7" d="M568.1,66.6H498c-0.7,0-1.2-0.5-1.2-1.2l0,0v-9.7c0-0.7,0.5-1.2,1.2-1.2l0,0h70.2c0.7,0,1.2,0.5,1.2,1.2
					c0,0,0,0,0,0v9.7C569.3,66.1,568.8,66.6,568.1,66.6 M499.2,64.2h67.7v-7.3h-67.7L499.2,64.2z"/>
				<path class="st7" d="M562.3,62.7c-0.7,0-1.2-0.6-1.2-1.2v-5.9c0.1-0.7,0.7-1.2,1.3-1.1c0.6,0.1,1.1,0.5,1.1,1.1v5.9
					C563.5,62.2,562.9,62.7,562.3,62.7"/>
				<path class="st7" d="M556.4,60.7c-0.7,0-1.2-0.5-1.2-1.2v-3.8c0.1-0.7,0.7-1.2,1.3-1.1c0.6,0.1,1.1,0.5,1.1,1.1v3.8
					C557.6,60.2,557.1,60.7,556.4,60.7"/>
				<path class="st7" d="M531.1,45.5c-2.6,0-4.7-2.1-4.7-4.6s2.1-4.7,4.6-4.7c0,0,0,0,0,0h4.8c0.7-0.1,1.3,0.4,1.3,1.1
					c0.1,0.7-0.4,1.3-1.1,1.3c-0.1,0-0.1,0-0.2,0h-4.8c-1.2-0.1-2.3,0.8-2.4,2.1c-0.1,1.2,0.8,2.3,2.1,2.4c0.1,0,0.2,0,0.3,0
					c0.7,0,1.2,0.5,1.2,1.2S531.8,45.5,531.1,45.5C531.1,45.5,531.1,45.5,531.1,45.5 M552.5,38.6h-9.8c-0.7,0.1-1.3-0.4-1.3-1.1
					c-0.1-0.7,0.4-1.3,1.1-1.3c0.1,0,0.1,0,0.2,0h9.8c0.7-0.1,1.3,0.4,1.3,1.1c0.1,0.7-0.4,1.3-1.1,1.3
					C552.7,38.6,552.6,38.6,552.5,38.6"/>
				<path class="st7" d="M562.3,50.8c-0.7,0-1.2-0.6-1.2-1.2v-1.9c0-1.2-1-2.2-2.2-2.2h-21.4c-0.7,0-1.2-0.5-1.2-1.2
					c0-0.7,0.5-1.2,1.2-1.2h21.4c2.6,0,4.7,2.1,4.7,4.6c0,0,0,0,0,0v1.9C563.5,50.3,562.9,50.8,562.3,50.8"/>
			</g>
		</g>
	</g>
</g>
<g>
	<defs>
		<rect id="SVGID_37_" x="320" y="-10.2" width="96" height="96"/>
	</defs>
	<clipPath id="SVGID_38_">
		<use xlink:href="#SVGID_37_"  style="overflow:visible;"/>
	</clipPath>
	<g class="st22">
		<g>
			<defs>
				<rect id="SVGID_39_" x="320" y="-10.2" width="96" height="96"/>
			</defs>
			<clipPath id="SVGID_40_">
				<use xlink:href="#SVGID_39_"  style="overflow:visible;"/>
			</clipPath>
			<g class="st23">
				<line class="st17" x1="321.5" y1="71.2" x2="414.5" y2="71.2"/>
				<path class="st17" d="M370.2,19.5l-10.7,3.4l-11.5-0.7c-1.6-0.1-2.9,1.1-3.1,2.7c-0.1,1.1,0.5,2.2,1.5,2.7
					c0.4,0.2,0.8,0.3,1.2,0.3l12.1,0.8c0.4,0,0.7,0,1.1-0.1l2.6-0.9c-1.1,3.3-2.3,6.5-3.8,9.7l-11.1,4.3c-0.5,0.2-0.9,0.6-1.3,1
					l-7.6,10.6c-0.9,1.3-0.6,3.1,0.6,4c0,0,0,0,0,0l0.3,0.2c1.3,0.7,2.8,0.3,3.6-0.8l7-9.9l10.6-4.2l-13.2,19.5
					c-0.6,0.9-0.5,2.1,0.4,2.8c1.3,1.1,3.8,0.1,4.3-0.7l15-21c1.1-1.4,3.3-8.6,5.8-12.2l2.7,3.3l-2.3,7.1c-0.6,1.5,0.2,3.1,1.7,3.7
					c1.5,0.6,3.1-0.2,3.7-1.7c0-0.1,0.1-0.2,0.1-0.3l2.8-8.5c0.3-0.9,0.1-1.9-0.5-2.7l-8-10.2L370.2,19.5z M372.5,15.4
					c2.8,1.6,6.4,0.7,8-2.1c1.6-2.8,0.7-6.4-2.1-8c-0.1-0.1-0.2-0.1-0.4-0.2c-2.8-1.5-6.4-0.4-7.9,2.4
					C368.6,10.3,369.6,13.9,372.5,15.4C372.5,15.4,372.5,15.4,372.5,15.4L372.5,15.4z"/>
			</g>
		</g>
	</g>
</g>
<g>
	<defs>
		<rect id="SVGID_41_" x="323" y="153.3" width="90" height="89.2"/>
	</defs>
	<clipPath id="SVGID_42_">
		<use xlink:href="#SVGID_41_"  style="overflow:visible;"/>
	</clipPath>
	<g class="st24">
		<g>
			<defs>
				<rect id="SVGID_43_" x="323" y="153.3" width="90" height="89.2"/>
			</defs>
			<clipPath id="SVGID_44_">
				<use xlink:href="#SVGID_43_"  style="overflow:visible;"/>
			</clipPath>
			<g class="st25">
				<rect x="324.2" y="222.3" class="st26" width="87.7" height="12"/>
				<rect x="331.7" y="234.5" class="st26" width="15.5" height="6.8"/>
				<rect x="388.9" y="234.5" class="st26" width="15.5" height="6.8"/>
			</g>
		</g>
		<rect x="329.7" y="188.4" class="st26" width="38.3" height="34"/>
		<line class="st26" x1="344.7" y1="196.6" x2="353" y2="196.6"/>
		<rect x="368" y="188.4" class="st26" width="38.3" height="34"/>
		<line class="st26" x1="383" y1="196.6" x2="391.3" y2="196.6"/>
		<g>
			<defs>
				<rect id="SVGID_45_" x="323" y="153.3" width="90" height="89.2"/>
			</defs>
			<clipPath id="SVGID_46_">
				<use xlink:href="#SVGID_45_"  style="overflow:visible;"/>
			</clipPath>
			<g class="st27">
				<rect x="329.7" y="154.4" class="st26" width="38.3" height="34"/>
			</g>
		</g>
		<line class="st26" x1="344.7" y1="162.6" x2="353" y2="162.6"/>
		<g>
			<defs>
				<rect id="SVGID_47_" x="323" y="153.3" width="90" height="89.2"/>
			</defs>
			<clipPath id="SVGID_48_">
				<use xlink:href="#SVGID_47_"  style="overflow:visible;"/>
			</clipPath>
			<g class="st28">
				<rect x="368" y="154.4" class="st26" width="38.3" height="34"/>
			</g>
		</g>
		<line class="st26" x1="383" y1="162.6" x2="391.3" y2="162.6"/>
	</g>
</g>
<g>
	<defs>
		<rect id="SVGID_49_" x="320" y="301.1" width="96" height="96"/>
	</defs>
	<clipPath id="SVGID_50_">
		<use xlink:href="#SVGID_49_"  style="overflow:visible;"/>
	</clipPath>
	<g class="st29">
		<g>
			<defs>
				<rect id="SVGID_51_" x="320" y="301.1" width="96" height="96"/>
			</defs>
			<clipPath id="SVGID_52_">
				<use xlink:href="#SVGID_51_"  style="overflow:visible;"/>
			</clipPath>
			<g class="st30">
				<path class="st7" d="M414.8,366.6h-16.9c-0.7,0-1.2-0.5-1.2-1.2s0.5-1.2,1.2-1.2h15.5l-1.4-10.6c-0.1-0.8-0.6-1.4-1.4-1.7
					l-6.4-2.1c-0.2-0.1-0.3-0.2-0.5-0.3l-3.9-3.8l-5.8,3.9c-0.4,0.3-0.9,0.3-1.4,0l-5.9-3.9l-4.3,4.3c-0.5,0.5-1.2,0.5-1.7,0
					s-0.5-1.2,0-1.7l0,0l5-5c0.4-0.4,1-0.5,1.5-0.1l6,4l5.9-4c0.5-0.3,1.1-0.3,1.5,0.1l4.4,4.3l6.2,2.1c1.6,0.6,2.8,2,3,3.7l1.5,12
					c0.1,0.4-0.1,0.7-0.3,1C415.4,366.5,415.1,366.6,414.8,366.6"/>
				<path class="st7" d="M338.1,366.6h-16.8c-0.7,0-1.2-0.5-1.2-1.2c0-0.1,0-0.1,0-0.2l1.7-12.3c0.2-1.5,1.3-2.8,2.7-3.2l6.3-2.1
					c0.1,0,0.3-0.1,0.4-0.2l4.1-4.1c0.4-0.4,1-0.5,1.5-0.1l6,4l5.9-4c0.5-0.3,1.1-0.3,1.5,0.1l4.6,4.4c0.5,0.5,0.5,1.2,0,1.7
					c-0.5,0.5-1.2,0.5-1.7,0c0,0,0,0,0,0l-3.9-3.8l-5.8,3.9c-0.4,0.3-0.9,0.3-1.4,0l-5.9-3.9l-3.4,3.4c-0.4,0.4-0.8,0.6-1.3,0.8
					l-6.3,2.1c-0.5,0.2-0.9,0.7-1,1.3l-1.5,10.9H338c0.7,0,1.2,0.5,1.2,1.2S338.7,366.5,338.1,366.6"/>
				<path class="st7" d="M394.8,377.2H341c-0.4,0-0.7-0.2-0.9-0.4c-0.2-0.3-0.3-0.6-0.3-1l2.3-14.3c0.2-1.4,1-2.6,2.3-3.2l6.7-3.3
					l7-5.4c0.4-0.3,1-0.3,1.4,0l7.9,5.5l7.7-5.5c0.5-0.3,1.1-0.3,1.6,0.1l5.7,5.7l8.8,3.1c1.5,0.5,2.5,1.9,2.7,3.5l0.2,1.9l1.8,12
					c0.1,0.4,0,0.7-0.3,1C395.4,377,395.1,377.2,394.8,377.2 M342.5,374.7h50.9l-1.6-10.6l-0.2-1.9c-0.1-0.7-0.5-1.2-1.1-1.5l-9-3.1
					c-0.2-0.1-0.3-0.2-0.5-0.3l-5.1-5.2l-7.6,5.4c-0.4,0.3-1,0.3-1.4,0L359,352l-6.4,5c-0.1,0-0.1,0.1-0.2,0.1l-6.8,3.4
					c-0.5,0.3-0.9,0.8-1,1.4L342.5,374.7z M351.8,356L351.8,356z"/>
				<path class="st7" d="M368.2,350.7c-7.6,0-13.9-6.7-13.9-14.9s6.2-14.9,13.9-14.9s13.9,6.7,13.9,14.9S375.8,350.7,368.2,350.7
					 M368.2,323.4c-6.3,0-11.4,5.6-11.4,12.4s5.1,12.4,11.4,12.4s11.5-5.6,11.5-12.4S374.5,323.4,368.2,323.4"/>
				<path class="st7" d="M343.5,342.5c-5.4,0-9.9-4.7-9.9-10.5s4.4-10.5,9.9-10.5s9.9,4.7,9.9,10.5S349,342.5,343.5,342.5
					 M343.5,323.8c-4.1,0-7.4,3.6-7.4,8.1s3.3,8.1,7.4,8.1s7.4-3.6,7.4-8.1S347.6,323.8,343.5,323.8"/>
				<path class="st7" d="M393.6,342.5c-5.4,0-9.9-4.7-9.9-10.5s4.4-10.5,9.9-10.5s9.9,4.7,9.9,10.5S399,342.5,393.6,342.5
					 M393.6,323.8c-4.1,0-7.4,3.6-7.4,8.1s3.3,8.1,7.4,8.1s7.4-3.6,7.4-8.1S397.6,323.8,393.6,323.8"/>
			</g>
		</g>
	</g>
</g>
</svg>
