<svg id="Layer_1" data-name="Layer 1" xmlns="http://www.w3.org/2000/svg" viewBox="0 0 800 735.31"><path d="M407.12,361.89l238.44-42.05c23.22,131.69-64.71,257.26-196.39,280.48S191.91,535.61,168.69,403.93,233.4,146.67,365.08,123.45a229.75,229.75,0,0,1,42-3.68Z" style="fill:#cecfd1"/><path d="M407.12,361.89V119.77c118.74,0,217.82,83.14,238.44,200.07Z" style="fill:#002664"/><circle cx="407.49" cy="365.21" r="169.9" style="fill:#fff"/><path d="M75.66,10.71V40.46H72.55V10.71h-9.8V8.09H85.46v2.62Z" style="fill:#002664"/><path d="M91.24,11.24A1.94,1.94,0,1,1,93.18,9.3,1.94,1.94,0,0,1,91.24,11.24ZM89.79,40.46V17.16H92.7v23.3Z" style="fill:#002664"/><path d="M107.36,41a6.42,6.42,0,0,1-4.81-1.66c-1.36-1.35-1.36-3.2-1.36-6V19.54H97.12V17.16h4.07v-6.6h2.92v6.6h7.47v2.38h-7.47v13.2c0,3.21-.25,5.63,3.64,5.63a10.43,10.43,0,0,0,3.44-.72l.78,2.23A9.53,9.53,0,0,1,107.36,41Z" style="fill:#002664"/><path d="M117.36,40.46V5.51h2.91v35Z" style="fill:#002664"/><path d="M145.41,29.39H128.72c0,5.15,2.76,8.84,8,8.84a13.14,13.14,0,0,0,6.74-1.9l1.31,2.24a15.23,15.23,0,0,1-8.3,2.38c-6.79,0-10.77-5-10.77-12,0-7.53,4.17-12.38,10.63-12.38,5.39,0,9.17,4.08,9.17,11.26C145.51,28.08,145.46,28.91,145.41,29.39Zm-9-10.33c-4,0-7.28,3-7.58,7.86h13.74C142.55,23.47,141,19.06,136.39,19.06Z" style="fill:#002664"/><path d="M171.77,41c-6.36,0-10.53-4.75-10.53-12.23S165.32,16.58,172,16.58c6.31,0,10.43,4.71,10.43,12.43C182.45,36.29,178.33,41,171.77,41Zm0-21.94c-4.66,0-7.57,3.84-7.57,9.61s3.25,9.76,7.62,9.76c4.81,0,7.57-3.74,7.57-9.56S176.14,19.1,171.82,19.1Z" style="fill:#002664"/><path d="M200.66,8.47a7.14,7.14,0,0,0-3.45-1A4.3,4.3,0,0,0,194,8.67c-1.36,1.36-1.36,3.44-1.36,4.75v3.74h7.47v2.38h-7.47V40.46h-2.91V19.54h-4.13V17.16h4.13V13.42c0-1.89.19-4.65,2.18-6.64a7,7,0,0,1,5-1.85,8.12,8.12,0,0,1,4.9,1.51Z" style="fill:#002664"/><path d="M224.44,41a6.39,6.39,0,0,1-4.8-1.66c-1.36-1.35-1.36-3.2-1.36-6V19.54H214.2V17.16h4.08v-6.6h2.91v6.6h7.48v2.38h-7.48v13.2c0,3.21-.24,5.63,3.64,5.63a10.52,10.52,0,0,0,3.45-.72l.77,2.23A9.49,9.49,0,0,1,224.44,41Z" style="fill:#002664"/><path d="M249.49,40.46V26.87c0-2.91,0-5-1.36-6.41a5.3,5.3,0,0,0-3.64-1.31,15.39,15.39,0,0,0-7.13,2.28v19h-2.92V5.51h2.92v13.3a14.76,14.76,0,0,1,7.42-2.23,8.1,8.1,0,0,1,5.34,1.8c2,2,2.28,3.73,2.28,8.05v14Z" style="fill:#002664"/><path d="M277.21,29.39h-16.7c0,5.15,2.77,8.84,8,8.84a13.24,13.24,0,0,0,6.75-1.9l1.31,2.24a15.3,15.3,0,0,1-8.3,2.38c-6.8,0-10.78-5-10.78-12,0-7.53,4.17-12.38,10.63-12.38,5.39,0,9.17,4.08,9.17,11.26C277.3,28.08,277.26,28.91,277.21,29.39Zm-9-10.33c-4,0-7.28,3-7.57,7.86h13.73C274.34,23.47,272.74,19.06,268.18,19.06Z" style="fill:#002664"/><path d="M310.56,48.91c-2,2-4.47,2.57-7.58,2.57a13.71,13.71,0,0,1-8.64-2.86l1.31-2a13,13,0,0,0,7.14,2.33c2.86,0,4.47-.73,5.48-1.8,1.46-1.46,1.51-3.06,1.51-6.79v-1.8a13.37,13.37,0,0,1-6.8,2c-5.82,0-10-4.81-10-11.5,0-7.19,4.86-12.43,11.6-12.43a20.45,20.45,0,0,1,8.11,2V40.8C312.74,44.93,312.3,47.11,310.56,48.91Zm-.78-28.64a12.31,12.31,0,0,0-5.29-1.12c-5.1,0-8.45,4-8.45,9.81,0,5.34,2.92,9,7.24,9a12.33,12.33,0,0,0,6.5-2.24Z" style="fill:#002664"/><path d="M331.38,19.35a11.89,11.89,0,0,0-1.89-.15,8.2,8.2,0,0,0-7.09,4.08V40.46h-2.91V17.16h2.77v3.06a9.23,9.23,0,0,1,7.37-3.69,5.18,5.18,0,0,1,2.43.39Z" style="fill:#002664"/><path d="M348.66,40.46V38.71A14.44,14.44,0,0,1,341.24,41c-4.47,0-7.48-2.87-7.48-7.09,0-7.38,9.42-7.62,13.45-7.62h1.21v-.87c0-2.19-.1-3.79-1.16-4.91-.73-.72-2-1.36-4.42-1.36A12.48,12.48,0,0,0,336.38,21l-1.21-2a13.52,13.52,0,0,1,8-2.38,8.5,8.5,0,0,1,6.31,2.23c1.55,1.56,1.84,3.16,1.84,6.7v15Zm-.24-11.84h-1.31c-6,0-10.34,1.36-10.34,5.29,0,2.33,1.51,4.46,5.15,4.46a15.43,15.43,0,0,0,6.5-1.89Z" style="fill:#002664"/><path d="M366,41a10.54,10.54,0,0,1-5.3-1.31V50.8h-2.91V17.16h2.77v1.6a11.49,11.49,0,0,1,6.7-2.18c6.11,0,10.19,4.71,10.19,11.75C377.4,35.8,372.69,41,366,41Zm1-21.8a10.84,10.84,0,0,0-6.27,2.28V36.82A9.64,9.64,0,0,0,366,38.37c5.05,0,8.4-4,8.4-10.14C374.39,22.84,371.33,19.15,366.92,19.15Z" style="fill:#002664"/><path d="M397.89,40.46V26.87c0-2.91.05-5-1.36-6.41a5.34,5.34,0,0,0-3.64-1.31,15.5,15.5,0,0,0-7.14,2.28v19h-2.91V5.51h2.91v13.3a14.82,14.82,0,0,1,7.43-2.23,8.1,8.1,0,0,1,5.34,1.8c2,2,2.28,3.73,2.28,8.05v14Z" style="fill:#002664"/><rect x="61.19" y="679.53" width="19.42" height="19.42" style="fill:#cecfd1"/><path d="M98.62,704.86V679h2.49v23.73h11.14v2.18Z" style="fill:#5b6875"/><path d="M123.12,705.32c-5.08,0-8.42-3.8-8.42-9.78s3.26-9.79,8.62-9.79c5.05,0,8.35,3.77,8.35,9.94C131.67,701.52,128.37,705.32,123.12,705.32Zm0-17.55c-3.72,0-6.06,3.07-6.06,7.69s2.61,7.8,6.1,7.8c3.85,0,6.06-3,6.06-7.65S126.62,687.77,123.16,687.77Z" style="fill:#5b6875"/><path d="M145.53,688a9.79,9.79,0,0,0-1.51-.11,6.54,6.54,0,0,0-5.67,3.26v13.75H136V686.21h2.21v2.45a7.42,7.42,0,0,1,5.9-2.95,4.24,4.24,0,0,1,2,.31Z" style="fill:#5b6875"/><path d="M163.05,696H149.69c0,4.12,2.21,7.07,6.4,7.07a10.52,10.52,0,0,0,5.4-1.52l1,1.79a12.14,12.14,0,0,1-6.64,1.9c-5.44,0-8.62-4-8.62-9.59,0-6,3.34-9.9,8.5-9.9,4.31,0,7.34,3.26,7.34,9C163.12,695,163.08,695.61,163.05,696Zm-7.23-8.27c-3.22,0-5.82,2.41-6,6.29h11C160.75,691.26,159.47,687.73,155.82,687.73Z" style="fill:#5b6875"/><path d="M190.62,704.86V693.75c0-1,0-3.77-1.09-4.89a3.73,3.73,0,0,0-2.79-1,12.46,12.46,0,0,0-5.67,1.71c.38.82.35,3.73.35,4.43v10.84h-2.34V694.64c0-3,0-4.77-1-5.82a3.8,3.8,0,0,0-2.72-1,11.91,11.91,0,0,0-5.56,1.78v15.23h-2.33V686.21h2.22v1.36a12.46,12.46,0,0,1,5.9-1.82,5.21,5.21,0,0,1,4.62,2.17,12.39,12.39,0,0,1,6.76-2.17,5.7,5.7,0,0,1,4.15,1.55C193,689.21,193,691.57,193,695v9.87Z" style="fill:#5b6875"/><path d="M208.52,681.48a1.56,1.56,0,1,1,1.55-1.56A1.56,1.56,0,0,1,208.52,681.48Zm-1.16,23.38V686.21h2.33v18.65Z" style="fill:#5b6875"/><path d="M221.65,705.24a8.54,8.54,0,0,1-4.24-1v8.93h-2.33V686.21h2.22v1.29a9.11,9.11,0,0,1,5.36-1.75c4.89,0,8.15,3.77,8.15,9.4C230.81,701.13,227.05,705.24,221.65,705.24Zm.77-17.43a8.67,8.67,0,0,0-5,1.82v12.31a7.61,7.61,0,0,0,4.28,1.25c4,0,6.71-3.23,6.71-8.12C228.4,690.76,226,687.81,222.42,687.81Z" style="fill:#5b6875"/><path d="M239.94,705.32a11.43,11.43,0,0,1-6.25-1.82l1-1.79a10.41,10.41,0,0,0,5.08,1.55c2.8,0,4.47-1.24,4.47-3.26,0-2.52-2.72-3.26-4.66-4-2.76-1.09-5.17-2-5.17-5.36,0-3,2.72-4.89,6.22-4.89a9.67,9.67,0,0,1,5.63,1.67l-.93,1.67a9.31,9.31,0,0,0-4.51-1.32c-2.17,0-4,1.09-4,2.79,0,2.18,1.9,2.68,4,3.54,2.53,1,5.83,2.06,5.83,5.67S244.06,705.32,239.94,705.32Z" style="fill:#5b6875"/><path d="M263.24,704.86v-1.48a11.59,11.59,0,0,1-6.06,1.86,6.14,6.14,0,0,1-4.5-1.67c-1.87-1.86-1.67-4.58-1.67-6.71V686.21h2.33v11.11c0,2,0,3.65,1.08,4.74a4,4,0,0,0,2.92,1.13,12.42,12.42,0,0,0,5.7-1.83V686.21h2.33v18.65Z" style="fill:#5b6875"/><path d="M293.92,704.86V693.75c0-1,0-3.77-1.09-4.89a3.74,3.74,0,0,0-2.8-1,12.55,12.55,0,0,0-5.67,1.71c.39.82.35,3.73.35,4.43v10.84h-2.33V694.64c0-3,0-4.77-1-5.82a3.75,3.75,0,0,0-2.71-1,11.91,11.91,0,0,0-5.56,1.78v15.23h-2.33V686.21H273v1.36a12.46,12.46,0,0,1,5.9-1.82,5.21,5.21,0,0,1,4.62,2.17,12.36,12.36,0,0,1,6.76-2.17,5.7,5.7,0,0,1,4.15,1.55c1.91,1.91,1.83,4.27,1.83,7.69v9.87Z" style="fill:#5b6875"/><rect x="442.69" y="679.53" width="19.42" height="19.42" style="fill:#002664"/><path d="M480.11,704.86V679h2.49v23.73h11.14v2.18Z" style="fill:#5b6875"/><path d="M504.62,705.32c-5.09,0-8.43-3.8-8.43-9.78s3.26-9.79,8.62-9.79c5.05,0,8.35,3.77,8.35,9.94C513.16,701.52,509.86,705.32,504.62,705.32Zm0-17.55c-3.73,0-6.06,3.07-6.06,7.69s2.6,7.8,6.09,7.8c3.85,0,6.06-3,6.06-7.65S508.11,687.77,504.66,687.77Z" style="fill:#5b6875"/><path d="M527,688a9.79,9.79,0,0,0-1.51-.11,6.55,6.55,0,0,0-5.67,3.26v13.75h-2.33V686.21h2.21v2.45a7.43,7.43,0,0,1,5.91-2.95,4.22,4.22,0,0,1,1.94.31Z" style="fill:#5b6875"/><path d="M544.54,696H531.18c0,4.12,2.21,7.07,6.41,7.07a10.56,10.56,0,0,0,5.4-1.52l1,1.79a12.1,12.1,0,0,1-6.64,1.9c-5.43,0-8.62-4-8.62-9.59,0-6,3.34-9.9,8.51-9.9,4.31,0,7.34,3.26,7.34,9C544.62,695,544.58,695.61,544.54,696Zm-7.22-8.27c-3.23,0-5.83,2.41-6.06,6.29h11C542.25,691.26,541,687.73,537.32,687.73Z" style="fill:#5b6875"/><path d="M572.11,704.86V693.75c0-1,0-3.77-1.09-4.89a3.71,3.71,0,0,0-2.79-1,12.5,12.5,0,0,0-5.67,1.71c.39.82.35,3.73.35,4.43v10.84h-2.33V694.64c0-3,0-4.77-1-5.82a3.8,3.8,0,0,0-2.72-1,11.81,11.81,0,0,0-5.55,1.78v15.23H549V686.21h2.21v1.36a12.46,12.46,0,0,1,5.9-1.82,5.2,5.2,0,0,1,4.62,2.17,12.39,12.39,0,0,1,6.76-2.17,5.73,5.73,0,0,1,4.16,1.55c1.9,1.91,1.82,4.27,1.82,7.69v9.87Z" style="fill:#5b6875"/><path d="M590,681.48a1.56,1.56,0,1,1,1.55-1.56A1.56,1.56,0,0,1,590,681.48Zm-1.17,23.38V686.21h2.33v18.65Z" style="fill:#5b6875"/><path d="M603.14,705.24a8.45,8.45,0,0,1-4.23-1v8.93h-2.33V686.21h2.21v1.29a9.15,9.15,0,0,1,5.36-1.75c4.89,0,8.16,3.77,8.16,9.4C612.31,701.13,608.54,705.24,603.14,705.24Zm.78-17.43a8.64,8.64,0,0,0-5,1.82v12.31a7.56,7.56,0,0,0,4.27,1.25c4,0,6.72-3.23,6.72-8.12C609.9,690.76,607.45,687.81,603.92,687.81Z" style="fill:#5b6875"/><path d="M621.43,705.32a11.51,11.51,0,0,1-6.25-1.82l1-1.79a10.51,10.51,0,0,0,5.09,1.55c2.79,0,4.46-1.24,4.46-3.26,0-2.52-2.72-3.26-4.66-4-2.75-1.09-5.16-2-5.16-5.36,0-3,2.72-4.89,6.21-4.89a9.64,9.64,0,0,1,5.63,1.67l-.93,1.67a9.26,9.26,0,0,0-4.51-1.32c-2.17,0-4,1.09-4,2.79,0,2.18,1.9,2.68,4,3.54,2.53,1,5.83,2.06,5.83,5.67S625.55,705.32,621.43,705.32Z" style="fill:#5b6875"/><path d="M644.73,704.86v-1.48a11.55,11.55,0,0,1-6.06,1.86,6.15,6.15,0,0,1-4.5-1.67c-1.86-1.86-1.67-4.58-1.67-6.71V686.21h2.33v11.11c0,2,0,3.65,1.09,4.74a4,4,0,0,0,2.91,1.13,12.43,12.43,0,0,0,5.71-1.83V686.21h2.33v18.65Z" style="fill:#5b6875"/><path d="M675.41,704.86V693.75c0-1,0-3.77-1.09-4.89a3.71,3.71,0,0,0-2.79-1,12.5,12.5,0,0,0-5.67,1.71c.39.82.35,3.73.35,4.43v10.84h-2.33V694.64c0-3,0-4.77-1-5.82a3.8,3.8,0,0,0-2.72-1,11.81,11.81,0,0,0-5.55,1.78v15.23h-2.33V686.21h2.21v1.36a12.46,12.46,0,0,1,5.9-1.82,5.2,5.2,0,0,1,4.62,2.17,12.39,12.39,0,0,1,6.76-2.17,5.73,5.73,0,0,1,4.16,1.55c1.9,1.91,1.82,4.27,1.82,7.69v9.87Z" style="fill:#5b6875"/><path d="M344.17,391.86v-4.37c.5-.5,7.18-6.77,11.22-10.81,11.31-11.31,16.26-17.58,16.26-24.76,0-7.34-4.29-11.47-11.63-11.47-6.77,0-12.46,4.7-12.79,5l-2.89-3.13a23.13,23.13,0,0,1,16.34-6.6c10,0,16.42,6,16.42,15.76,0,9.4-7.51,17.24-15.19,24.92-4.12,4.12-10.89,10.81-10.89,10.81h26.57v4.62Z" style="fill:#002664"/><path d="M410.19,392.85c-13.12,0-20.22-10.73-20.22-28.8,0-17.33,7.26-28.3,20-28.3,13.21,0,20.55,10.81,20.55,28.55S423.23,392.85,410.19,392.85Zm.08-52.65c-10.07,0-14.85,8.5-14.85,24.51,0,15,5.11,23.68,14.69,23.68,9.82,0,14.93-8.66,14.93-24S420,340.2,410.27,340.2Z" style="fill:#002664"/><path d="M450.21,365.37c-7.26,0-11.88-5.28-11.88-13.86,0-9.57,4.54-15.19,12.21-15.19,7.18,0,11.8,5.53,11.8,14.28C462.34,359.84,457.81,365.37,450.21,365.37Zm.33-25.33c-4.78,0-7.59,4.12-7.59,11.3,0,6.52,2.64,10.32,7.26,10.32,4.79,0,7.51-4.05,7.51-11.06C457.72,344,455,340,450.54,340Zm-3.71,54.79-3.55-2.39L482.56,334l3.55,2.56Zm32.27-2.48c-7.27,0-11.89-5.28-11.89-13.86,0-9.57,4.54-15.18,12.22-15.18,7.17,0,11.8,5.53,11.8,14.27C491.23,386.83,486.69,392.35,479.1,392.35Zm.33-25.33c-4.79,0-7.6,4.13-7.6,11.31,0,6.52,2.64,10.31,7.27,10.31s7.5-4,7.5-11.06C486.6,371,483.88,367,479.43,367Z" style="fill:#002664"/></svg>