<svg id="Layer_1" data-name="Layer 1" xmlns="http://www.w3.org/2000/svg" viewBox="0 0 800 735.31"><path d="M25.45,41.09A14.27,14.27,0,0,1,16,37.65l1.6-2.24c.48.34,3.69,2.92,7.62,2.92,4.76,0,7.28-2.67,7.28-6.51A5.27,5.27,0,0,0,30.89,28c-2.91-2.92-8.74-3.65-12-6.95a7.31,7.31,0,0,1-1.94-5.29c0-4.8,3.84-8.3,9.56-8.3,5.88,0,8.59,3.16,8.88,3.45L33.7,12.89a10.14,10.14,0,0,0-7-2.72c-4,0-6.8,2.33-6.8,5.58a4.5,4.5,0,0,0,1.41,3.35c2.67,2.67,8.73,3.45,11.89,6.61a8,8,0,0,1,2.52,5.87C35.74,37,32.2,41.09,25.45,41.09Z" style="fill:#002664"/><path d="M60.45,29.39H43.75c0,5.15,2.77,8.84,8,8.84a13.15,13.15,0,0,0,6.75-1.9l1.31,2.24A15.26,15.26,0,0,1,51.52,41c-6.79,0-10.78-5-10.78-12,0-7.53,4.18-12.38,10.63-12.38,5.39,0,9.18,4.08,9.18,11.26C60.55,28.08,60.5,28.91,60.45,29.39Zm-9-10.33c-4,0-7.28,3-7.57,7.86H57.59C57.59,23.47,56,19.06,51.42,19.06Z" style="fill:#002664"/><path d="M72,41a14.26,14.26,0,0,1-7.82-2.28l1.27-2.23a13,13,0,0,0,6.35,1.94c3.5,0,5.59-1.55,5.59-4.08,0-3.15-3.4-4.07-5.83-5-3.45-1.35-6.45-2.47-6.45-6.69,0-3.74,3.39-6.12,7.76-6.12a12,12,0,0,1,7,2.09L78.7,20.75a11.59,11.59,0,0,0-5.63-1.65c-2.71,0-5,1.36-5,3.5,0,2.72,2.38,3.35,5,4.42,3.16,1.26,7.28,2.57,7.28,7.08S77.1,41,72,41Z" style="fill:#002664"/><path d="M92,41a14.26,14.26,0,0,1-7.82-2.28l1.26-2.23a13.12,13.12,0,0,0,6.36,1.94c3.5,0,5.59-1.55,5.59-4.08,0-3.15-3.4-4.07-5.83-5-3.45-1.35-6.46-2.47-6.46-6.69,0-3.74,3.4-6.12,7.77-6.12a12.08,12.08,0,0,1,7,2.09L98.7,20.75a11.63,11.63,0,0,0-5.63-1.65c-2.71,0-5,1.36-5,3.5,0,2.72,2.38,3.35,5,4.42,3.16,1.26,7.28,2.57,7.28,7.08S97.1,41,92,41Z" style="fill:#002664"/><path d="M107.59,11.24a1.94,1.94,0,1,1,1.94-1.94A1.94,1.94,0,0,1,107.59,11.24Zm-1.46,29.22V17.16H109v23.3Z" style="fill:#002664"/><path d="M125,41c-6.35,0-10.53-4.75-10.53-12.23s4.08-12.23,10.78-12.23c6.31,0,10.43,4.71,10.43,12.43C135.69,36.29,131.57,41,125,41Zm0-21.94c-4.66,0-7.57,3.84-7.57,9.61s3.25,9.76,7.62,9.76c4.81,0,7.57-3.74,7.57-9.56S129.38,19.1,125.06,19.1Z" style="fill:#002664"/><path d="M156.18,40.46V26.87c0-2.91,0-5-1.36-6.41a5.3,5.3,0,0,0-3.64-1.31A15.5,15.5,0,0,0,144,21.43v19h-2.91V17.16h2.77v1.7a15.84,15.84,0,0,1,7.67-2.28A7.6,7.6,0,0,1,157,18.52c1.79,1.8,2.13,3.59,2.13,7.91v14Z" style="fill:#002664"/><path d="M171.47,41a14.17,14.17,0,0,1-7.81-2.28l1.26-2.23a13.07,13.07,0,0,0,6.36,1.94c3.49,0,5.58-1.55,5.58-4.08,0-3.15-3.4-4.07-5.83-5-3.44-1.35-6.45-2.47-6.45-6.69,0-3.74,3.4-6.12,7.76-6.12a12,12,0,0,1,7,2.09l-1.16,2.08a11.67,11.67,0,0,0-5.63-1.65c-2.72,0-5,1.36-5,3.5,0,2.72,2.38,3.35,5,4.42,3.15,1.26,7.28,2.57,7.28,7.08S176.62,41,171.47,41Z" style="fill:#002664"/><path d="M205.11,41a21.22,21.22,0,0,1-7.86-1.56V5.51h2.91V18.67a10.9,10.9,0,0,1,6.5-2.09c6.27,0,10.25,4.71,10.25,11.84C216.91,35.85,212.05,41,205.11,41Zm1.26-21.8a9.93,9.93,0,0,0-6.21,2.28V37.55a14.36,14.36,0,0,0,5.05.82c5.29,0,8.69-3.88,8.69-9.85C213.9,22.94,210.94,19.15,206.37,19.15Z" style="fill:#002664"/><path d="M232,42.11c-1.45,3.93-2.57,5.73-4.07,7.23a8.2,8.2,0,0,1-5.73,2.14,10.78,10.78,0,0,1-4.17-.83l.77-2.37a9.67,9.67,0,0,0,3.3.58,5.26,5.26,0,0,0,3.79-1.36c1.46-1.46,2.23-3.3,3.49-6.46l-9.61-23.88h3.21l8,20.15,7.23-20.15h3Z" style="fill:#002664"/><path d="M267.05,41c-6.41,0-11-4.42-11-11.65,0-7.53,4.76-12.72,11.6-12.72a11.77,11.77,0,0,1,7,2.28l-1.31,2a10.39,10.39,0,0,0-5.87-1.7c-5.05,0-8.45,4.18-8.45,9.66,0,5.73,3.45,9.37,8.16,9.37a12.94,12.94,0,0,0,6.55-1.8L275,38.62A14.4,14.4,0,0,1,267.05,41Z" style="fill:#002664"/><path d="M288.17,41c-6.36,0-10.53-4.75-10.53-12.23s4.07-12.23,10.77-12.23c6.31,0,10.44,4.71,10.44,12.43C298.85,36.29,294.72,41,288.17,41Zm.05-21.94c-4.66,0-7.58,3.84-7.58,9.61s3.26,9.76,7.63,9.76c4.8,0,7.57-3.74,7.57-9.56S292.54,19.1,288.22,19.1Z" style="fill:#002664"/><path d="M319.24,40.46V38.62A14.46,14.46,0,0,1,311.66,41,7.72,7.72,0,0,1,306,38.86c-2.33-2.33-2.08-5.73-2.08-8.4V17.16h2.91V31c0,2.48,0,4.57,1.36,5.93a5,5,0,0,0,3.64,1.4c3.44,0,6.74-2.08,7.13-2.28V17.16h2.91v23.3Z" style="fill:#002664"/><path d="M343.7,40.46V26.87c0-2.91.05-5-1.36-6.41a5.3,5.3,0,0,0-3.64-1.31,15.44,15.44,0,0,0-7.13,2.28v19h-2.92V17.16h2.77v1.7a15.84,15.84,0,0,1,7.67-2.28,7.6,7.6,0,0,1,5.39,1.94c1.79,1.8,2.13,3.59,2.13,7.91v14Z" style="fill:#002664"/><path d="M360.94,41a6.42,6.42,0,0,1-4.81-1.66c-1.36-1.35-1.36-3.2-1.36-6V19.54h-4.08V17.16h4.08v-6.6h2.91v6.6h7.48v2.38h-7.48v13.2c0,3.21-.24,5.63,3.64,5.63a10.44,10.44,0,0,0,3.45-.72l.78,2.23A9.53,9.53,0,0,1,360.94,41Z" style="fill:#002664"/><path d="M382.83,19.35a11.93,11.93,0,0,0-1.9-.15,8.16,8.16,0,0,0-7.08,4.08V40.46h-2.91V17.16h2.76v3.06a9.24,9.24,0,0,1,7.38-3.69,5.23,5.23,0,0,1,2.43.39Z" style="fill:#002664"/><path d="M398.12,42.11c-1.46,3.93-2.57,5.73-4.08,7.23a8.2,8.2,0,0,1-5.73,2.14,10.78,10.78,0,0,1-4.17-.83l.78-2.37a9.61,9.61,0,0,0,3.3.58A5.26,5.26,0,0,0,392,47.5c1.46-1.46,2.23-3.3,3.5-6.46l-9.61-23.88h3.2l8,20.15,7.23-20.15h3Z" style="fill:#002664"/><line x1="327.78" y1="160.11" x2="327.78" y2="604.29" style="fill:none;stroke:#cecfd1;stroke-miterlimit:10;stroke-width:1.72006546685811px"/><line x1="388.98" y1="160.11" x2="388.98" y2="604.29" style="fill:none;stroke:#cecfd1;stroke-miterlimit:10;stroke-width:1.72006546685811px"/><line x1="450.18" y1="160.11" x2="450.18" y2="604.29" style="fill:none;stroke:#cecfd1;stroke-miterlimit:10;stroke-width:1.72006546685811px"/><line x1="511.38" y1="160.11" x2="511.38" y2="604.29" style="fill:none;stroke:#cecfd1;stroke-miterlimit:10;stroke-width:1.72006546685811px"/><line x1="572.58" y1="160.11" x2="572.58" y2="604.29" style="fill:none;stroke:#cecfd1;stroke-miterlimit:10;stroke-width:1.72006546685811px"/><line x1="633.77" y1="160.11" x2="633.77" y2="604.29" style="fill:none;stroke:#cecfd1;stroke-miterlimit:10;stroke-width:1.72006546685811px"/><line x1="694.97" y1="160.11" x2="694.97" y2="604.29" style="fill:none;stroke:#cecfd1;stroke-miterlimit:10;stroke-width:1.72006546685811px"/><line x1="756.17" y1="160.11" x2="756.17" y2="604.29" style="fill:none;stroke:#cecfd1;stroke-miterlimit:10;stroke-width:1.72006546685811px"/><path d="M268.68,638.61c-6.18,0-9.52-5.05-9.52-13.55,0-8.16,3.42-13.32,9.4-13.32,6.21,0,9.67,5.09,9.67,13.44S274.81,638.61,268.68,638.61Zm0-24.77c-4.73,0-7,4-7,11.53,0,7.07,2.41,11.15,6.92,11.15s7-4.08,7-11.31S273.3,613.84,268.71,613.84Z" style="fill:#5b6875"/><path d="M321,638.15v-23l-6.37,4.31-1.32-1.83,8.08-5.4h2.05v25.91Z" style="fill:#5b6875"/><path d="M343.89,638.61c-6.17,0-9.51-5.05-9.51-13.55,0-8.16,3.41-13.32,9.39-13.32,6.22,0,9.67,5.09,9.67,13.44S350,638.61,343.89,638.61Zm0-24.77c-4.74,0-7,4-7,11.53,0,7.07,2.41,11.15,6.91,11.15s7-4.08,7-11.31S348.51,613.84,343.93,613.84Z" style="fill:#5b6875"/><path d="M374.39,638.15v-2.06c.23-.23,3.38-3.19,5.28-5.09,5.32-5.32,7.65-8.27,7.65-11.65s-2-5.4-5.47-5.4a10.27,10.27,0,0,0-6,2.37l-1.36-1.47a10.82,10.82,0,0,1,7.69-3.11c4.69,0,7.72,2.83,7.72,7.42,0,4.42-3.53,8.11-7.14,11.72-1.94,2-5.13,5.09-5.13,5.09h12.51v2.18Z" style="fill:#5b6875"/><path d="M405.46,638.61c-6.18,0-9.52-5.05-9.52-13.55,0-8.16,3.42-13.32,9.4-13.32,6.21,0,9.67,5.09,9.67,13.44S411.59,638.61,405.46,638.61Zm0-24.77c-4.74,0-7,4-7,11.53,0,7.07,2.4,11.15,6.91,11.15s7-4.08,7-11.31S410.08,613.84,405.5,613.84Z" style="fill:#5b6875"/><path d="M442.94,638.61c-5.08,0-7.3-2.37-7.61-2.75l1.32-1.6a8.76,8.76,0,0,0,5.87,2.14c3.92,0,6.52-1.94,6.52-5.24a5.13,5.13,0,0,0-1.44-3.42c-1.43-1.44-3.18-1.83-6.83-1.83h-.39v-2.13H441c2.49,0,4.66-.12,6.37-1.83a4.42,4.42,0,0,0,1.24-3.22c0-2.8-2-4.78-5.51-4.78a9.51,9.51,0,0,0-6,2.37l-1.32-1.55a11,11,0,0,1,7.53-3c4.86,0,7.81,2.83,7.81,6.91a6,6,0,0,1-5.09,6.18,5.93,5.93,0,0,1,5.52,6.17C451.57,635.78,447.8,638.61,442.94,638.61Z" style="fill:#5b6875"/><path d="M467,638.61c-6.17,0-9.51-5.05-9.51-13.55,0-8.16,3.42-13.32,9.4-13.32,6.21,0,9.67,5.09,9.67,13.44S473.16,638.61,467,638.61Zm0-24.77c-4.74,0-7,4-7,11.53,0,7.07,2.41,11.15,6.91,11.15s7-4.08,7-11.31S471.64,613.84,467.06,613.84Z" style="fill:#5b6875"/><path d="M511.15,631.86v6.29h-2.41v-6.29H496.28v-2l12.38-17.6h2.49v17.52h3.53v2.1Zm-2.41-16.16-9.86,14.06h9.86Z" style="fill:#5b6875"/><path d="M528.59,638.61c-6.18,0-9.52-5.05-9.52-13.55,0-8.16,3.42-13.32,9.4-13.32,6.21,0,9.67,5.09,9.67,13.44S534.72,638.61,528.59,638.61Zm0-24.77c-4.74,0-7,4-7,11.53,0,7.07,2.4,11.15,6.91,11.15s7-4.08,7-11.31S533.21,613.84,528.63,613.84Z" style="fill:#5b6875"/><path d="M566.19,638.61c-4.78,0-7.11-2.37-7.26-2.56l1.24-1.67a9.61,9.61,0,0,0,5.75,2c4.08,0,6.64-2.37,6.64-6.25,0-3.3-2.17-6.22-6.56-6.22a8.85,8.85,0,0,0-4.62,1.25l-1.17-.74v-12.2h13.86v2.1H562.62v8.2a9.31,9.31,0,0,1,3.92-.82c5.52,0,8.54,3.42,8.54,8.23C575.08,635.27,571.36,638.61,566.19,638.61Z" style="fill:#5b6875"/><path d="M590.15,638.61c-6.17,0-9.51-5.05-9.51-13.55,0-8.16,3.42-13.32,9.4-13.32,6.21,0,9.67,5.09,9.67,13.44S596.29,638.61,590.15,638.61Zm0-24.77c-4.74,0-7,4-7,11.53,0,7.07,2.41,11.15,6.91,11.15s7-4.08,7-11.31S594.77,613.84,590.19,613.84Z" style="fill:#5b6875"/><path d="M629.27,638.61c-7.07,0-9.09-6.79-9.09-12.62,0-6.68,2.1-14.25,9.87-14.25a9.59,9.59,0,0,1,7,2.52l-1.28,1.63a8.38,8.38,0,0,0-5.36-2c-6.25,0-7.85,6.3-7.85,11.73,0,.86,0,.62,0,1,.74-3.42,3.93-5.32,7.34-5.32,5,0,7.81,3.57,7.81,8.35C637.7,634.73,634.36,638.61,629.27,638.61Zm.39-15.22c-3.81,0-6.29,3.15-6.29,6.8a6,6,0,0,0,6,6.36c3.8,0,5.94-3.22,5.94-6.75S633.47,623.39,629.66,623.39Z" style="fill:#5b6875"/><path d="M651.72,638.61c-6.18,0-9.52-5.05-9.52-13.55,0-8.16,3.42-13.32,9.4-13.32,6.21,0,9.67,5.09,9.67,13.44S657.85,638.61,651.72,638.61Zm0-24.77c-4.74,0-7,4-7,11.53,0,7.07,2.4,11.15,6.91,11.15s7-4.08,7-11.31S656.34,613.84,651.76,613.84Z" style="fill:#5b6875"/><path d="M688.35,638.15h-2.79l10.87-23.69H681.91v-2.22H699v2Z" style="fill:#5b6875"/><path d="M713.29,638.61c-6.18,0-9.52-5.05-9.52-13.55,0-8.16,3.42-13.32,9.4-13.32,6.21,0,9.67,5.09,9.67,13.44S719.42,638.61,713.29,638.61Zm0-24.77c-4.73,0-7,4-7,11.53,0,7.07,2.41,11.15,6.92,11.15s7-4.08,7-11.31S717.91,613.84,713.32,613.84Z" style="fill:#5b6875"/><path d="M752.05,638.61c-5.47,0-9-2.75-9-7.22,0-3.57,2.25-6.49,5.75-6.6a6,6,0,0,1-5-6.1c0-4.12,3.3-7,8-7s8.15,2.72,8.15,6.8a6,6,0,0,1-4.85,6.25c3.65.42,5.59,2.87,5.59,6.52C760.71,635.74,757.26,638.61,752.05,638.61Zm-.15-12.85c-3.77,0-6.3,2.13-6.3,5.4,0,3.49,2.41,5.55,6.49,5.55,3.73,0,6.06-2.06,6.06-5.51S755.7,625.76,751.9,625.76Zm0-12.12c-3.34,0-5.64,2-5.64,5s2.45,5.21,5.64,5.21,5.55-2.14,5.55-5.17S755.2,613.64,751.94,613.64Z" style="fill:#5b6875"/><path d="M774.85,638.61c-6.18,0-9.52-5.05-9.52-13.55,0-8.16,3.42-13.32,9.4-13.32,6.21,0,9.67,5.09,9.67,13.44S781,638.61,774.85,638.61Zm0-24.77c-4.74,0-7,4-7,11.53,0,7.07,2.4,11.15,6.91,11.15s7-4.08,7-11.31S779.47,613.84,774.89,613.84Z" style="fill:#5b6875"/><rect x="266.4" y="508.89" width="61.25" height="48.54" style="fill:#cecfd1"/><rect x="266.4" y="408.43" width="183.75" height="48.54" style="fill:#cecfd1"/><rect x="266.4" y="307.96" width="306.24" height="48.54" style="fill:#002664"/><rect x="266.4" y="207.5" width="489.99" height="48.54" style="fill:#cecfd1"/><path d="M45.21,240.05c-3,3-6.37,3.3-11.11,3.3H28.24V217.44h5c5.28,0,9.08.31,12,3.23a14.45,14.45,0,0,1,0,19.38Zm-1.87-18c-2.29-2.3-4.89-2.57-10.06-2.57H30.72v21.79h3.54c3.65,0,6.68-.16,9.24-2.72,1.94-1.94,2.91-5,2.91-8.39A10.92,10.92,0,0,0,43.34,222.07Z" style="fill:#5b6875"/><path d="M68.47,234.49H55.11c0,4.12,2.21,7.07,6.41,7.07a10.71,10.71,0,0,0,5.4-1.51l1,1.78a12.07,12.07,0,0,1-6.64,1.91c-5.43,0-8.62-4-8.62-9.6,0-6,3.34-9.9,8.51-9.9,4.31,0,7.34,3.26,7.34,9C68.55,233.44,68.51,234.1,68.47,234.49Zm-7.22-8.27c-3.23,0-5.83,2.41-6.06,6.29h11C66.18,229.75,64.9,226.22,61.25,226.22Z" style="fill:#5b6875"/><path d="M84.94,243.35V232.47c0-2.33,0-4-1.09-5.12a4.24,4.24,0,0,0-2.91-1,12.38,12.38,0,0,0-5.71,1.82v15.23H72.9V224.71h2.21v1.36a12.54,12.54,0,0,1,6.14-1.83,6.08,6.08,0,0,1,4.31,1.55c1.43,1.44,1.71,2.88,1.71,6.33v11.23Z" style="fill:#5b6875"/><path d="M115.54,243.35V232.24c0-1,0-3.77-1.09-4.89a3.73,3.73,0,0,0-2.8-1,12.58,12.58,0,0,0-5.67,1.7c.39.82.35,3.73.35,4.43v10.84H104V233.13c0-3,0-4.77-1-5.82a3.76,3.76,0,0,0-2.72-1,11.85,11.85,0,0,0-5.55,1.78v15.23H92.39V224.71H94.6v1.36a12.41,12.41,0,0,1,5.91-1.83,5.21,5.21,0,0,1,4.62,2.17,12.36,12.36,0,0,1,6.76-2.17,5.7,5.7,0,0,1,4.15,1.55c1.9,1.91,1.83,4.28,1.83,7.69v9.87Z" style="fill:#5b6875"/><path d="M133.71,243.35V242a11.55,11.55,0,0,1-5.94,1.79c-3.57,0-6-2.3-6-5.67,0-5.91,7.53-6.1,10.76-6.1h1v-.7c0-1.75-.08-3-.93-3.92a4.78,4.78,0,0,0-3.54-1.09,9.94,9.94,0,0,0-5.16,1.48l-1-1.64a10.83,10.83,0,0,1,6.4-1.9,6.77,6.77,0,0,1,5.05,1.79c1.24,1.24,1.48,2.52,1.48,5.36v12Zm-.19-9.48h-1.05c-4.78,0-8.27,1.09-8.27,4.23,0,1.87,1.2,3.58,4.11,3.58a12.28,12.28,0,0,0,5.21-1.52Z" style="fill:#5b6875"/><path d="M150.49,226.45a10,10,0,0,0-1.52-.11,6.55,6.55,0,0,0-5.67,3.26v13.75H141V224.71h2.22v2.44a7.38,7.38,0,0,1,5.9-3,4.13,4.13,0,0,1,1.94.31Z" style="fill:#5b6875"/><path d="M166.29,243.35l-9.47-9.87v9.87h-2.33v-28h2.33V233l8.7-8.27h3.07l-9.17,8.46,9.94,10.18Z" style="fill:#5b6875"/><path d="M34.33,343.47a11.42,11.42,0,0,1-7.53-2.75l1.28-1.79a10.83,10.83,0,0,0,6.1,2.33c3.8,0,5.82-2.14,5.82-5.2a4.18,4.18,0,0,0-1.32-3c-2.33-2.33-7-2.92-9.63-5.56a5.88,5.88,0,0,1-1.55-4.23c0-3.84,3.07-6.64,7.65-6.64a9.33,9.33,0,0,1,7.11,2.76l-1.32,1.55a8.22,8.22,0,0,0-5.6-2.17c-3.22,0-5.43,1.86-5.43,4.46A3.61,3.61,0,0,0,31,325.88c2.14,2.14,7,2.76,9.52,5.28a6.42,6.42,0,0,1,2,4.7C42.57,340.21,39.73,343.47,34.33,343.47Z" style="fill:#5b6875"/><path d="M55,343.43c-5.08,0-8.42-3.8-8.42-9.78s3.26-9.79,8.62-9.79c5.05,0,8.35,3.77,8.35,9.94C63.54,339.63,60.24,343.43,55,343.43Zm0-17.55c-3.73,0-6.06,3.07-6.06,7.69s2.61,7.81,6.1,7.81c3.85,0,6.06-3,6.06-7.65S58.49,325.88,55,325.88Z" style="fill:#5b6875"/><path d="M79.85,343v-1.48a11.47,11.47,0,0,1-6.06,1.87,6.22,6.22,0,0,1-4.51-1.67c-1.86-1.87-1.67-4.59-1.67-6.72V324.33h2.33v11.1c0,2,0,3.65,1.09,4.74a4,4,0,0,0,2.91,1.13,12.43,12.43,0,0,0,5.71-1.83V324.33H82V343Z" style="fill:#5b6875"/><path d="M93.71,343.39a5.09,5.09,0,0,1-3.84-1.32c-1.09-1.08-1.09-2.56-1.09-4.81v-11H85.52v-1.9h3.26v-5.28h2.33v5.28h6v1.9h-6v10.56c0,2.57-.19,4.51,2.91,4.51a8.35,8.35,0,0,0,2.76-.58l.62,1.78A7.54,7.54,0,0,1,93.71,343.39Z" style="fill:#5b6875"/><path d="M113.75,343V332.09c0-2.33,0-4-1.09-5.12a4.22,4.22,0,0,0-2.91-1.05,12.27,12.27,0,0,0-5.71,1.83V343h-2.33V315H104v10.64a11.78,11.78,0,0,1,5.94-1.79,6.49,6.49,0,0,1,4.28,1.44c1.59,1.59,1.82,3,1.82,6.45V343Z" style="fill:#5b6875"/><path d="M147.26,343l-2.64-7.42h-11.3L130.68,343H128.2l9.43-25.9h2.8L149.9,343ZM139,319.67l-4.89,13.74h9.83Z" style="fill:#5b6875"/><path d="M163.23,317.38a5.64,5.64,0,0,0-2.76-.78,3.49,3.49,0,0,0-2.57.93c-1.08,1.09-1.08,2.76-1.08,3.81v3h6v1.9h-6V343h-2.33V326.23h-3.3v-1.9h3.3v-3a7.25,7.25,0,0,1,1.74-5.32,5.6,5.6,0,0,1,4-1.48,6.52,6.52,0,0,1,3.93,1.21Z" style="fill:#5b6875"/><path d="M176.16,326.08a9.57,9.57,0,0,0-1.52-.12,6.58,6.58,0,0,0-5.67,3.26V343h-2.33V324.33h2.22v2.44a7.38,7.38,0,0,1,5.9-2.95,4.17,4.17,0,0,1,1.94.31Z" style="fill:#5b6875"/><path d="M181.32,319.59a1.56,1.56,0,1,1,1.56-1.55A1.56,1.56,0,0,1,181.32,319.59ZM180.16,343V324.33h2.33V343Z" style="fill:#5b6875"/><path d="M195.65,343.36c-5.12,0-8.81-3.54-8.81-9.32,0-6,3.8-10.18,9.28-10.18a9.37,9.37,0,0,1,5.63,1.83l-1.05,1.63A8.28,8.28,0,0,0,196,326c-4,0-6.76,3.34-6.76,7.73,0,4.58,2.76,7.49,6.53,7.49a10.36,10.36,0,0,0,5.24-1.44l1,1.75A11.42,11.42,0,0,1,195.65,343.36Z" style="fill:#5b6875"/><path d="M216.27,343v-1.4a11.55,11.55,0,0,1-5.94,1.79c-3.57,0-6-2.3-6-5.67,0-5.91,7.54-6.1,10.76-6.1h1v-.7c0-1.75-.08-3-.93-3.92a4.81,4.81,0,0,0-3.54-1.09,9.94,9.94,0,0,0-5.16,1.48l-1-1.63a10.73,10.73,0,0,1,6.41-1.91,6.74,6.74,0,0,1,5,1.79c1.25,1.24,1.48,2.52,1.48,5.36v12Zm-.19-9.48H215c-4.78,0-8.27,1.09-8.27,4.24,0,1.86,1.2,3.57,4.12,3.57a12.27,12.27,0,0,0,5.2-1.52Z" style="fill:#5b6875"/><path d="M43.81,442.59V430H30.72v12.59H28.24V416.68h2.48v11.23H43.81V416.68h2.48v25.91Z" style="fill:#5b6875"/><path d="M59.69,443.05c-5.08,0-8.42-3.8-8.42-9.78s3.26-9.79,8.62-9.79c5,0,8.35,3.77,8.35,9.94C68.24,439.25,64.94,443.05,59.69,443.05Zm0-17.55c-3.73,0-6.06,3.07-6.06,7.69s2.61,7.8,6.1,7.8c3.84,0,6.06-3,6.06-7.65S63.19,425.5,59.73,425.5Z" style="fill:#5b6875"/><path d="M84.62,442.59V431.71c0-2.33,0-4-1.08-5.12a4.25,4.25,0,0,0-2.92-1,12.37,12.37,0,0,0-5.7,1.82v15.23H72.59V424H74.8v1.35a12.69,12.69,0,0,1,6.14-1.82A6.08,6.08,0,0,1,85.25,425c1.43,1.44,1.7,2.88,1.7,6.33v11.23Z" style="fill:#5b6875"/><path d="M105.05,449.34c-1.63,1.63-3.57,2.06-6.06,2.06a10.94,10.94,0,0,1-6.91-2.29l1-1.63a10.39,10.39,0,0,0,5.71,1.86c2.29,0,3.57-.58,4.39-1.43,1.16-1.17,1.2-2.45,1.2-5.44V441A10.62,10.62,0,0,1,99,442.62c-4.66,0-8-3.84-8-9.2,0-5.75,3.89-9.94,9.28-9.94a16.38,16.38,0,0,1,6.49,1.59v17.79C106.8,446.16,106.45,447.91,105.05,449.34Zm-.62-22.91a9.91,9.91,0,0,0-4.23-.89c-4.08,0-6.76,3.18-6.76,7.84,0,4.27,2.33,7.19,5.79,7.19a9.87,9.87,0,0,0,5.2-1.79Z" style="fill:#5b6875"/><path d="M136.2,442.59,124.55,430.2v12.39H122.1V416.68h2.45v12.2l11.34-12.2h2.83L127,429.38l12.27,13.21Z" style="fill:#5b6875"/><path d="M148.66,443.05c-5.08,0-8.42-3.8-8.42-9.78s3.26-9.79,8.62-9.79c5,0,8.35,3.77,8.35,9.94C157.21,439.25,153.9,443.05,148.66,443.05Zm0-17.55c-3.73,0-6.06,3.07-6.06,7.69s2.61,7.8,6.1,7.8c3.84,0,6.06-3,6.06-7.65S152.16,425.5,148.7,425.5Z" style="fill:#5b6875"/><path d="M173.59,442.59V431.71c0-2.33,0-4-1.08-5.12a4.25,4.25,0,0,0-2.92-1,12.37,12.37,0,0,0-5.7,1.82v15.23h-2.33V424h2.21v1.35a12.68,12.68,0,0,1,6.13-1.82,6.09,6.09,0,0,1,4.32,1.55c1.43,1.44,1.7,2.88,1.7,6.33v11.23Z" style="fill:#5b6875"/><path d="M194,449.34c-1.63,1.63-3.57,2.06-6.06,2.06a10.94,10.94,0,0,1-6.91-2.29l1-1.63a10.39,10.39,0,0,0,5.71,1.86c2.29,0,3.57-.58,4.39-1.43,1.16-1.17,1.2-2.45,1.2-5.44V441a10.62,10.62,0,0,1-5.44,1.59c-4.66,0-8-3.84-8-9.2,0-5.75,3.89-9.94,9.28-9.94a16.38,16.38,0,0,1,6.49,1.59v17.79C195.77,446.16,195.42,447.91,194,449.34Zm-.62-22.91a9.91,9.91,0,0,0-4.23-.89c-4.08,0-6.76,3.18-6.76,7.84,0,4.27,2.33,7.19,5.79,7.19a9.87,9.87,0,0,0,5.2-1.79Z" style="fill:#5b6875"/><path d="M43.61,540.23a9.15,9.15,0,0,1-6.71,2.44,9.46,9.46,0,0,1-6.8-2.52c-2.41-2.41-2.25-5.51-2.25-9.82v-14h2.44v16.38c0,2.22,0,4.35,1.64,6A7,7,0,0,0,37,540.54a6.66,6.66,0,0,0,4.66-1.67c1.83-1.83,1.79-3.69,1.79-8.85V516.31h2.45v12.46C45.91,533.82,46.18,537.66,43.61,540.23Z" style="fill:#5b6875"/><path d="M63.58,542.21V531.34c0-2.33,0-4-1.09-5.13a4.24,4.24,0,0,0-2.91-1.05A12.22,12.22,0,0,0,53.87,527v15.22H51.54V523.57h2.21v1.36a12.54,12.54,0,0,1,6.14-1.83,6,6,0,0,1,4.31,1.56c1.43,1.43,1.71,2.87,1.71,6.33v11.22Z" style="fill:#5b6875"/><path d="M72.2,518.83a1.56,1.56,0,1,1,1.55-1.55A1.56,1.56,0,0,1,72.2,518.83ZM71,542.21V523.57h2.33v18.64Z" style="fill:#5b6875"/><path d="M85.09,542.64a5.13,5.13,0,0,1-3.84-1.32c-1.09-1.09-1.09-2.57-1.09-4.82v-11H76.9v-1.9h3.26v-5.28h2.33v5.28h6v1.9h-6V536c0,2.57-.2,4.51,2.91,4.51a8.16,8.16,0,0,0,2.76-.58l.62,1.78A7.5,7.5,0,0,1,85.09,542.64Z" style="fill:#5b6875"/><path d="M107.11,533.35H93.75c0,4.12,2.21,7.07,6.41,7.07a10.71,10.71,0,0,0,5.4-1.51l1,1.78A12.07,12.07,0,0,1,100,542.6c-5.43,0-8.62-4-8.62-9.59,0-6,3.34-9.91,8.51-9.91,4.31,0,7.34,3.27,7.34,9C107.19,532.31,107.15,533,107.11,533.35Zm-7.22-8.27c-3.23,0-5.83,2.41-6.06,6.29h11C104.82,528.62,103.54,525.08,99.89,525.08Z" style="fill:#5b6875"/><path d="M124.12,542.21v-1.4a9.4,9.4,0,0,1-5.44,1.79c-4.89,0-8.19-3.77-8.19-9.4,0-6,3.77-10.1,9.16-10.1a8.46,8.46,0,0,1,4.24,1v-9.9h2.37v28Zm-.23-15.81a7.93,7.93,0,0,0-4.24-1.24c-4,0-6.75,3.22-6.75,8.12,0,4.31,2.48,7.26,6,7.26a7.87,7.87,0,0,0,5-1.83Z" style="fill:#5b6875"/><path d="M147.65,542.71a11.42,11.42,0,0,1-7.53-2.75l1.28-1.79a10.83,10.83,0,0,0,6.1,2.33c3.8,0,5.82-2.14,5.82-5.2a4.18,4.18,0,0,0-1.32-3c-2.33-2.33-7-2.91-9.63-5.56a5.88,5.88,0,0,1-1.55-4.23c0-3.84,3.07-6.64,7.65-6.64a9.31,9.31,0,0,1,7.1,2.76l-1.32,1.55a8.16,8.16,0,0,0-5.59-2.17c-3.22,0-5.43,1.86-5.43,4.46a3.61,3.61,0,0,0,1.12,2.68c2.14,2.14,7,2.76,9.52,5.28a6.44,6.44,0,0,1,2,4.7C155.89,539.45,153.05,542.71,147.65,542.71Z" style="fill:#5b6875"/><path d="M166.76,542.64a5.13,5.13,0,0,1-3.84-1.32c-1.09-1.09-1.09-2.57-1.09-4.82v-11h-3.26v-1.9h3.26v-5.28h2.33v5.28h6v1.9h-6V536c0,2.57-.2,4.51,2.91,4.51a8.16,8.16,0,0,0,2.76-.58l.62,1.78A7.5,7.5,0,0,1,166.76,542.64Z" style="fill:#5b6875"/><path d="M185,542.21v-1.4A11.55,11.55,0,0,1,179,542.6c-3.57,0-6-2.29-6-5.67,0-5.91,7.54-6.1,10.76-6.1h1v-.7c0-1.75-.08-3-.93-3.92a4.79,4.79,0,0,0-3.54-1.09,9.94,9.94,0,0,0-5.16,1.48l-1-1.63a10.73,10.73,0,0,1,6.41-1.91,6.74,6.74,0,0,1,5,1.79c1.25,1.24,1.48,2.52,1.48,5.36v12Zm-.19-9.48h-1.05c-4.78,0-8.27,1.09-8.27,4.24,0,1.86,1.2,3.57,4.12,3.57a12.27,12.27,0,0,0,5.2-1.52Z" style="fill:#5b6875"/><path d="M198.57,542.64a5.15,5.15,0,0,1-3.85-1.32c-1.09-1.09-1.09-2.57-1.09-4.82v-11h-3.26v-1.9h3.26v-5.28H196v5.28h6v1.9h-6V536c0,2.57-.19,4.51,2.92,4.51a8.07,8.07,0,0,0,2.75-.58l.63,1.78A7.58,7.58,0,0,1,198.57,542.64Z" style="fill:#5b6875"/><path d="M220.59,533.35H207.23c0,4.12,2.21,7.07,6.41,7.07a10.66,10.66,0,0,0,5.39-1.51l1.05,1.78a12.11,12.11,0,0,1-6.64,1.91c-5.44,0-8.62-4-8.62-9.59,0-6,3.34-9.91,8.5-9.91,4.32,0,7.34,3.27,7.34,9C220.66,532.31,220.63,533,220.59,533.35Zm-7.23-8.27c-3.22,0-5.82,2.41-6.05,6.29h11C218.3,528.62,217,525.08,213.36,525.08Z" style="fill:#5b6875"/><path d="M229.79,542.67a11.47,11.47,0,0,1-6.25-1.82l1-1.79a10.37,10.37,0,0,0,5.08,1.56c2.8,0,4.47-1.25,4.47-3.27,0-2.52-2.72-3.26-4.66-4-2.76-1.08-5.17-2-5.17-5.35,0-3,2.72-4.9,6.22-4.9a9.75,9.75,0,0,1,5.63,1.67l-.93,1.67a9.38,9.38,0,0,0-4.51-1.32c-2.17,0-4,1.09-4,2.8,0,2.17,1.91,2.68,4,3.53,2.53,1,5.83,2.06,5.83,5.67S233.91,542.67,229.79,542.67Z" style="fill:#5b6875"/><line x1="267.71" y1="160.11" x2="267.71" y2="604.29" style="fill:none;stroke:#cecfd1;stroke-miterlimit:10;stroke-width:2.427203492122px"/></svg>