<?xml version="1.0" encoding="utf-8"?>
<!-- Generator: Adobe Illustrator 16.0.0, SVG Export Plug-In . SVG Version: 6.00 Build 0)  -->
<!DOCTYPE svg PUBLIC "-//W3C//DTD SVG 1.1//EN" "http://www.w3.org/Graphics/SVG/1.1/DTD/svg11.dtd">
<svg version="1.1" id="Layer_1" xmlns="http://www.w3.org/2000/svg" xmlns:xlink="http://www.w3.org/1999/xlink" x="0px" y="0px"
	 width="612px" height="409px" viewBox="0 252.5 612 409" enable-background="new 0 252.5 612 409" xml:space="preserve">
<line fill="none" stroke="#CECFD1" stroke-width="1.7818" stroke-miterlimit="10" x1="300.278" y1="258.95" x2="300.278" y2="601.318"/>
<line fill="none" stroke="#CECFD1" stroke-width="1.7818" stroke-miterlimit="10" x1="397.264" y1="258.95" x2="397.264" y2="601.318"/>
<line fill="none" stroke="#CECFD1" stroke-width="1.7818" stroke-miterlimit="10" x1="494.259" y1="258.95" x2="494.259" y2="601.318"/>
<line fill="none" stroke="#CECFD1" stroke-width="1.7818" stroke-miterlimit="10" x1="591.253" y1="258.95" x2="591.253" y2="601.318"/>
<path fill="#5B6875" d="M203.735,638.122c-0.967,0.017-1.922-0.221-2.77-0.688c-0.847-0.495-1.557-1.194-2.065-2.034
	c-0.617-1.033-1.054-2.164-1.293-3.344c-0.309-1.51-0.457-3.048-0.443-4.59c0-3.825,0.604-6.711,1.813-8.659
	c1.063-1.87,3.075-2.996,5.225-2.923c4.319,0,6.482,3.683,6.487,11.047c0.021,1.618-0.135,3.234-0.467,4.819
	c-0.246,1.242-0.704,2.433-1.354,3.519c-0.539,0.89-1.291,1.632-2.188,2.158C205.775,637.909,204.76,638.148,203.735,638.122z
	 M204.079,617.536c-1.601-0.003-3.047,0.956-3.665,2.433c-0.841,1.622-1.262,4.063-1.262,7.321c0,3.007,0.397,5.286,1.209,6.847
	c0.606,1.435,2.022,2.357,3.58,2.333c0.73,0.017,1.447-0.198,2.05-0.611c0.656-0.452,1.184-1.065,1.53-1.783
	c0.442-0.925,0.749-1.909,0.91-2.922c0.218-1.327,0.32-2.671,0.306-4.017c-0.021-6.396-1.573-9.593-4.658-9.593V617.536z"/>
<path fill="#5B6875" d="M297.891,621.752c0.008-0.618-0.096-1.232-0.306-1.813c-0.193-0.497-0.487-0.947-0.864-1.323
	c-0.389-0.346-0.845-0.605-1.339-0.766c-0.558-0.183-1.143-0.273-1.729-0.268c-0.964,0.001-1.914,0.234-2.769,0.681
	c-0.921,0.485-1.766,1.102-2.51,1.829v-2.135c0.744-0.644,1.59-1.16,2.502-1.53c0.976-0.376,2.015-0.561,3.06-0.543
	c0.173-0.012,0.347-0.012,0.521,0c0.168,0,0.329,0.054,0.489,0.092c0.7,0.067,1.384,0.257,2.02,0.559
	c0.578,0.285,1.098,0.677,1.53,1.155c0.444,0.484,0.785,1.055,1.002,1.675c0.243,0.69,0.362,1.418,0.352,2.15
	c0.011,0.842-0.11,1.681-0.359,2.486c-0.235,0.722-0.582,1.402-1.025,2.02c-0.474,0.638-1.015,1.223-1.613,1.744
	c-0.628,0.543-1.323,1.094-2.097,1.645c-0.772,0.551-1.599,1.171-2.211,1.645c-0.546,0.411-1.059,0.866-1.529,1.362
	c-0.372,0.382-0.685,0.817-0.926,1.293c-0.215,0.453-0.352,0.939-0.405,1.438c-0.046,0.137-0.076,0.278-0.092,0.421
	c-0.009,0.155-0.009,0.312,0,0.467H300.3v1.729h-12.768v-1.04c-0.016-0.847,0.101-1.69,0.345-2.502
	c0.23-0.718,0.588-1.39,1.056-1.98c0.546-0.683,1.167-1.301,1.852-1.844c0.749-0.603,1.649-1.288,2.7-2.059
	c0.711-0.52,1.347-1.024,1.897-1.529c0.517-0.457,0.98-0.971,1.385-1.53c0.361-0.503,0.646-1.058,0.841-1.645
	C297.795,623.023,297.891,622.39,297.891,621.752z"/>
<path fill="#5B6875" d="M310.092,638.122c-0.967,0.017-1.922-0.221-2.769-0.688c-0.848-0.495-1.558-1.194-2.065-2.034
	c-0.617-1.033-1.055-2.164-1.293-3.344c-0.31-1.51-0.458-3.048-0.444-4.59c0-3.825,0.604-6.711,1.813-8.659
	c1.062-1.889,3.09-3.025,5.256-2.945c4.324,0,6.487,3.682,6.487,11.046c0.021,1.619-0.136,3.235-0.467,4.82
	c-0.25,1.24-0.708,2.431-1.354,3.519c-0.539,0.89-1.291,1.631-2.188,2.157C312.156,637.899,311.13,638.147,310.092,638.122z
	 M310.437,617.536c-1.601-0.003-3.046,0.956-3.664,2.433c-0.842,1.622-1.263,4.063-1.263,7.321c0,3.007,0.398,5.286,1.209,6.847
	c0.607,1.435,2.023,2.357,3.58,2.333c0.73,0.015,1.447-0.199,2.05-0.611c0.654-0.454,1.181-1.067,1.53-1.783
	c0.443-0.925,0.75-1.909,0.91-2.922c0.219-1.327,0.321-2.671,0.307-4.017c-0.021-6.396-1.573-9.593-4.659-9.593V617.536z"/>
<path fill="#5B6875" d="M396.438,616.221v14.458h3.366v1.744h-3.366v5.355h-1.904v-5.355h-10.205v-1.744
	c0.948-1.086,1.912-2.241,2.892-3.465c0.979-1.225,1.912-2.472,2.8-3.741c0.895-1.27,1.714-2.517,2.471-3.756
	c0.691-1.132,1.322-2.299,1.89-3.496H396.438z M394.533,630.679v-11.375c-0.766,1.277-1.477,2.479-2.211,3.58
	s-1.438,2.134-2.127,3.06s-1.339,1.813-1.966,2.594c-0.628,0.78-1.201,1.484-1.722,2.119L394.533,630.679z"/>
<path fill="#5B6875" d="M408.341,638.122c-0.967,0.017-1.922-0.221-2.769-0.688c-0.848-0.495-1.558-1.194-2.065-2.034
	c-0.617-1.033-1.055-2.164-1.293-3.344c-0.31-1.51-0.458-3.048-0.444-4.59c0-3.825,0.604-6.711,1.813-8.659
	c1.063-1.869,3.076-2.994,5.225-2.923c4.325,0,6.487,3.683,6.487,11.047c0.021,1.618-0.135,3.234-0.467,4.819
	c-0.246,1.242-0.704,2.433-1.354,3.519c-0.539,0.89-1.291,1.632-2.188,2.158C410.381,637.909,409.366,638.148,408.341,638.122z
	 M408.686,617.536c-1.6-0.001-3.045,0.958-3.664,2.433c-0.842,1.622-1.263,4.063-1.263,7.321c0,3.007,0.397,5.286,1.209,6.847
	c0.607,1.435,2.022,2.357,3.58,2.333c0.732,0.016,1.452-0.198,2.058-0.611c0.654-0.454,1.181-1.067,1.53-1.783
	c0.443-0.925,0.75-1.909,0.91-2.922c0.219-1.327,0.32-2.671,0.306-4.017c-0.025-6.396-1.581-9.593-4.666-9.593V617.536z"/>
<path fill="#5B6875" d="M496.117,630.932c0.013,0.988-0.153,1.97-0.489,2.899c-0.296,0.848-0.76,1.628-1.362,2.295
	c-0.584,0.647-1.295,1.168-2.088,1.53c-0.837,0.366-1.741,0.552-2.654,0.543c-1.96,0.061-3.806-0.917-4.858-2.57
	c-0.608-0.937-1.048-1.973-1.3-3.061c-0.32-1.371-0.472-2.776-0.452-4.185c-0.017-1.719,0.182-3.433,0.59-5.103
	c0.336-1.399,0.913-2.729,1.705-3.932c0.691-1.039,1.616-1.901,2.701-2.517c1.096-0.602,2.33-0.907,3.58-0.888
	c1.144-0.034,2.283,0.161,3.351,0.573v1.905c-1.036-0.515-2.179-0.776-3.336-0.765c-0.96-0.013-1.905,0.232-2.738,0.711
	c-0.843,0.503-1.556,1.198-2.081,2.027c-0.614,0.961-1.063,2.019-1.323,3.129c-0.324,1.319-0.481,2.674-0.467,4.031h0.062
	c0.905-2.013,2.952-3.264,5.156-3.151c0.85-0.012,1.691,0.158,2.471,0.497c0.724,0.317,1.368,0.79,1.89,1.385
	c0.542,0.613,0.955,1.328,1.217,2.104C495.972,629.209,496.116,630.067,496.117,630.932z M494.136,631.229
	c0.01-0.73-0.094-1.458-0.306-2.157c-0.179-0.606-0.479-1.171-0.88-1.66c-0.38-0.455-0.858-0.819-1.4-1.063
	c-0.59-0.26-1.229-0.388-1.874-0.375c-0.636-0.007-1.265,0.127-1.844,0.39c-0.555,0.251-1.054,0.61-1.469,1.056
	c-0.411,0.446-0.735,0.965-0.956,1.53c-0.229,0.569-0.346,1.177-0.344,1.79c-0.006,0.75,0.104,1.495,0.328,2.211
	c0.2,0.66,0.517,1.279,0.934,1.828c0.387,0.51,0.877,0.933,1.438,1.239c0.572,0.31,1.215,0.468,1.866,0.459
	c0.626,0.007,1.245-0.126,1.813-0.39c0.545-0.259,1.029-0.629,1.423-1.087c0.41-0.491,0.727-1.054,0.933-1.66
	c0.231-0.677,0.345-1.388,0.337-2.104V631.229z"/>
<path fill="#5B6875" d="M505.244,638.122c-0.968,0.017-1.923-0.221-2.77-0.688c-0.848-0.495-1.558-1.194-2.065-2.034
	c-0.617-1.033-1.055-2.164-1.293-3.344c-0.313-1.509-0.462-3.048-0.443-4.59c0-3.825,0.604-6.711,1.813-8.659
	c1.062-1.868,3.07-2.993,5.218-2.923c4.329,0,6.494,3.683,6.494,11.047c0.021,1.618-0.135,3.234-0.467,4.819
	c-0.252,1.241-0.712,2.432-1.361,3.519c-0.536,0.89-1.285,1.631-2.18,2.158C507.284,637.909,506.27,638.148,505.244,638.122z
	 M505.588,617.536c-1.603-0.005-3.051,0.955-3.672,2.433c-0.842,1.622-1.263,4.063-1.263,7.321c0,3.004,0.406,5.286,1.217,6.847
	c0.607,1.435,2.023,2.357,3.58,2.333c0.73,0.015,1.447-0.199,2.05-0.611c0.654-0.454,1.181-1.067,1.53-1.783
	c0.444-0.924,0.748-1.908,0.903-2.922c0.221-1.327,0.326-2.671,0.313-4.017c0.005-6.396-1.548-9.593-4.659-9.593V617.536z"/>
<path fill="#5B6875" d="M580.198,631.758c0-0.579,0.088-1.153,0.261-1.706c0.168-0.567,0.426-1.105,0.765-1.591
	c0.73-1.062,1.777-1.864,2.991-2.295c-0.919-0.472-1.707-1.163-2.295-2.013c-0.57-0.815-0.872-1.789-0.864-2.784
	c-0.006-0.755,0.146-1.502,0.443-2.195c0.287-0.658,0.703-1.251,1.224-1.744c0.539-0.501,1.17-0.892,1.859-1.148
	c0.733-0.276,1.511-0.416,2.295-0.413c0.8-0.009,1.594,0.135,2.341,0.421c0.685,0.265,1.313,0.656,1.852,1.155
	c0.525,0.489,0.942,1.083,1.224,1.744c0.294,0.689,0.442,1.432,0.437,2.181c0.002,0.498-0.075,0.994-0.229,1.469
	c-0.147,0.469-0.361,0.915-0.636,1.323c-0.28,0.417-0.615,0.795-0.994,1.125c-0.395,0.34-0.825,0.635-1.285,0.879
	c0.615,0.224,1.188,0.547,1.698,0.957c0.476,0.387,0.893,0.841,1.239,1.346c0.336,0.488,0.594,1.024,0.765,1.592
	c0.169,0.553,0.257,1.128,0.261,1.706c0.01,0.903-0.156,1.8-0.49,2.639c-0.307,0.759-0.773,1.442-1.369,2.005
	c-0.605,0.564-1.321,0.997-2.104,1.27c-0.872,0.307-1.791,0.456-2.716,0.443c-0.909,0.013-1.813-0.138-2.67-0.443
	c-0.781-0.274-1.497-0.707-2.104-1.27c-0.598-0.561-1.07-1.241-1.385-1.997C580.364,633.571,580.189,632.668,580.198,631.758z
	 M582.256,631.758c-0.008,0.66,0.106,1.316,0.337,1.936c0.406,1.116,1.277,2.001,2.387,2.425c1.205,0.443,2.528,0.443,3.733,0
	c1.111-0.425,1.988-1.305,2.41-2.417c0.238-0.617,0.358-1.274,0.352-1.936c0.002-0.613-0.112-1.22-0.337-1.79
	c-0.211-0.552-0.525-1.058-0.926-1.492c-0.412-0.43-0.906-0.773-1.453-1.01c-0.603-0.252-1.251-0.377-1.905-0.367
	c-0.627-0.008-1.248,0.112-1.828,0.352c-1.112,0.435-1.99,1.317-2.417,2.433c-0.236,0.584-0.356,1.207-0.353,1.837V631.758z
	 M583.022,621.515c-0.002,0.524,0.1,1.044,0.298,1.529c0.189,0.467,0.471,0.891,0.826,1.247c0.354,0.354,0.772,0.637,1.232,0.834
	c0.96,0.41,2.046,0.41,3.006,0c0.459-0.201,0.877-0.487,1.231-0.842c0.356-0.36,0.64-0.786,0.834-1.254
	c0.206-0.483,0.311-1.005,0.307-1.53c0.014-1.052-0.388-2.065-1.117-2.823c-0.353-0.355-0.771-0.639-1.231-0.833
	c-0.485-0.201-1.006-0.303-1.53-0.299c-0.525,0.002-1.045,0.105-1.53,0.306c-0.461,0.198-0.877,0.487-1.224,0.85
	c-0.335,0.367-0.595,0.796-0.765,1.262c-0.207,0.482-0.324,0.998-0.345,1.522L583.022,621.515z"/>
<path fill="#5B6875" d="M602.82,638.122c-0.965,0.017-1.917-0.222-2.762-0.688c-0.847-0.495-1.557-1.194-2.065-2.034
	c-0.617-1.033-1.054-2.164-1.293-3.344c-0.313-1.509-0.462-3.048-0.443-4.59c0-3.825,0.604-6.711,1.813-8.659
	c1.061-1.869,3.07-2.995,5.218-2.923c4.33,0,6.495,3.683,6.495,11.047c0.021,1.618-0.135,3.234-0.467,4.819
	c-0.252,1.241-0.713,2.432-1.361,3.519c-0.537,0.892-1.29,1.634-2.188,2.158C604.86,637.909,603.845,638.149,602.82,638.122z
	 M603.172,617.536c-1.604-0.005-3.052,0.955-3.673,2.433c-0.841,1.622-1.262,4.063-1.262,7.321c0,3.004,0.402,5.286,1.209,6.847
	c0.607,1.437,2.027,2.36,3.588,2.333c0.73,0.015,1.447-0.199,2.05-0.611c0.642-0.457,1.155-1.07,1.492-1.783
	c0.446-0.923,0.753-1.908,0.91-2.922c0.221-1.327,0.326-2.671,0.313-4.017c-0.005-6.396-1.551-9.593-4.636-9.593L603.172,617.536z"
	/>
<rect x="203.138" y="535.728" fill="#002664" width="48.539" height="38.472"/>
<rect x="203.138" y="455.143" fill="#002664" width="145.61" height="38.472"/>
<rect x="203.138" y="376.194" fill="#002664" width="242.681" height="38.472"/>
<rect x="203.138" y="296.497" fill="#002664" width="263.596" height="38.472"/>
<rect x="466.734" y="296.497" fill="#CECFD1" width="111.561" height="38.472"/>
<rect x="445.574" y="376.194" fill="#CECFD1" width="68.559" height="38.472"/>
<rect x="346.453" y="455.143" fill="#71A4CC" width="93.353" height="38.472"/>
<rect x="360.942" y="535.728" fill="#71A4CC" width="61.553" height="38.472"/>
<rect x="251.31" y="535.728" fill="#CECFD1" width="109.632" height="38.472"/>
<path fill="#5B6875" d="M56.197,324.909v-21.55h5.669c3.683,0,6.467,0.885,8.354,2.655c1.888,1.77,2.828,4.383,2.823,7.841
	c0.028,1.546-0.23,3.084-0.765,4.536c-0.501,1.317-1.284,2.507-2.295,3.488c-1.03,0.993-2.258,1.757-3.604,2.242
	c-1.535,0.539-3.154,0.798-4.781,0.765L56.197,324.909z M58.194,305.194v17.901h3.305c1.351,0.018,2.694-0.187,3.979-0.604
	c1.107-0.363,2.121-0.967,2.968-1.767c0.83-0.803,1.464-1.788,1.852-2.876c0.449-1.264,0.666-2.599,0.643-3.94
	c0-5.804-3.061-8.708-9.181-8.713H58.194z"/>
<path fill="#5B6875" d="M77.923,317.587c-0.002,0.861,0.125,1.716,0.375,2.54c0.215,0.698,0.568,1.346,1.04,1.905
	c0.448,0.52,1.012,0.928,1.645,1.193c0.694,0.285,1.438,0.425,2.188,0.413c1.796-0.024,3.53-0.664,4.911-1.813v1.882
	c-1.571,1.084-3.447,1.636-5.355,1.576c-0.965,0.015-1.923-0.167-2.814-0.535c-0.827-0.351-1.562-0.891-2.143-1.576
	c-0.622-0.739-1.085-1.599-1.361-2.524c-0.338-1.108-0.5-2.262-0.482-3.419c-0.011-1.091,0.168-2.176,0.528-3.206
	c0.323-0.932,0.815-1.795,1.453-2.547c0.613-0.707,1.366-1.28,2.211-1.683c0.873-0.409,1.828-0.616,2.792-0.604
	c0.904-0.02,1.802,0.155,2.632,0.512c0.747,0.338,1.405,0.846,1.92,1.484c0.539,0.698,0.939,1.492,1.179,2.341
	c0.28,1.008,0.416,2.052,0.405,3.098v0.964H77.923z M87.103,315.904c0.057-1.336-0.349-2.652-1.147-3.726
	c-0.754-0.899-1.889-1.39-3.06-1.323c-0.619-0.006-1.232,0.111-1.806,0.344c-0.555,0.228-1.055,0.569-1.469,1.002
	c-0.44,0.462-0.793,1.002-1.041,1.591c-0.29,0.674-0.486,1.384-0.581,2.111H87.103z"/>
<path fill="#5B6875" d="M103.168,324.909v-8.851c0-3.473-1.275-5.21-3.825-5.21c-0.642-0.008-1.277,0.128-1.859,0.398
	c-0.566,0.258-1.072,0.633-1.483,1.102c-0.426,0.494-0.758,1.062-0.979,1.675c-0.236,0.674-0.355,1.383-0.352,2.096v8.805h-1.921
	v-15.399h1.921v2.708h0.061c0.975-1.938,2.988-3.133,5.156-3.06c1.462-0.085,2.878,0.521,3.825,1.637
	c0.969,1.381,1.437,3.052,1.323,4.735v9.371L103.168,324.909z"/>
<path fill="#5B6875" d="M129.032,324.909v-9.042c0.011-0.786-0.061-1.57-0.214-2.341c-0.109-0.549-0.331-1.07-0.65-1.53
	c-0.288-0.391-0.681-0.693-1.133-0.872c-0.521-0.189-1.074-0.28-1.629-0.268c-0.556-0.002-1.103,0.134-1.591,0.398
	c-0.512,0.267-0.96,0.64-1.316,1.094c-0.39,0.492-0.69,1.049-0.888,1.645c-0.218,0.659-0.326,1.349-0.321,2.042v8.897h-1.95v-9.264
	c0-3.218-1.239-4.83-3.718-4.835c-0.554-0.006-1.101,0.125-1.592,0.382c-0.499,0.262-0.938,0.627-1.285,1.071
	c-0.383,0.498-0.673,1.06-0.856,1.66c-0.212,0.694-0.315,1.417-0.306,2.142v8.821h-1.921v-15.384h1.921v2.494h0.106
	c0.891-1.79,2.737-2.903,4.735-2.854c1.019-0.011,2.012,0.317,2.823,0.933c0.384,0.299,0.717,0.658,0.986,1.063
	c0.277,0.416,0.486,0.873,0.62,1.354c0.467-1.006,1.196-1.868,2.111-2.494c0.871-0.574,1.895-0.873,2.938-0.856
	c3.376,0,5.064,2.083,5.064,6.25v9.494H129.032z"/>
<path fill="#5B6875" d="M144.416,324.909v-2.731h-0.061c-0.456,0.941-1.166,1.736-2.051,2.295c-0.881,0.546-1.9,0.828-2.938,0.811
	c-0.681,0.012-1.359-0.094-2.004-0.313c-0.567-0.188-1.089-0.492-1.53-0.895c-0.415-0.387-0.741-0.859-0.956-1.385
	c-0.233-0.567-0.351-1.176-0.345-1.79c-0.057-1.242,0.413-2.45,1.293-3.328c1.102-0.935,2.47-1.5,3.909-1.614l4.675-0.681
	c0-2.953-1.147-4.43-3.442-4.43c-1.849,0.019-3.624,0.719-4.988,1.966v-2.111c0.341-0.242,0.705-0.449,1.086-0.62
	c0.415-0.195,0.845-0.356,1.285-0.482c0.457-0.139,0.922-0.246,1.393-0.321c0.461-0.069,0.927-0.105,1.393-0.107
	c1.439-0.104,2.854,0.42,3.878,1.438c0.883,0.964,1.321,2.397,1.316,4.299v10.006L144.416,324.909z M140.447,317.442
	c-0.598,0.079-1.189,0.204-1.768,0.375c-0.443,0.124-0.858,0.332-1.224,0.612c-0.313,0.247-0.555,0.571-0.704,0.941
	c-0.161,0.446-0.236,0.918-0.222,1.392c-0.006,0.391,0.067,0.778,0.214,1.14c0.143,0.346,0.359,0.657,0.636,0.91
	c0.287,0.269,0.629,0.472,1.002,0.597c0.434,0.144,0.889,0.213,1.346,0.207c1.264,0.017,2.475-0.506,3.328-1.438
	c0.429-0.483,0.762-1.044,0.979-1.653c0.236-0.67,0.355-1.377,0.352-2.088v-1.53L140.447,317.442z"/>
<path fill="#5B6875" d="M158.57,311.467c-0.514-0.348-1.125-0.522-1.744-0.497c-0.467-0.009-0.928,0.093-1.347,0.298
	c-0.391,0.186-0.741,0.446-1.033,0.765c-0.311,0.342-0.568,0.729-0.765,1.147c-0.209,0.437-0.375,0.893-0.497,1.362
	c-0.123,0.467-0.213,0.942-0.268,1.423c-0.058,0.454-0.085,0.912-0.085,1.369v7.528h-1.912v-15.338h1.912v3.29h0.062
	c0.161-0.537,0.391-1.051,0.681-1.53c0.257-0.426,0.579-0.808,0.956-1.132c0.35-0.299,0.748-0.535,1.179-0.696
	c0.431-0.16,0.887-0.241,1.347-0.237c0.278-0.003,0.558,0.015,0.833,0.054c0.229,0.038,0.451,0.099,0.666,0.184L158.57,311.467z"/>
<path fill="#5B6875" d="M170.396,324.909l-7.076-7.497h-0.061v7.497h-1.928v-22.782h1.928v14.535h0.061l6.717-7.168h2.51
	l-7.215,7.436l7.78,7.948L170.396,324.909z"/>
<path fill="#5B6875" d="M14.757,400.697c0.373,0.291,0.772,0.547,1.193,0.765c0.432,0.212,0.88,0.392,1.339,0.536
	c0.45,0.145,0.91,0.258,1.377,0.336c0.438,0.068,0.88,0.104,1.323,0.107c1.291,0.094,2.578-0.236,3.664-0.941
	c0.822-0.656,1.276-1.672,1.217-2.723c0.01-0.512-0.087-1.02-0.283-1.492c-0.206-0.465-0.503-0.883-0.872-1.231
	c-0.473-0.416-0.985-0.785-1.53-1.102c-0.612-0.367-1.331-0.78-2.157-1.239c-0.813-0.435-1.605-0.91-2.371-1.423
	c-0.589-0.387-1.129-0.844-1.606-1.361c-0.4-0.447-0.712-0.967-0.918-1.53c-0.201-0.593-0.3-1.217-0.291-1.844
	c-0.013-0.816,0.176-1.623,0.551-2.348c0.379-0.691,0.9-1.293,1.53-1.768c0.666-0.502,1.418-0.88,2.218-1.117
	c0.879-0.265,1.791-0.396,2.709-0.39c1.449-0.041,2.894,0.198,4.253,0.704v2.211c-1.368-0.756-2.913-1.134-4.476-1.094
	c-0.611-0.004-1.221,0.073-1.813,0.229c-0.531,0.137-1.034,0.368-1.484,0.681c-0.417,0.294-0.763,0.678-1.01,1.125
	c-0.249,0.471-0.375,0.998-0.367,1.53c-0.01,0.496,0.073,0.988,0.245,1.454c0.178,0.428,0.438,0.818,0.765,1.147
	c0.438,0.413,0.923,0.773,1.446,1.071c0.597,0.359,1.323,0.765,2.188,1.224c0.81,0.427,1.597,0.896,2.356,1.408
	c0.614,0.407,1.177,0.887,1.675,1.43c0.424,0.463,0.764,0.996,1.003,1.576c0.227,0.594,0.338,1.225,0.328,1.859
	c0.019,0.858-0.162,1.709-0.527,2.486c-0.341,0.7-0.845,1.309-1.469,1.774c-0.691,0.498-1.47,0.862-2.295,1.071
	c-1.331,0.355-2.719,0.449-4.085,0.275c-0.481-0.054-0.959-0.133-1.431-0.237c-0.466-0.101-0.925-0.226-1.377-0.374
	c-0.369-0.117-0.724-0.275-1.056-0.475L14.757,400.697z"/>
<path fill="#5B6875" d="M37.37,404.217c-1.048,0.014-2.089-0.182-3.061-0.574c-0.873-0.365-1.655-0.916-2.295-1.614
	c-0.657-0.724-1.16-1.575-1.477-2.501c-0.347-1.041-0.518-2.133-0.505-3.229c-0.02-1.169,0.162-2.334,0.536-3.442
	c0.327-0.956,0.849-1.833,1.53-2.578c0.672-0.711,1.496-1.263,2.409-1.614c1.009-0.382,2.081-0.571,3.159-0.558
	c1.026-0.016,2.046,0.171,2.999,0.551c0.877,0.344,1.662,0.886,2.295,1.583c0.642,0.737,1.129,1.595,1.431,2.524
	c0.343,1.094,0.509,2.235,0.489,3.381c0.015,1.114-0.158,2.224-0.512,3.282c-0.336,0.942-0.855,1.809-1.53,2.547
	c-0.649,0.717-1.448,1.281-2.341,1.652C39.506,404.031,38.443,404.232,37.37,404.217z M37.524,389.773
	c-0.787-0.013-1.568,0.136-2.296,0.436c-0.671,0.287-1.27,0.721-1.751,1.27c-0.506,0.599-0.886,1.293-1.117,2.042
	c-0.272,0.89-0.403,1.816-0.391,2.746c-0.012,0.883,0.12,1.762,0.391,2.602c0.234,0.726,0.608,1.398,1.102,1.98
	c0.475,0.547,1.065,0.98,1.729,1.271c0.726,0.306,1.508,0.458,2.295,0.443c0.787,0.017,1.567-0.13,2.295-0.429
	c0.652-0.275,1.229-0.703,1.684-1.246c0.486-0.588,0.843-1.271,1.048-2.005c0.247-0.881,0.366-1.793,0.352-2.708
	c0.116-1.7-0.375-3.386-1.384-4.758C40.486,390.287,39.025,389.68,37.524,389.773z"/>
<path fill="#5B6875" d="M58.752,403.856v-2.616h-0.062c-0.868,1.879-2.781,3.053-4.85,2.977c-3.657,0-5.485-2.234-5.485-6.702v-9.05
	h1.92v8.683c-0.111,1.433,0.23,2.865,0.979,4.093c0.733,0.927,1.883,1.424,3.06,1.323c0.625,0.006,1.244-0.124,1.813-0.382
	c0.541-0.259,1.021-0.629,1.407-1.087c0.397-0.489,0.699-1.05,0.888-1.652c0.228-0.696,0.339-1.425,0.329-2.157v-8.797h1.928v15.391
	L58.752,403.856z"/>
<path fill="#5B6875" d="M72.216,403.673c-0.672,0.337-1.414,0.507-2.165,0.497c-2.479,0-3.726-1.43-3.726-4.299v-9.723h-2.7v-1.683
	h2.7v-3.871l1.928-0.635v4.506h3.963v1.683h-3.963v9.424c-0.063,0.786,0.113,1.572,0.505,2.257c0.43,0.497,1.075,0.755,1.729,0.688
	c0.617-0.006,1.219-0.194,1.729-0.543V403.673z"/>
<path fill="#5B6875" d="M85.741,403.856v-9.05c0.104-1.342-0.223-2.682-0.934-3.825c-0.71-0.854-1.791-1.311-2.899-1.224
	c-0.611,0.001-1.216,0.128-1.774,0.375c-0.562,0.253-1.063,0.624-1.469,1.086c-0.443,0.504-0.786,1.088-1.01,1.721
	c-0.263,0.736-0.39,1.514-0.375,2.295v8.615h-1.92v-22.767h1.904v10.052h0.062c1.013-1.905,3.015-3.075,5.171-3.022
	c1.452-0.096,2.866,0.489,3.825,1.583c0.862,1.051,1.293,2.604,1.293,4.659v9.509L85.741,403.856z"/>
<path fill="#5B6875" d="M114.934,403.856l-2.372-6.372h-9.241l-2.295,6.372h-2.218l8.2-21.55h2.012l8.163,21.55H114.934z
	 M108.37,386.078c-0.069-0.191-0.146-0.413-0.223-0.658c-0.079-0.281-0.141-0.567-0.184-0.856h-0.061
	c-0.062,0.321-0.13,0.604-0.199,0.856c-0.068,0.252-0.153,0.467-0.222,0.658l-3.488,9.585h7.895L108.37,386.078z"/>
<path fill="#5B6875" d="M127.38,382.896c-0.503-0.3-1.083-0.446-1.668-0.421c-1.805,0-2.708,1.176-2.708,3.527v2.463h3.825v1.683
	h-3.825v13.708h-1.92v-13.708h-2.692v-1.683h2.692v-2.578c-0.012-0.709,0.086-1.417,0.291-2.096
	c0.174-0.592,0.468-1.141,0.864-1.614c0.389-0.45,0.879-0.802,1.431-1.025c0.635-0.252,1.313-0.375,1.996-0.359
	c0.585-0.025,1.168,0.071,1.714,0.283V382.896z"/>
<path fill="#5B6875" d="M136.874,390.438c-0.514-0.349-1.125-0.523-1.745-0.497c-0.467-0.008-0.931,0.091-1.354,0.291
	c-0.387,0.188-0.734,0.448-1.025,0.765c-0.312,0.344-0.569,0.733-0.765,1.155c-0.208,0.435-0.374,0.889-0.497,1.354
	c-0.126,0.47-0.218,0.948-0.275,1.431c-0.051,0.455-0.077,0.912-0.077,1.37v7.528h-1.912v-15.369h1.912v3.328h0.054
	c0.166-0.536,0.397-1.05,0.688-1.53c0.256-0.424,0.579-0.804,0.956-1.125c0.703-0.604,1.598-0.938,2.524-0.941
	c0.279,0,0.559,0.02,0.834,0.062c0.229,0.034,0.452,0.095,0.666,0.184L136.874,390.438z"/>
<path fill="#5B6875" d="M140.584,384.579c-0.36,0.002-0.707-0.138-0.964-0.39c-0.269-0.26-0.415-0.621-0.405-0.995
	c-0.008-0.367,0.139-0.719,0.405-0.972c0.26-0.248,0.604-0.384,0.964-0.382c0.186-0.002,0.37,0.032,0.543,0.1
	c0.342,0.117,0.62,0.373,0.765,0.704c0.078,0.173,0.117,0.361,0.115,0.551c-0.001,0.186-0.037,0.371-0.107,0.543
	c-0.068,0.167-0.17,0.317-0.298,0.443c-0.13,0.122-0.28,0.221-0.444,0.291C140.976,384.546,140.781,384.582,140.584,384.579z
	 M139.635,403.856v-15.392h1.929v15.392H139.635z"/>
<path fill="#5B6875" d="M156.726,403.168c-1.265,0.719-2.699,1.086-4.154,1.063c-1.019,0.023-2.031-0.172-2.968-0.573
	c-0.862-0.373-1.632-0.93-2.257-1.63c-0.636-0.718-1.122-1.556-1.431-2.464c-0.335-0.984-0.503-2.02-0.497-3.06
	c-0.008-1.105,0.171-2.205,0.527-3.251c0.328-0.98,0.849-1.885,1.53-2.663c0.685-0.765,1.524-1.375,2.463-1.79
	c1.051-0.46,2.188-0.687,3.336-0.666c1.203-0.009,2.393,0.252,3.48,0.765v2.042c-1.071-0.729-2.338-1.118-3.634-1.117
	c-0.828-0.039-1.654,0.111-2.417,0.436c-0.696,0.334-1.31,0.817-1.798,1.415c-0.497,0.621-0.874,1.329-1.109,2.088
	c-0.262,0.818-0.391,1.673-0.383,2.532c-0.003,0.796,0.105,1.59,0.321,2.356c0.198,0.722,0.536,1.397,0.995,1.989
	c0.448,0.585,1.027,1.056,1.69,1.377c0.749,0.358,1.572,0.534,2.402,0.513c1.409,0.012,2.784-0.443,3.909-1.293L156.726,403.168z"/>
<path fill="#5B6875" d="M169.256,403.856v-2.739h-0.062c-0.459,0.939-1.168,1.734-2.05,2.296c-0.882,0.544-1.901,0.825-2.938,0.811
	c-0.684,0.009-1.363-0.097-2.012-0.313c-0.565-0.193-1.086-0.497-1.53-0.895c-0.416-0.392-0.744-0.866-0.964-1.393
	c-0.229-0.568-0.344-1.178-0.337-1.791c-0.061-1.242,0.409-2.451,1.293-3.327c1.104-0.93,2.471-1.494,3.909-1.614l4.674-0.673
	c0-2.953-1.147-4.437-3.442-4.437c-1.849,0.02-3.625,0.723-4.987,1.974v-2.104c0.341-0.244,0.704-0.454,1.086-0.627
	c0.418-0.188,0.847-0.35,1.285-0.482c0.458-0.132,0.923-0.237,1.393-0.313c0.46-0.075,0.926-0.114,1.393-0.115
	c1.441-0.104,2.856,0.424,3.878,1.446c0.878,0.964,1.316,2.397,1.316,4.299v10.006L169.256,403.856z M165.285,396.382
	c-0.6,0.08-1.193,0.206-1.774,0.375c-0.439,0.123-0.853,0.328-1.216,0.604c-0.313,0.25-0.557,0.576-0.704,0.949
	c-0.162,0.445-0.237,0.918-0.222,1.393c-0.005,0.39,0.068,0.777,0.214,1.139c0.134,0.338,0.337,0.643,0.597,0.896
	c0.293,0.265,0.637,0.464,1.01,0.589c0.433,0.15,0.889,0.223,1.347,0.215c0.646,0.008,1.285-0.126,1.874-0.391
	c0.566-0.252,1.072-0.623,1.484-1.086c0.429-0.483,0.761-1.045,0.979-1.652c0.238-0.671,0.357-1.377,0.353-2.089v-1.53
	L165.285,396.382z"/>
<path fill="#5B6875" d="M39.237,482.827v-10.113H27.479v10.113h-1.997v-21.572h1.997v9.661h11.758v-9.661h1.997v21.572H39.237z"/>
<path fill="#5B6875" d="M52.785,483.156c-1.048,0.019-2.089-0.174-3.061-0.565c-0.872-0.367-1.654-0.918-2.295-1.614
	c-0.68-0.718-1.201-1.569-1.53-2.502c-0.354-1.041-0.527-2.136-0.513-3.236c-0.018-1.169,0.163-2.333,0.536-3.442
	c0.328-0.952,0.849-1.827,1.53-2.57c0.672-0.713,1.495-1.268,2.409-1.622c1.01-0.379,2.081-0.565,3.159-0.551
	c1.025-0.014,2.044,0.171,2.999,0.544c0.878,0.346,1.663,0.891,2.295,1.591c0.645,0.734,1.132,1.594,1.431,2.524
	c0.343,1.094,0.509,2.235,0.49,3.382c0.014,1.114-0.159,2.224-0.513,3.281c-0.318,0.94-0.823,1.807-1.484,2.548
	c-0.649,0.716-1.448,1.28-2.341,1.652C54.91,482.975,53.851,483.173,52.785,483.156z M52.938,468.721
	c-0.786-0.013-1.567,0.136-2.295,0.437c-0.673,0.284-1.271,0.719-1.752,1.27c-0.509,0.597-0.889,1.292-1.116,2.043
	c-0.272,0.887-0.404,1.811-0.391,2.738c-0.013,0.883,0.119,1.761,0.391,2.602c0.234,0.717,0.606,1.382,1.094,1.958
	c0.473,0.552,1.067,0.986,1.736,1.27c0.726,0.307,1.508,0.458,2.295,0.444c0.787,0.021,1.568-0.126,2.295-0.429
	c0.654-0.275,1.234-0.703,1.69-1.247c0.482-0.589,0.837-1.271,1.041-2.004c0.248-0.879,0.366-1.788,0.352-2.701
	c0-2.072-0.459-3.664-1.385-4.758c-0.999-1.129-2.467-1.729-3.97-1.622H52.938z"/>
<path fill="#5B6875" d="M74.473,482.827v-8.896c0-3.474-1.263-5.21-3.787-5.21c-0.644-0.007-1.281,0.129-1.866,0.398
	c-0.57,0.261-1.08,0.636-1.5,1.102c-0.423,0.494-0.752,1.063-0.971,1.675c-0.24,0.673-0.359,1.382-0.353,2.097v8.835h-1.912v-15.414
	h1.928v2.67h0.062c0.97-1.939,2.981-3.135,5.148-3.061c1.461-0.087,2.878,0.52,3.824,1.638c0.969,1.381,1.436,3.052,1.324,4.735
	v9.432H74.473z"/>
<path fill="#5B6875" d="M93.705,481.611c0,2.851-0.65,4.967-1.951,6.35c-1.293,1.377-3.297,2.065-5.998,2.065
	c-1.659,0.006-3.298-0.38-4.781-1.125v-1.95c1.45,0.861,3.096,1.341,4.781,1.392c4.02,0,6.026-2.124,6.021-6.372v-1.844h-0.061
	c-1.066,1.974-3.168,3.162-5.409,3.061c-0.894,0.014-1.78-0.164-2.601-0.521c-0.783-0.35-1.477-0.873-2.027-1.53
	c-0.588-0.711-1.032-1.529-1.308-2.409c-0.319-1.038-0.475-2.12-0.459-3.206c-0.016-1.168,0.149-2.332,0.489-3.45
	c0.298-0.972,0.778-1.878,1.415-2.67c0.6-0.734,1.358-1.322,2.219-1.721c0.917-0.416,1.915-0.622,2.922-0.604
	c1.964-0.115,3.817,0.912,4.759,2.64H91.8v-2.295h1.928L93.705,481.611z M91.8,473.456c0.004-0.623-0.113-1.241-0.345-1.82
	c-0.219-0.567-0.546-1.087-0.964-1.53c-0.414-0.435-0.91-0.783-1.461-1.025c-0.589-0.262-1.229-0.393-1.874-0.382
	c-0.75-0.012-1.493,0.147-2.173,0.467c-0.645,0.309-1.21,0.762-1.652,1.323c-0.479,0.62-0.835,1.326-1.048,2.08
	c-0.256,0.896-0.38,1.823-0.367,2.755c-0.011,0.863,0.105,1.725,0.344,2.555c0.201,0.701,0.533,1.358,0.979,1.936
	c0.408,0.523,0.932,0.944,1.53,1.231c0.621,0.296,1.301,0.445,1.989,0.437c0.712,0.01,1.419-0.131,2.072-0.413
	c0.609-0.261,1.155-0.649,1.6-1.141c0.435-0.494,0.77-1.068,0.986-1.69c0.247-0.682,0.369-1.401,0.359-2.127L91.8,473.456z"/>
<path fill="#5B6875" d="M118.628,482.827l-8.759-10.082c-0.169-0.194-0.324-0.398-0.467-0.612h-0.062v10.71h-1.996v-21.588h1.996
	v10.136h0.054c0.07-0.109,0.146-0.214,0.229-0.313l0.253-0.313l8.415-9.509h2.539l-9.371,10.396l9.945,11.146L118.628,482.827z"/>
<path fill="#5B6875" d="M129.912,483.156c-1.048,0.019-2.089-0.174-3.061-0.565c-0.871-0.367-1.654-0.918-2.295-1.614
	c-0.658-0.723-1.158-1.575-1.469-2.502c-0.354-1.041-0.527-2.136-0.512-3.236c-0.017-1.17,0.167-2.334,0.543-3.442
	c0.324-0.954,0.846-1.83,1.529-2.57c0.673-0.713,1.496-1.268,2.41-1.621c1.01-0.38,2.081-0.566,3.159-0.552
	c1.028-0.014,2.049,0.171,3.007,0.544c0.877,0.346,1.663,0.891,2.295,1.591c0.647,0.732,1.135,1.593,1.431,2.524
	c0.346,1.094,0.514,2.235,0.497,3.382c0.012,1.115-0.164,2.225-0.521,3.281c-0.318,0.94-0.823,1.807-1.483,2.548
	c-0.648,0.718-1.448,1.282-2.341,1.652C132.09,482.985,131.004,483.183,129.912,483.156z M130.066,468.721
	c-0.787-0.012-1.567,0.137-2.295,0.437c-0.672,0.282-1.27,0.717-1.745,1.27c-0.514,0.595-0.896,1.29-1.124,2.043
	c-0.272,0.887-0.403,1.811-0.391,2.738c-0.012,0.883,0.12,1.761,0.391,2.602c0.234,0.728,0.611,1.4,1.109,1.98
	c0.47,0.556,1.065,0.99,1.736,1.271c1.474,0.587,3.116,0.587,4.59,0c0.651-0.278,1.228-0.705,1.684-1.247
	c0.481-0.589,0.836-1.271,1.04-2.004c0.248-0.879,0.366-1.788,0.352-2.701c0.116-1.698-0.372-3.384-1.377-4.758
	c-1.003-1.133-2.476-1.734-3.985-1.63H130.066z"/>
<path fill="#5B6875" d="M151.615,482.827v-8.896c0-3.474-1.263-5.21-3.787-5.21c-0.644-0.007-1.281,0.129-1.866,0.398
	c-0.562,0.264-1.063,0.638-1.477,1.102c-0.429,0.491-0.761,1.06-0.979,1.675c-0.239,0.673-0.358,1.382-0.352,2.097v8.835h-1.928
	v-15.414h1.928v2.67h0.062c0.972-1.938,2.981-3.133,5.148-3.061c1.461-0.087,2.878,0.52,3.824,1.638
	c0.969,1.381,1.436,3.052,1.324,4.735v9.432H151.615z"/>
<path fill="#5B6875" d="M170.848,481.611c0,2.851-0.648,4.967-1.943,6.35c-1.296,1.382-3.297,2.07-6.006,2.065
	c-1.659,0.005-3.297-0.38-4.781-1.125v-1.95c1.45,0.861,3.096,1.341,4.781,1.392c4.02,0,6.026-2.124,6.021-6.372v-1.844h-0.053
	c-1.069,1.971-3.169,3.159-5.409,3.061c-0.896,0.015-1.786-0.163-2.608-0.521c-0.783-0.35-1.477-0.873-2.027-1.53
	c-0.588-0.71-1.029-1.528-1.301-2.409c-0.325-1.037-0.482-2.119-0.466-3.206c-0.017-1.169,0.15-2.333,0.497-3.45
	c0.292-0.973,0.77-1.879,1.407-2.67c0.602-0.732,1.359-1.32,2.219-1.721c0.917-0.415,1.915-0.621,2.922-0.604
	c1.966-0.117,3.822,0.911,4.767,2.64h0.053v-2.295h1.929V481.611z M168.919,473.456c0.008-1.234-0.458-2.425-1.3-3.327
	c-0.419-0.434-0.918-0.782-1.469-1.025c-0.587-0.263-1.225-0.393-1.867-0.383c-0.75-0.013-1.493,0.146-2.172,0.467
	c-0.647,0.305-1.214,0.759-1.653,1.323c-0.484,0.618-0.843,1.325-1.056,2.081c-0.256,0.896-0.379,1.823-0.367,2.754
	c-0.01,0.864,0.105,1.725,0.345,2.555c0.201,0.702,0.533,1.358,0.979,1.936c0.408,0.523,0.932,0.945,1.529,1.232
	c0.621,0.295,1.302,0.444,1.989,0.436c0.715,0.01,1.424-0.131,2.081-0.413c0.604-0.263,1.147-0.651,1.591-1.14
	c0.448-0.499,0.794-1.081,1.018-1.714c0.247-0.682,0.368-1.401,0.359-2.127L168.919,473.456z"/>
<path fill="#5B6875" d="M18.016,553.085c0,6.028-2.645,9.04-7.934,9.035c-5.038,0-7.558-2.899-7.558-8.698v-13.22h1.996v13.005
	c0,2.364,0.482,4.132,1.431,5.31c0.949,1.178,2.426,1.752,4.422,1.752c3.764,0,5.646-2.282,5.646-6.847v-13.22h1.997V553.085z"/>
<path fill="#5B6875" d="M33.377,561.745v-8.866c0-3.474-1.263-5.218-3.825-5.218c-1.285-0.008-2.509,0.553-3.343,1.53
	c-0.424,0.484-0.751,1.045-0.964,1.652c-0.241,0.672-0.36,1.382-0.353,2.096v8.806h-1.904V546.36h1.928v2.67h0.061
	c0.974-1.936,2.983-3.13,5.148-3.06c1.463-0.085,2.881,0.524,3.825,1.645c0.97,1.378,1.437,3.047,1.323,4.728v9.379L33.377,561.745z
	"/>
<path fill="#5B6875" d="M40.843,542.497c-0.752,0.005-1.365-0.602-1.369-1.354c0-0.01,0-0.021,0-0.03
	c-0.008-0.367,0.14-0.72,0.405-0.972c0.259-0.249,0.605-0.387,0.964-0.383c0.186,0.002,0.369,0.035,0.544,0.1
	c0.342,0.117,0.619,0.372,0.765,0.704c0.077,0.173,0.116,0.36,0.114,0.551c0,0.186-0.036,0.37-0.106,0.543
	c-0.071,0.165-0.173,0.315-0.299,0.443c-0.131,0.12-0.281,0.219-0.443,0.291C41.236,542.465,41.04,542.501,40.843,542.497z
	 M39.895,561.775V546.36h1.928v15.385L39.895,561.775z"/>
<path fill="#5B6875" d="M53.359,561.562c-0.671,0.337-1.414,0.507-2.165,0.497c-2.483,0-3.726-1.434-3.726-4.3v-9.715h-2.7v-1.684
	h2.7v-3.863l1.92-0.635v4.514h3.971v1.683h-3.971v9.418c-0.069,0.799,0.109,1.601,0.513,2.295c0.431,0.497,1.075,0.754,1.729,0.688
	c0.617-0.003,1.221-0.192,1.729-0.543V561.562z"/>
<path fill="#5B6875" d="M57.176,554.394c-0.003,0.86,0.124,1.717,0.375,2.539c0.211,0.701,0.563,1.353,1.032,1.913
	c0.452,0.52,1.018,0.929,1.653,1.193c0.69,0.285,1.433,0.425,2.18,0.413c1.795-0.026,3.526-0.669,4.903-1.82v1.896
	c-1.572,1.079-3.447,1.632-5.354,1.576c-0.963,0.012-1.918-0.174-2.808-0.543c-0.825-0.337-1.561-0.861-2.149-1.53
	c-0.621-0.744-1.087-1.604-1.369-2.532c-0.331-1.111-0.491-2.268-0.475-3.427c-0.013-1.088,0.163-2.17,0.521-3.198
	c0.325-0.932,0.82-1.796,1.461-2.547c0.609-0.712,1.363-1.285,2.211-1.684c0.872-0.411,1.827-0.621,2.792-0.611
	c0.904-0.017,1.802,0.16,2.632,0.52c0.746,0.335,1.402,0.845,1.912,1.484c0.547,0.693,0.947,1.489,1.178,2.341
	c0.281,0.995,0.418,2.026,0.406,3.06v0.957H57.176z M66.31,552.71c0.053-1.335-0.349-2.648-1.14-3.726
	c-0.758-0.894-1.89-1.383-3.06-1.323c-0.622-0.007-1.239,0.113-1.813,0.352c-0.55,0.228-1.048,0.566-1.461,0.995
	c-0.439,0.465-0.794,1.004-1.048,1.591c-0.288,0.674-0.481,1.385-0.574,2.111H66.31z"/>
<path fill="#5B6875" d="M82.826,561.745v-2.708h-0.062c-0.486,0.964-1.248,1.762-2.188,2.295c-0.988,0.531-2.099,0.795-3.221,0.765
	c-0.903,0.014-1.798-0.169-2.624-0.535c-0.782-0.347-1.474-0.87-2.02-1.53c-0.588-0.719-1.029-1.545-1.301-2.433
	c-0.319-1.049-0.475-2.14-0.459-3.236c-0.013-1.151,0.157-2.298,0.505-3.396c0.301-0.965,0.784-1.863,1.423-2.646
	c0.608-0.727,1.368-1.312,2.227-1.714c0.906-0.416,1.895-0.625,2.892-0.612c1.976-0.136,3.846,0.909,4.766,2.662h0.062v-9.692h1.92
	v22.782H82.826z M82.826,552.458c0.006-0.644-0.111-1.282-0.344-1.882c-0.222-0.567-0.549-1.086-0.964-1.53
	c-0.42-0.438-0.926-0.784-1.484-1.018c-0.599-0.259-1.245-0.389-1.897-0.383c-0.726-0.006-1.444,0.147-2.104,0.452
	c-0.642,0.301-1.204,0.745-1.645,1.3c-0.482,0.616-0.846,1.316-1.071,2.065c-0.266,0.899-0.396,1.833-0.383,2.77
	c-0.012,0.884,0.104,1.766,0.345,2.616c0.201,0.707,0.536,1.369,0.986,1.951c0.411,0.516,0.935,0.932,1.53,1.216
	c0.615,0.288,1.287,0.432,1.966,0.421c0.726,0.013,1.446-0.131,2.111-0.421c0.606-0.268,1.149-0.661,1.592-1.155
	c0.444-0.506,0.787-1.093,1.01-1.729c0.234-0.682,0.354-1.397,0.352-2.119V552.458z"/>
<path fill="#5B6875" d="M97.553,558.563c0.371,0.294,0.771,0.551,1.193,0.765c0.857,0.416,1.77,0.709,2.708,0.872
	c0.438,0.068,0.88,0.104,1.323,0.107c1.292,0.095,2.578-0.235,3.664-0.94c0.828-0.654,1.284-1.671,1.225-2.724
	c0.03-1.022-0.403-2.004-1.179-2.67c-0.469-0.424-0.981-0.795-1.529-1.109c-0.612-0.367-1.331-0.765-2.165-1.239
	c-0.809-0.451-1.592-0.944-2.349-1.477c-0.591-0.385-1.13-0.843-1.606-1.361c-0.405-0.443-0.718-0.964-0.918-1.53
	c-0.208-0.592-0.31-1.217-0.299-1.844c-0.01-0.816,0.182-1.624,0.559-2.349c0.379-0.69,0.9-1.293,1.53-1.767
	c0.659-0.491,1.399-0.861,2.188-1.095c0.881-0.265,1.796-0.396,2.716-0.39c1.45-0.04,2.894,0.198,4.254,0.703v2.211
	c-1.372-0.752-2.919-1.129-4.483-1.094c-0.609-0.004-1.216,0.073-1.806,0.229c-0.546,0.135-1.063,0.365-1.529,0.681
	c-0.413,0.297-0.756,0.681-1.002,1.125c-0.25,0.471-0.376,0.997-0.367,1.53c-0.015,0.495,0.068,0.989,0.244,1.453
	c0.176,0.43,0.436,0.82,0.766,1.147c0.438,0.413,0.923,0.773,1.445,1.071c0.589,0.359,1.323,0.765,2.181,1.231
	c0.812,0.425,1.601,0.892,2.363,1.4c0.613,0.409,1.176,0.889,1.676,1.43c0.425,0.461,0.762,0.995,0.994,1.576
	c0.229,0.593,0.344,1.224,0.337,1.859c0.018,0.858-0.163,1.709-0.528,2.486c-0.341,0.702-0.848,1.312-1.476,1.774
	c-0.676,0.495-1.439,0.858-2.25,1.071c-0.936,0.246-1.9,0.367-2.868,0.359c-0.409-0.006-0.818-0.034-1.225-0.084
	c-0.951-0.109-1.889-0.314-2.8-0.612c-0.369-0.116-0.724-0.275-1.056-0.475L97.553,558.563z"/>
<path fill="#5B6875" d="M119.486,561.562c-0.669,0.337-1.409,0.507-2.157,0.497c-2.484,0-3.729-1.434-3.733-4.3v-9.715h-2.67v-1.684
	h2.7v-3.863l1.928-0.635v4.514h3.963v1.683h-4.001v9.418c-0.074,0.8,0.105,1.603,0.513,2.295c0.429,0.499,1.074,0.757,1.729,0.688
	c0.615-0.004,1.216-0.193,1.722-0.543L119.486,561.562z"/>
<path fill="#5B6875" d="M131.495,561.745v-2.739h-0.061c-0.46,0.939-1.169,1.733-2.051,2.295c-0.882,0.545-1.9,0.826-2.938,0.812
	c-0.681,0.009-1.358-0.098-2.004-0.313c-0.565-0.192-1.086-0.496-1.53-0.896c-0.417-0.39-0.746-0.864-0.964-1.393
	c-0.229-0.568-0.344-1.177-0.337-1.79c-0.059-1.242,0.411-2.451,1.293-3.327c1.105-0.93,2.471-1.494,3.909-1.614l4.675-0.674
	c0-2.952-1.147-4.437-3.442-4.437c-1.85,0.021-3.626,0.723-4.988,1.974v-2.104c0.341-0.244,0.705-0.454,1.086-0.628
	c0.418-0.188,0.848-0.349,1.285-0.481c0.458-0.133,0.923-0.237,1.393-0.313c0.461-0.075,0.926-0.114,1.393-0.115
	c1.441-0.104,2.856,0.424,3.879,1.446c0.882,0.964,1.32,2.396,1.315,4.299v10.007L131.495,561.745z M127.526,554.278
	c-0.601,0.08-1.193,0.205-1.775,0.375c-0.439,0.123-0.853,0.328-1.216,0.604c-0.313,0.249-0.556,0.576-0.704,0.948
	c-0.162,0.446-0.237,0.919-0.222,1.393c-0.005,0.391,0.068,0.777,0.214,1.14c0.14,0.346,0.354,0.657,0.628,0.91
	c0.294,0.264,0.637,0.467,1.01,0.597c0.434,0.145,0.889,0.214,1.346,0.207c1.278,0.015,2.502-0.521,3.358-1.469
	c0.428-0.487,0.76-1.051,0.979-1.66c0.238-0.671,0.357-1.377,0.353-2.089v-1.529L127.526,554.278z"/>
<path fill="#5B6875" d="M144.623,561.562c-0.669,0.337-1.409,0.507-2.157,0.497c-2.483,0-3.729-1.434-3.733-4.3v-9.715h-2.7v-1.684
	h2.7v-3.863l1.928-0.635v4.514h3.963v1.683h-3.963v9.418c-0.074,0.8,0.105,1.603,0.513,2.295c0.429,0.499,1.074,0.757,1.729,0.688
	c0.615-0.004,1.216-0.193,1.722-0.543V561.562z"/>
<path fill="#5B6875" d="M148.41,554.394c0.001,0.86,0.127,1.716,0.374,2.539c0.214,0.702,0.568,1.353,1.041,1.913
	c0.449,0.518,1.013,0.927,1.645,1.193c0.693,0.284,1.438,0.425,2.188,0.413c1.798-0.023,3.533-0.667,4.912-1.821v1.897
	c-1.572,1.082-3.448,1.634-5.355,1.576c-0.963,0.012-1.918-0.173-2.808-0.543c-0.825-0.337-1.561-0.861-2.149-1.53
	c-0.624-0.742-1.09-1.604-1.369-2.532c-0.338-1.11-0.5-2.267-0.482-3.427c-0.01-1.089,0.168-2.171,0.528-3.198
	c0.323-0.932,0.815-1.795,1.453-2.547c0.611-0.71,1.364-1.283,2.211-1.684c0.873-0.412,1.827-0.621,2.792-0.612
	c0.904-0.017,1.802,0.161,2.632,0.521c0.749,0.335,1.407,0.844,1.92,1.484c0.541,0.696,0.941,1.491,1.179,2.341
	c0.276,0.996,0.413,2.026,0.405,3.06v0.957H148.41z M157.59,552.71c0.054-1.336-0.352-2.65-1.147-3.726
	c-0.756-0.897-1.889-1.388-3.061-1.323c-0.621-0.007-1.238,0.113-1.813,0.352c-0.554,0.226-1.055,0.564-1.469,0.995
	c-0.438,0.466-0.789,1.004-1.041,1.591c-0.287,0.675-0.482,1.385-0.581,2.111H157.59z"/>
<path fill="#5B6875" d="M162.433,558.983c0.297,0.231,0.614,0.437,0.948,0.612c0.337,0.182,0.688,0.338,1.048,0.466
	c0.355,0.13,0.722,0.228,1.094,0.291c0.343,0.065,0.691,0.099,1.041,0.1c2.29,0,3.432-0.856,3.427-2.57
	c0.007-0.352-0.074-0.698-0.237-1.01c-0.18-0.298-0.416-0.558-0.696-0.766c-0.335-0.254-0.696-0.472-1.078-0.649
	c-0.421-0.199-0.896-0.413-1.431-0.636c-0.632-0.251-1.245-0.545-1.836-0.88c-0.461-0.27-0.883-0.602-1.255-0.986
	c-0.329-0.336-0.59-0.733-0.765-1.171c-0.166-0.466-0.246-0.958-0.237-1.453c-0.013-0.635,0.141-1.263,0.443-1.82
	c0.293-0.532,0.701-0.992,1.193-1.347c0.53-0.386,1.127-0.671,1.76-0.842c0.67-0.2,1.366-0.301,2.065-0.298
	c1.207-0.024,2.402,0.238,3.488,0.765v2.027c-1.107-0.73-2.406-1.118-3.732-1.117c-0.443-0.005-0.884,0.058-1.309,0.184
	c-0.368,0.106-0.713,0.28-1.018,0.513c-0.271,0.204-0.492,0.465-0.65,0.765c-0.151,0.307-0.228,0.646-0.222,0.987
	c-0.008,0.343,0.055,0.685,0.184,1.002c0.127,0.294,0.317,0.555,0.559,0.766c0.305,0.26,0.638,0.483,0.994,0.665
	c0.406,0.207,0.903,0.437,1.477,0.673c0.66,0.261,1.304,0.56,1.928,0.896c0.49,0.257,0.94,0.581,1.339,0.964
	c0.334,0.326,0.595,0.72,0.766,1.155c0.176,0.472,0.262,0.973,0.252,1.477c0.016,0.644-0.132,1.28-0.429,1.852
	c-0.284,0.541-0.69,1.01-1.186,1.369c-0.539,0.384-1.143,0.669-1.782,0.841c-0.723,0.195-1.47,0.291-2.219,0.283
	c-1.374,0.049-2.734-0.29-3.924-0.979V558.983z"/>
<line fill="none" stroke="#CECFD1" stroke-width="2.5143" stroke-miterlimit="10" x1="204.171" y1="258.95" x2="204.171" y2="601.318"/>
</svg>
