<?xml version="1.0" encoding="utf-8"?>
<!-- Generator: Adobe Illustrator 16.0.0, SVG Export Plug-In . SVG Version: 6.00 Build 0)  -->
<!DOCTYPE svg PUBLIC "-//W3C//DTD SVG 1.1//EN" "http://www.w3.org/Graphics/SVG/1.1/DTD/svg11.dtd">
<svg version="1.1" id="Layer_1" xmlns="http://www.w3.org/2000/svg" xmlns:xlink="http://www.w3.org/1999/xlink" x="0px" y="0px"
	 width="300px" height="300px" viewBox="0 0 300 300" enable-background="new 0 0 300 300" xml:space="preserve">
<line fill="none" stroke="#CECFD1" stroke-width="2.0318" stroke-miterlimit="10" x1="25.834" y1="210.31" x2="295.698" y2="210.31"/>
<line fill="none" stroke="#CECFD1" stroke-width="2.0318" stroke-miterlimit="10" x1="25.834" y1="174.722" x2="295.698" y2="174.722"/>
<line fill="none" stroke="#CECFD1" stroke-width="2.0318" stroke-miterlimit="10" x1="25.834" y1="139.134" x2="295.698" y2="139.134"/>
<line fill="none" stroke="#CECFD1" stroke-width="2.0318" stroke-miterlimit="10" x1="25.834" y1="103.547" x2="295.698" y2="103.547"/>
<line fill="none" stroke="#CECFD1" stroke-width="2.0318" stroke-miterlimit="10" x1="25.834" y1="67.959" x2="295.698" y2="67.959"/>
<line fill="none" stroke="#CECFD1" stroke-width="2.0318" stroke-miterlimit="10" x1="25.834" y1="32.372" x2="295.698" y2="32.372"/>
<path fill="#5B6875" d="M14.805,250.352c-2.733,0-4.215-2.25-4.215-6c0-3.611,1.5-5.898,4.162-5.898c2.753,0,4.283,2.25,4.283,5.951
	S17.524,250.352,14.805,250.352z M14.823,239.375c-2.1,0-3.098,1.774-3.098,5.107c0,3.132,1.065,4.939,3.061,4.939
	s3.116-1.808,3.116-5.006c0-3.199-1.05-5.037-3.079-5.037V239.375z"/>
<path fill="#5B6875" d="M14.373,214.951c-2.114,0-3.146-1.049-3.213-1.125l0.547-0.75c0.729,0.567,1.62,0.883,2.543,0.9
	c1.808,0,2.943-1.05,2.943-2.768c0-1.462-0.964-2.752-2.91-2.752c-0.719-0.006-1.425,0.185-2.044,0.551l-0.517-0.33v-5.399h6.143
	v0.93h-5.074v3.63c0.546-0.248,1.14-0.376,1.74-0.375c2.441,0,3.783,1.5,3.783,3.648C18.315,213.471,16.661,214.951,14.373,214.951z
	"/>
<path fill="#5B6875" d="M7.038,179.338v-10.182l-2.819,1.909l-0.585-0.81l3.577-2.404h0.911v11.472L7.038,179.338z"/>
<path fill="#5B6875" d="M17.19,179.545c-2.733,0-4.215-2.25-4.215-6c0-3.611,1.5-5.899,4.163-5.899c2.752,0,4.282,2.25,4.282,5.951
	S19.908,179.545,17.19,179.545z M17.19,168.572c-2.1,0-3.098,1.77-3.098,5.107c0,3.131,1.065,4.935,3.061,4.935
	s3.116-1.804,3.116-5.003c0-3.198-1.031-5.039-3.06-5.039H17.19z"/>
<path fill="#5B6875" d="M7.038,143.935V133.75l-2.819,1.913l-0.585-0.81l3.577-2.389h0.911v11.472H7.038z"/>
<path fill="#5B6875" d="M16.759,144.141c-2.115,0-3.146-1.05-3.214-1.125l0.547-0.75c0.73,0.564,1.624,0.877,2.547,0.893
	c1.808,0,2.943-1.046,2.943-2.768c0-1.462-0.964-2.752-2.91-2.752c-0.72-0.006-1.428,0.184-2.047,0.551l-0.514-0.337v-5.4h6.139
	v0.926h-5.074v3.63c0.547-0.248,1.14-0.375,1.74-0.375c2.441,0,3.784,1.5,3.784,3.645C20.7,142.659,19.046,144.141,16.759,144.141z"
	/>
<path fill="#5B6875" d="M3.428,108.531v-0.912c0.104-0.105,1.5-1.41,2.34-2.25c2.354-2.355,3.375-3.664,3.375-5.16
	c0-1.497-0.893-2.396-2.393-2.396c-0.979,0.054-1.914,0.422-2.666,1.05L3.48,98.21c0.911-0.89,2.136-1.384,3.409-1.376
	c2.081,0,3.42,1.256,3.42,3.285c0,1.961-1.563,3.597-3.165,5.194c-0.858,0.859-2.269,2.25-2.269,2.25h5.52v0.964L3.428,108.531z"/>
<path fill="#5B6875" d="M17.19,108.737c-2.733,0-4.215-2.25-4.215-6c0-3.611,1.5-5.899,4.163-5.899c2.752,0,4.282,2.25,4.282,5.952
	C21.42,106.491,19.908,108.737,17.19,108.737z M17.19,97.764c-2.1,0-3.098,1.77-3.098,5.108c0,3.131,1.065,4.935,3.061,4.935
	s3.116-1.804,3.116-5.006c0-3.203-1.031-5.037-3.06-5.037H17.19z"/>
<path fill="#5B6875" d="M3.428,73.127v-0.9c0.104-0.105,1.5-1.414,2.34-2.25c2.354-2.359,3.375-3.664,3.375-5.16
	S8.25,62.409,6.75,62.409c-0.979,0.054-1.914,0.422-2.666,1.05L3.48,62.807c0.911-0.89,2.136-1.384,3.409-1.376
	c2.081,0,3.42,1.256,3.42,3.285c0,1.961-1.563,3.592-3.165,5.193c-0.858,0.859-2.269,2.25-2.269,2.25h5.52v0.964L3.428,73.127z"/>
<path fill="#5B6875" d="M16.759,73.352c-2.115,0-3.146-1.05-3.214-1.125l0.547-0.75c0.73,0.564,1.624,0.877,2.547,0.892
	c1.808,0,2.943-1.05,2.943-2.767c0-1.463-0.964-2.752-2.91-2.752c-0.718-0.012-1.426,0.172-2.047,0.532l-0.518-0.326v-5.404h6.143
	v0.93h-5.074v3.645c0.547-0.249,1.14-0.376,1.74-0.375c2.441,0,3.784,1.5,3.784,3.648C20.7,71.852,19.046,73.352,16.759,73.352z"/>
<path fill="#5B6875" d="M6.525,37.929c-2.25,0-3.232-1.05-3.375-1.222l0.601-0.705c0.72,0.623,1.644,0.959,2.595,0.945
	c1.74,0,2.892-0.859,2.892-2.321c-0.021-0.561-0.248-1.095-0.638-1.5c-0.634-0.634-1.41-0.806-3.026-0.806H5.4v-0.967h0.293
	c1.103,0,2.066-0.049,2.82-0.807c0.368-0.382,0.567-0.897,0.551-1.429c0-1.237-0.911-2.115-2.441-2.115
	c-0.984,0.027-1.928,0.399-2.666,1.05l-0.581-0.686c0.9-0.857,2.095-1.337,3.337-1.343c2.149,0,3.458,1.256,3.458,3.064
	c0,1.271-0.791,2.546-2.25,2.734c1.422,0.098,2.506,1.313,2.441,2.737C10.342,36.673,8.674,37.929,6.525,37.929z"/>
<path fill="#5B6875" d="M17.19,37.929c-2.733,0-4.215-2.25-4.215-6c0-3.615,1.5-5.902,4.163-5.902c2.752,0,4.282,2.25,4.282,5.951
	S19.908,37.929,17.19,37.929z M17.19,26.953c-2.1,0-3.098,1.774-3.098,5.107c0,3.131,1.065,4.939,3.061,4.939
	s3.116-1.808,3.116-5.006s-1.031-5.04-3.06-5.04H17.19z"/>
<rect x="230.955" y="31.976" fill="#002664" width="21.502" height="211.381"/>
<rect x="156" y="103.547" fill="#CECFD1" width="21.502" height="139.811"/>
<rect x="81.041" y="174.722" fill="#CECFD1" width="21.503" height="68.633"/>
<g>
	<path fill="#5B6875" d="M208.369,265.967c-1.224,0.01-2.409-0.424-3.337-1.223l0.57-0.791c0.771,0.615,1.715,0.975,2.699,1.031
		c1.684,0,2.58-0.945,2.58-2.303c-0.005-0.508-0.216-0.992-0.585-1.342c-1.031-1.035-3.098-1.29-4.268-2.461
		c-0.467-0.51-0.713-1.184-0.686-1.875c0-1.701,1.357-2.943,3.375-2.943s3.045,1.125,3.149,1.223l-0.585,0.689
		c-0.673-0.625-1.56-0.969-2.479-0.963c-1.425,0-2.407,0.824-2.407,1.977c-0.006,0.447,0.175,0.878,0.498,1.188
		c0.945,0.944,3.098,1.219,4.215,2.34c0.578,0.536,0.905,1.289,0.904,2.077C212.015,264.516,210.762,265.967,208.369,265.967z"/>
	<path fill="#5B6875" d="M220.771,261.816h-5.913c0,1.822,0.979,3.131,2.835,3.131c0.843-0.004,1.67-0.236,2.393-0.672l0.465,0.791
		c-0.879,0.561-1.901,0.854-2.944,0.844c-2.407,0-3.817-1.754-3.817-4.248c0-2.666,1.5-4.388,3.769-4.388
		c1.909,0,3.252,1.448,3.252,3.99C220.809,261.352,220.79,261.644,220.771,261.816z M217.573,258.152
		c-1.425,0-2.58,1.068-2.682,2.786h4.875C219.759,259.72,219.189,258.152,217.573,258.152z"/>
	<path fill="#5B6875" d="M225.643,265.91c-0.655,0.015-1.303-0.146-1.875-0.465v3.957h-1.031V257.48h0.979v0.57
		c0.689-0.502,1.521-0.774,2.373-0.776c2.168,0,3.611,1.669,3.611,4.163C229.715,264.092,228.031,265.91,225.643,265.91z
		 M225.984,258.186c-0.806,0.027-1.582,0.312-2.216,0.811v5.471c0.557,0.365,1.209,0.557,1.875,0.552
		c1.788,0,2.977-1.429,2.977-3.597C228.635,259.494,227.551,258.186,225.984,258.186L225.984,258.186z"/>
	<path fill="#5B6875" d="M234.432,265.926c-0.624,0.051-1.24-0.162-1.702-0.585c-0.483-0.479-0.483-1.125-0.483-2.13v-4.875h-1.444
		v-0.844h1.444v-2.34h1.031v2.34h2.651v0.844h-2.651v4.668c0,1.125-0.083,1.996,1.29,1.996c0.419-0.016,0.833-0.104,1.223-0.26
		l0.277,0.792C235.564,265.798,235.001,265.934,234.432,265.926z"/>
	<path fill="#5B6875" d="M244.186,261.816h-5.917c0,1.822,0.979,3.131,2.839,3.131c0.842-0.004,1.667-0.236,2.389-0.672l0.469,0.791
		c-0.878,0.561-1.899,0.854-2.94,0.844c-2.407,0-3.821-1.754-3.821-4.248c0-2.666,1.5-4.388,3.769-4.388
		c1.909,0,3.252,1.448,3.252,3.99C244.22,261.352,244.201,261.644,244.186,261.816z M240.988,258.152
		c-1.429,0-2.58,1.068-2.686,2.786h4.875C243.17,259.72,242.604,258.152,240.988,258.152z"/>
	<path fill="#5B6875" d="M256.4,265.738v-4.92c0-0.446,0-1.669-0.483-2.168c-0.337-0.306-0.784-0.461-1.237-0.428
		c-0.886,0.047-1.747,0.304-2.513,0.75c0.172,0.375,0.153,1.654,0.153,1.962v4.8h-1.031v-4.519c0-1.343,0.019-2.118-0.446-2.58
		c-0.328-0.298-0.761-0.453-1.203-0.431c-0.874,0.053-1.72,0.325-2.46,0.791v6.75h-1.031v-8.25h0.979v0.596
		c0.792-0.488,1.695-0.768,2.625-0.81c0.804-0.061,1.581,0.306,2.047,0.964c0.885-0.607,1.928-0.943,3-0.964
		c0.683-0.028,1.347,0.22,1.842,0.69c0.844,0.84,0.81,1.875,0.81,3.404v4.369L256.4,265.738z"/>
	<path fill="#5B6875" d="M262.49,265.91c-0.955-0.005-1.9-0.191-2.786-0.551v-12h1.031v4.662c0.669-0.489,1.475-0.752,2.303-0.75
		c2.22,0,3.63,1.668,3.63,4.195C266.667,264.092,264.965,265.91,262.49,265.91z M262.936,258.186
		c-0.805,0.009-1.582,0.295-2.201,0.811v5.711c0.574,0.203,1.18,0.303,1.789,0.293c1.875,0,3.079-1.377,3.079-3.492
		C265.603,259.528,264.552,258.186,262.936,258.186z"/>
	<path fill="#5B6875" d="M275.116,261.816h-5.918c0,1.822,0.979,3.131,2.839,3.131c0.842-0.004,1.668-0.236,2.389-0.672l0.465,0.791
		c-0.878,0.561-1.898,0.854-2.939,0.844c-2.411,0-3.821-1.754-3.821-4.248c0-2.666,1.48-4.388,3.769-4.388
		c1.908,0,3.251,1.448,3.251,3.99C275.15,261.352,275.131,261.644,275.116,261.816z M271.913,258.152
		c-1.425,0-2.58,1.068-2.681,2.786h4.875C274.1,259.72,273.533,258.152,271.913,258.152z"/>
	<path fill="#5B6875" d="M281.288,258.258c-0.221-0.037-0.443-0.055-0.667-0.053c-1.035-0.001-1.992,0.549-2.513,1.443v6.09h-1.031
		v-8.25h0.979v1.084c0.621-0.824,1.594-1.307,2.625-1.305c0.294-0.021,0.589,0.024,0.862,0.135L281.288,258.258z"/>
</g>
<path fill="#5B6875" d="M150.893,265.498l-1.17-3.285h-5.007l-1.17,3.285h-1.099l4.178-11.471h1.241l4.196,11.471H150.893z
	 M147.21,255.178l-2.168,6.09h4.354L147.21,255.178z"/>
<path fill="#5B6875" d="M158.685,265.498v-0.652c-0.799,0.52-1.728,0.805-2.681,0.824c-0.74,0.029-1.461-0.24-1.999-0.75
	c-0.825-0.828-0.75-2.031-0.75-2.977v-4.703h1.039v4.92c0,0.878,0,1.617,0.483,2.101c0.345,0.333,0.811,0.513,1.29,0.499
	c0.896-0.063,1.763-0.34,2.527-0.811v-6.709h1.031v8.25L158.685,265.498z"/>
<path fill="#5B6875" d="M167.768,268.49c-0.72,0.725-1.583,0.912-2.682,0.912c-1.106,0.02-2.187-0.338-3.063-1.014l0.465-0.723
	c0.743,0.518,1.622,0.805,2.527,0.824c1.017,0,1.583-0.258,1.946-0.637c0.514-0.514,0.533-1.084,0.533-2.408v-0.637
	c-0.725,0.447-1.557,0.69-2.408,0.705c-2.066,0-3.528-1.703-3.528-4.076c0-2.543,1.721-4.403,4.125-4.403
	c0.992,0.036,1.966,0.276,2.861,0.705v7.875C168.544,267.08,168.386,267.854,167.768,268.49z M167.494,258.344
	c-0.589-0.27-1.229-0.406-1.875-0.398c-1.808,0-3,1.41-3,3.477c0,1.875,1.031,3.18,2.561,3.18c0.828-0.039,1.628-0.314,2.307-0.791
	L167.494,258.344z"/>
<path fill="#5B6875" d="M176.232,265.498v-0.652c-0.8,0.52-1.729,0.805-2.682,0.824c-0.739,0.03-1.458-0.24-1.995-0.75
	c-0.828-0.828-0.75-2.031-0.75-2.977v-4.703h1.035v4.92c0,0.878,0,1.617,0.48,2.101c0.345,0.333,0.81,0.513,1.29,0.499
	c0.896-0.061,1.763-0.339,2.527-0.811v-6.709h1.031v8.25L176.232,265.498z"/>
<path fill="#5B6875" d="M181.669,265.705c-0.982,0.006-1.944-0.275-2.768-0.811l0.446-0.791c0.678,0.42,1.453,0.658,2.25,0.689
	c1.237,0,1.979-0.551,1.979-1.443c0-1.125-1.203-1.447-2.066-1.773c-1.222-0.48-2.287-0.878-2.287-2.374
	c0-1.324,1.204-2.168,2.753-2.168c0.889-0.014,1.76,0.249,2.493,0.75l-0.412,0.75c-0.604-0.363-1.291-0.565-1.995-0.585
	c-0.964,0-1.773,0.48-1.773,1.238c0,0.963,0.844,1.185,1.773,1.563c1.125,0.451,2.58,0.912,2.58,2.514
	C184.643,264.864,183.51,265.705,181.669,265.705z"/>
<path fill="#5B6875" d="M189.428,265.686c-0.624,0.051-1.241-0.162-1.703-0.585c-0.483-0.479-0.483-1.125-0.483-2.13v-4.875h-1.447
	v-0.844h1.443v-2.34h1.031v2.34h2.651v0.844h-2.651v4.668c0,1.125-0.086,1.996,1.29,1.996c0.419-0.016,0.833-0.104,1.223-0.26
	l0.273,0.792C190.554,265.558,189.994,265.693,189.428,265.686z"/>
<path fill="#5B6875" d="M81.412,265.014c-0.481,0.459-1.125,0.707-1.789,0.691c-0.772,0.013-1.53-0.216-2.167-0.653l0.428-0.81
	c0.463,0.301,0.997,0.473,1.549,0.498c1.721,0,1.601-1.582,1.601-2.354v-8.358h1.092v7.908
	C82.125,262.986,82.219,264.227,81.412,265.014z"/>
<path fill="#5B6875" d="M89.962,265.498v-0.652c-0.801,0.52-1.73,0.805-2.685,0.824c-0.739,0.029-1.458-0.242-1.995-0.75
	c-0.825-0.828-0.75-2.031-0.75-2.977v-4.703h1.031v4.92c0,0.878,0,1.617,0.48,2.101c0.345,0.333,0.81,0.513,1.289,0.499
	c1.223,0,2.393-0.75,2.531-0.811v-6.709h1.031v8.25L89.962,265.498z"/>
<path fill="#5B6875" d="M93.3,265.498v-12.375h1.031v12.375H93.3z"/>
<path fill="#5B6875" d="M100.125,266.102c-0.518,1.392-0.911,2.029-1.447,2.562c-0.555,0.502-1.281,0.771-2.029,0.75
	c-0.507,0.001-1.009-0.099-1.478-0.292l0.273-0.844c0.375,0.139,0.771,0.209,1.171,0.205c0.493,0.023,0.976-0.148,1.342-0.479
	c0.514-0.518,0.791-1.17,1.237-2.287l-3.404-8.464h1.125l2.835,7.125l2.564-7.125h1.065L100.125,266.102z"/>
<line fill="none" stroke="#CECFD1" stroke-width="2.8671" stroke-miterlimit="10" x1="25.834" y1="243.639" x2="295.698" y2="243.639"/>
</svg>
