<?xml version="1.0" encoding="utf-8"?>
<!-- Generator: Adobe Illustrator 16.0.0, SVG Export Plug-In . SVG Version: 6.00 Build 0)  -->
<!DOCTYPE svg PUBLIC "-//W3C//DTD SVG 1.1//EN" "http://www.w3.org/Graphics/SVG/1.1/DTD/svg11.dtd">
<svg version="1.1" id="Layer_1" xmlns="http://www.w3.org/2000/svg" xmlns:xlink="http://www.w3.org/1999/xlink" x="0px" y="0px"
	 width="414px" height="384px" viewBox="0 0 414 384" enable-background="new 0 0 414 384" xml:space="preserve">
<g>
	<path fill="#002664" d="M27.339,42.871V26.489H8.247v16.382H5V7.861h3.247v15.698h19.092V7.861h3.247v35.01H27.339z"/>
	<path fill="#002664" d="M40.645,30.932c0.016,1.53,0.22,2.905,0.61,4.126s0.952,2.254,1.685,3.101
		c0.732,0.847,1.624,1.494,2.673,1.941c1.05,0.448,2.234,0.671,3.552,0.671c2.815,0,5.477-0.984,7.983-2.954v3.076
		c-2.393,1.709-5.29,2.563-8.691,2.563c-1.677,0-3.198-0.293-4.565-0.879s-2.531-1.436-3.491-2.551
		c-0.96-1.115-1.701-2.486-2.222-4.114c-0.521-1.627-0.781-3.483-0.781-5.566c0-1.872,0.285-3.605,0.854-5.2
		c0.569-1.595,1.359-2.974,2.368-4.138c1.009-1.164,2.205-2.075,3.589-2.734c1.383-0.659,2.897-0.989,4.541-0.989
		c1.611,0,3.035,0.281,4.272,0.842c1.237,0.562,2.274,1.363,3.113,2.405c0.838,1.042,1.477,2.312,1.917,3.809
		c0.439,1.498,0.659,3.174,0.659,5.029v1.563H40.645z M55.488,28.198c-0.049-2.604-0.667-4.622-1.855-6.055
		c-1.188-1.432-2.84-2.148-4.956-2.148c-1.058,0-2.039,0.188-2.942,0.562c-0.903,0.375-1.697,0.916-2.38,1.624
		s-1.25,1.571-1.697,2.588c-0.448,1.018-0.761,2.161-0.94,3.43H55.488z"/>
	<path fill="#002664" d="M79.243,42.871v-4.443h-0.098c-0.814,1.595-1.925,2.832-3.333,3.711c-1.408,0.879-2.999,1.318-4.773,1.318
		c-1.205,0-2.291-0.171-3.259-0.513c-0.969-0.342-1.791-0.826-2.466-1.453c-0.676-0.626-1.196-1.379-1.563-2.258
		s-0.549-1.847-0.549-2.905c0-2.262,0.7-4.065,2.1-5.408c1.399-1.343,3.516-2.217,6.348-2.625l7.593-1.099
		c0-4.801-1.864-7.202-5.591-7.202c-2.914,0-5.615,1.066-8.105,3.198v-3.418c0.521-0.374,1.111-0.712,1.77-1.013
		c0.659-0.301,1.355-0.562,2.087-0.781s1.485-0.391,2.258-0.513c0.773-0.122,1.526-0.183,2.258-0.183
		c2.783,0,4.887,0.781,6.311,2.344c1.424,1.563,2.136,3.89,2.136,6.982v16.26H79.243z M72.798,30.737
		c-1.123,0.163-2.083,0.366-2.881,0.61c-0.798,0.244-1.457,0.574-1.978,0.989c-0.521,0.415-0.903,0.928-1.147,1.538
		s-0.366,1.363-0.366,2.258c0,0.667,0.118,1.286,0.354,1.855c0.236,0.57,0.578,1.062,1.025,1.477
		c0.447,0.415,0.993,0.737,1.636,0.964c0.643,0.228,1.371,0.342,2.185,0.342c1.106,0,2.124-0.211,3.052-0.635
		c0.928-0.423,1.729-1.009,2.405-1.758c0.675-0.749,1.204-1.644,1.587-2.686c0.382-1.042,0.574-2.173,0.574-3.394v-2.466
		L72.798,30.737z"/>
	<path fill="#002664" d="M107.417,42.871v-4.395h-0.098c-0.83,1.579-2.014,2.804-3.552,3.674s-3.284,1.306-5.237,1.306
		c-1.563,0-2.983-0.289-4.26-0.867c-1.278-0.578-2.373-1.412-3.284-2.502c-0.912-1.09-1.616-2.409-2.112-3.955
		c-0.497-1.546-0.745-3.296-0.745-5.249c0-2.018,0.272-3.861,0.818-5.53c0.545-1.668,1.318-3.101,2.319-4.297
		s2.205-2.124,3.613-2.783c1.408-0.659,2.974-0.989,4.7-0.989c3.597,0,6.177,1.44,7.739,4.321h0.098V5.859h3.125v37.012H107.417z
		 M107.417,27.783c0-1.09-0.188-2.107-0.562-3.052c-0.375-0.944-0.896-1.766-1.563-2.466c-0.667-0.7-1.469-1.253-2.405-1.66
		c-0.936-0.407-1.965-0.61-3.088-0.61c-1.237,0-2.376,0.244-3.418,0.732c-1.042,0.488-1.933,1.192-2.673,2.112
		c-0.741,0.92-1.318,2.039-1.733,3.357s-0.623,2.816-0.623,4.492c0,1.579,0.187,2.995,0.562,4.248
		c0.374,1.253,0.907,2.312,1.599,3.174c0.691,0.863,1.518,1.522,2.478,1.978c0.96,0.456,2.026,0.684,3.198,0.684
		c1.27,0,2.413-0.228,3.43-0.684c1.017-0.456,1.88-1.082,2.588-1.88c0.708-0.797,1.253-1.733,1.636-2.808
		c0.382-1.074,0.574-2.222,0.574-3.442V27.783z"/>
	<path fill="#002664" d="M118.599,42.871V5.859h3.125v37.012H118.599z"/>
	<path fill="#002664" d="M131.318,11.547c-0.603,0-1.123-0.211-1.563-0.635c-0.439-0.423-0.659-0.96-0.659-1.611
		c0-0.635,0.22-1.16,0.659-1.575s0.96-0.623,1.563-0.623c0.309,0,0.602,0.053,0.879,0.159c0.276,0.106,0.517,0.256,0.72,0.452
		c0.203,0.195,0.366,0.427,0.488,0.696s0.183,0.566,0.183,0.891c0,0.31-0.057,0.603-0.171,0.879
		c-0.114,0.277-0.277,0.517-0.488,0.72c-0.212,0.204-0.452,0.362-0.72,0.476C131.941,11.491,131.644,11.547,131.318,11.547z
		 M129.78,42.871v-25h3.125v25H129.78z"/>
	<path fill="#002664" d="M157.832,42.871V28.466c0-5.647-2.051-8.472-6.152-8.472c-1.091,0-2.1,0.216-3.027,0.647
		c-0.928,0.432-1.729,1.03-2.404,1.794c-0.676,0.765-1.205,1.672-1.588,2.722c-0.382,1.05-0.573,2.185-0.573,3.406v14.307h-3.125
		v-25h3.125v4.346h0.098c1.855-3.288,4.646-4.932,8.374-4.932c2.734,0,4.816,0.887,6.25,2.661c1.432,1.774,2.148,4.338,2.148,7.69
		v15.234H157.832z"/>
	<path fill="#002664" d="M169.965,30.932c0.016,1.53,0.221,2.905,0.611,4.126s0.951,2.254,1.684,3.101
		c0.732,0.847,1.623,1.494,2.674,1.941c1.049,0.448,2.234,0.671,3.553,0.671c2.814,0,5.477-0.984,7.982-2.954v3.076
		c-2.393,1.709-5.289,2.563-8.691,2.563c-1.676,0-3.197-0.293-4.564-0.879s-2.531-1.436-3.492-2.551
		c-0.961-1.115-1.701-2.486-2.221-4.114c-0.521-1.627-0.781-3.483-0.781-5.566c0-1.872,0.283-3.605,0.854-5.2
		c0.57-1.595,1.359-2.974,2.369-4.138c1.008-1.164,2.205-2.075,3.588-2.734s2.896-0.989,4.541-0.989
		c1.611,0,3.035,0.281,4.273,0.842c1.236,0.562,2.273,1.363,3.111,2.405c0.84,1.042,1.479,2.312,1.918,3.809
		c0.439,1.498,0.658,3.174,0.658,5.029v1.563H169.965z M184.809,28.198c-0.049-2.604-0.668-4.622-1.855-6.055
		c-1.188-1.432-2.84-2.148-4.955-2.148c-1.059,0-2.039,0.188-2.943,0.562c-0.902,0.375-1.695,0.916-2.379,1.624
		s-1.25,1.571-1.697,2.588c-0.447,1.018-0.762,2.161-0.939,3.43H184.809z"/>
</g>
<g>
	<path fill="#666666" d="M5,225.395v-28.008h8.086c10.325,0,15.488,4.551,15.488,13.652c0,4.322-1.433,7.796-4.297,10.42
		c-2.865,2.623-6.706,3.936-11.523,3.936H5z M9.629,201.332v20.137h3.711c3.268,0,5.811-0.898,7.627-2.695s2.725-4.336,2.725-7.617
		c0-6.55-3.392-9.824-10.176-9.824H9.629z"/>
	<path fill="#666666" d="M48.535,225.395h-4.395v-3.125h-0.078c-1.38,2.396-3.405,3.594-6.074,3.594
		c-1.966,0-3.506-0.534-4.619-1.602c-1.113-1.068-1.67-2.48-1.67-4.238c0-3.776,2.174-5.977,6.523-6.602l5.938-0.84
		c0-2.852-1.354-4.277-4.063-4.277c-2.383,0-4.531,0.82-6.445,2.461v-3.965c2.109-1.25,4.544-1.875,7.305-1.875
		c5.052,0,7.578,2.486,7.578,7.461V225.395z M44.16,215.57l-4.199,0.586c-1.302,0.169-2.282,0.484-2.939,0.947
		c-0.658,0.462-0.986,1.272-0.986,2.432c0,0.846,0.303,1.539,0.908,2.08c0.605,0.54,1.416,0.811,2.432,0.811
		c1.38,0,2.522-0.485,3.428-1.455c0.905-0.971,1.357-2.191,1.357-3.662V215.57z"/>
	<path fill="#666666" d="M64.609,225.18c-0.886,0.441-2.051,0.664-3.496,0.664c-3.88,0-5.82-1.862-5.82-5.586v-11.309h-3.34v-3.555
		h3.34v-4.629l4.531-1.289v5.918h4.785v3.555h-4.785v10c0,1.185,0.215,2.031,0.645,2.539s1.146,0.762,2.148,0.762
		c0.768,0,1.432-0.222,1.992-0.664V225.18z"/>
	<path fill="#666666" d="M83.867,225.395h-4.395v-3.125h-0.078c-1.38,2.396-3.405,3.594-6.074,3.594
		c-1.966,0-3.506-0.534-4.619-1.602c-1.113-1.068-1.67-2.48-1.67-4.238c0-3.776,2.174-5.977,6.523-6.602l5.938-0.84
		c0-2.852-1.354-4.277-4.063-4.277c-2.383,0-4.531,0.82-6.445,2.461v-3.965c2.109-1.25,4.544-1.875,7.305-1.875
		c5.052,0,7.578,2.486,7.578,7.461V225.395z M79.492,215.57l-4.199,0.586c-1.302,0.169-2.282,0.484-2.939,0.947
		c-0.658,0.462-0.986,1.272-0.986,2.432c0,0.846,0.303,1.539,0.908,2.08c0.605,0.54,1.416,0.811,2.432,0.811
		c1.38,0,2.522-0.485,3.428-1.455c0.905-0.971,1.357-2.191,1.357-3.662V215.57z"/>
	<path fill="#666666" d="M116.406,225.395h-15.508v-28.008h4.648v24.082h10.859V225.395z"/>
	<path fill="#666666" d="M135.293,225.395h-4.395v-3.125h-0.078c-1.38,2.396-3.405,3.594-6.074,3.594
		c-1.966,0-3.506-0.534-4.619-1.602c-1.113-1.068-1.67-2.48-1.67-4.238c0-3.776,2.174-5.977,6.523-6.602l5.938-0.84
		c0-2.852-1.354-4.277-4.063-4.277c-2.383,0-4.531,0.82-6.445,2.461v-3.965c2.109-1.25,4.544-1.875,7.305-1.875
		c5.052,0,7.578,2.486,7.578,7.461V225.395z M130.918,215.57l-4.199,0.586c-1.302,0.169-2.282,0.484-2.939,0.947
		c-0.658,0.462-0.986,1.272-0.986,2.432c0,0.846,0.303,1.539,0.908,2.08c0.605,0.54,1.416,0.811,2.432,0.811
		c1.38,0,2.522-0.485,3.428-1.455c0.905-0.971,1.357-2.191,1.357-3.662V215.57z"/>
	<path fill="#666666" d="M145.43,222.504h-0.078v2.891h-4.531v-29.609h4.531v13.125h0.078c1.55-2.656,3.815-3.984,6.797-3.984
		c2.525,0,4.502,0.895,5.928,2.686c1.426,1.79,2.139,4.189,2.139,7.197c0,3.346-0.801,6.025-2.402,8.037s-3.789,3.018-6.563,3.018
		C148.724,225.863,146.758,224.743,145.43,222.504z M145.313,214.555v2.48c0,1.458,0.466,2.695,1.396,3.711s2.112,1.523,3.545,1.523
		c1.68,0,2.998-0.654,3.955-1.963s1.436-3.135,1.436-5.479c0-1.967-0.447-3.506-1.338-4.619c-0.893-1.113-2.1-1.67-3.623-1.67
		c-1.614,0-2.913,0.572-3.896,1.719C145.804,211.403,145.313,212.836,145.313,214.555z"/>
	<path fill="#666666" d="M181.855,216.625h-13.633c0.051,1.849,0.621,3.274,1.709,4.277c1.086,1.002,2.58,1.504,4.482,1.504
		c2.135,0,4.094-0.639,5.879-1.914v3.652c-1.824,1.146-4.232,1.719-7.227,1.719c-2.943,0-5.252-0.908-6.924-2.725
		c-1.674-1.816-2.51-4.372-2.51-7.666c0-3.112,0.92-5.648,2.764-7.607c1.842-1.96,4.131-2.939,6.865-2.939s4.85,0.879,6.348,2.637
		c1.496,1.758,2.246,4.199,2.246,7.324V216.625z M177.48,213.422c-0.014-1.628-0.398-2.895-1.152-3.799
		c-0.756-0.905-1.797-1.357-3.125-1.357c-1.303,0-2.406,0.475-3.311,1.426c-0.906,0.95-1.463,2.193-1.67,3.73H177.48z"/>
	<path fill="#666666" d="M190.723,225.395h-4.551v-29.609h4.551V225.395z"/>
</g>
<g>
	<path fill="#666666" d="M25.996,291.178l-3.086-8.281H10.898l-3.008,8.281H5l10.664-28.008h2.617l10.605,28.008H25.996z
		 M17.461,268.072c-0.091-0.246-0.186-0.533-0.283-0.859c-0.098-0.324-0.179-0.695-0.244-1.113h-0.078
		c-0.078,0.418-0.166,0.789-0.264,1.113c-0.098,0.326-0.192,0.613-0.283,0.859l-4.531,12.461h10.254L17.461,268.072z"/>
	<path fill="#666666" d="M39.941,281.334l6.563,9.844h-3.008l-4.063-6.621c-0.156-0.246-0.316-0.5-0.479-0.762
		c-0.163-0.26-0.329-0.539-0.498-0.84h-0.078c-0.065,0.131-0.166,0.303-0.303,0.518s-0.303,0.486-0.498,0.811l-4.375,6.895h-2.949
		l6.758-9.785l-6.543-10.215h2.91l4.16,7.012c0.208,0.352,0.391,0.668,0.547,0.947c0.156,0.281,0.286,0.512,0.391,0.693h0.078
		c0.169-0.246,0.325-0.498,0.469-0.752c0.143-0.254,0.293-0.51,0.449-0.771l4.414-7.129h2.813L39.941,281.334z"/>
	<path fill="#666666" d="M51.738,266.119c-0.482,0-0.898-0.168-1.25-0.508c-0.352-0.338-0.527-0.768-0.527-1.289
		c0-0.508,0.176-0.928,0.527-1.26s0.768-0.498,1.25-0.498c0.247,0,0.481,0.043,0.703,0.127c0.221,0.086,0.413,0.205,0.576,0.361
		c0.163,0.156,0.293,0.342,0.391,0.557s0.146,0.453,0.146,0.713c0,0.248-0.046,0.482-0.137,0.703
		c-0.091,0.223-0.222,0.414-0.391,0.576c-0.169,0.164-0.361,0.291-0.576,0.381C52.236,266.074,51.999,266.119,51.738,266.119z
		 M50.508,291.178v-20h2.5v20H50.508z"/>
	<path fill="#666666" d="M58.32,287.584c0.377,0.301,0.788,0.566,1.23,0.801c0.442,0.234,0.898,0.438,1.367,0.605
		c0.469,0.17,0.94,0.297,1.416,0.381c0.475,0.086,0.928,0.127,1.357,0.127c2.969,0,4.453-1.113,4.453-3.34
		c0-0.508-0.104-0.947-0.313-1.318c-0.208-0.371-0.508-0.709-0.898-1.016c-0.391-0.305-0.859-0.588-1.406-0.85
		c-0.547-0.26-1.166-0.533-1.855-0.82c-0.925-0.377-1.719-0.762-2.383-1.152s-1.211-0.816-1.641-1.279
		c-0.43-0.461-0.749-0.969-0.957-1.523c-0.208-0.553-0.313-1.182-0.313-1.885c0-0.885,0.192-1.672,0.576-2.363
		c0.384-0.689,0.901-1.275,1.553-1.758c0.651-0.48,1.403-0.85,2.256-1.104c0.853-0.254,1.748-0.381,2.686-0.381
		c1.731,0,3.242,0.326,4.531,0.977v2.637c-1.498-0.963-3.112-1.445-4.844-1.445c-0.625,0-1.195,0.078-1.709,0.234
		c-0.515,0.156-0.954,0.379-1.318,0.664c-0.365,0.287-0.648,0.629-0.85,1.025c-0.202,0.398-0.303,0.838-0.303,1.318
		c0,0.496,0.078,0.928,0.234,1.299s0.4,0.707,0.732,1.006c0.332,0.301,0.762,0.586,1.289,0.859s1.168,0.566,1.924,0.879
		c0.963,0.391,1.797,0.779,2.5,1.162c0.703,0.385,1.282,0.801,1.738,1.25c0.456,0.449,0.794,0.951,1.016,1.504
		c0.221,0.555,0.332,1.195,0.332,1.924c0,0.898-0.186,1.699-0.557,2.402s-0.886,1.297-1.543,1.777
		c-0.658,0.482-1.429,0.848-2.314,1.094c-0.886,0.248-1.849,0.371-2.891,0.371c-2.019,0-3.718-0.423-5.098-1.27V287.584z"/>
	<path fill="#666666" d="M87.07,291.178V263.17h2.598v25.645h11.25v2.363H87.07z"/>
	<path fill="#666666" d="M116.758,291.178v-3.555h-0.078c-0.651,1.277-1.54,2.266-2.666,2.969c-1.126,0.703-2.399,1.055-3.818,1.055
		c-0.964,0-1.833-0.137-2.607-0.41c-0.775-0.273-1.433-0.66-1.973-1.162c-0.541-0.5-0.957-1.104-1.25-1.807
		s-0.439-1.477-0.439-2.324c0-1.809,0.56-3.252,1.68-4.326c1.12-1.074,2.813-1.773,5.078-2.1l6.074-0.879
		c0-3.84-1.491-5.762-4.473-5.762c-2.331,0-4.492,0.854-6.484,2.559v-2.734c0.417-0.299,0.889-0.568,1.416-0.811
		c0.527-0.24,1.084-0.449,1.67-0.625s1.188-0.313,1.807-0.41c0.618-0.098,1.221-0.146,1.807-0.146c2.227,0,3.909,0.625,5.049,1.875
		c1.139,1.25,1.709,3.113,1.709,5.586v13.008H116.758z M111.602,281.471c-0.898,0.131-1.667,0.293-2.305,0.488
		c-0.638,0.195-1.166,0.459-1.582,0.791c-0.417,0.332-0.723,0.742-0.918,1.23s-0.293,1.092-0.293,1.807
		c0,0.535,0.094,1.029,0.283,1.484c0.188,0.457,0.462,0.85,0.82,1.182c0.358,0.332,0.794,0.59,1.309,0.771
		c0.514,0.184,1.097,0.273,1.748,0.273c0.885,0,1.699-0.168,2.441-0.508c0.742-0.338,1.383-0.807,1.924-1.406
		c0.54-0.598,0.963-1.314,1.27-2.148c0.306-0.832,0.459-1.738,0.459-2.715v-1.973L111.602,281.471z"/>
	<path fill="#666666" d="M127.773,287.955v3.223h-2.5v-29.609h2.5v13.438h0.078c0.742-1.393,1.735-2.457,2.979-3.193
		c1.243-0.734,2.646-1.104,4.209-1.104c1.276,0,2.418,0.232,3.428,0.693c1.009,0.463,1.862,1.123,2.559,1.982
		s1.23,1.895,1.602,3.105s0.557,2.559,0.557,4.043c0,1.654-0.212,3.162-0.635,4.521c-0.423,1.361-1.025,2.529-1.807,3.506
		s-1.729,1.736-2.842,2.275c-1.113,0.541-2.36,0.811-3.74,0.811c-2.826,0-4.929-1.23-6.309-3.691H127.773z M127.773,282.857
		c0,0.912,0.153,1.768,0.459,2.568c0.306,0.801,0.732,1.504,1.279,2.109s1.208,1.084,1.982,1.436
		c0.774,0.352,1.631,0.527,2.568,0.527c1.002,0,1.907-0.211,2.715-0.635c0.807-0.422,1.494-1.025,2.061-1.807
		s1.003-1.725,1.309-2.832c0.306-1.105,0.459-2.344,0.459-3.711c0-1.172-0.144-2.229-0.43-3.174
		c-0.286-0.943-0.693-1.748-1.221-2.412s-1.166-1.172-1.914-1.523c-0.749-0.352-1.585-0.527-2.51-0.527
		c-1.042,0-1.979,0.193-2.813,0.576c-0.833,0.385-1.543,0.908-2.129,1.572s-1.035,1.443-1.348,2.334
		c-0.313,0.893-0.469,1.84-0.469,2.842V282.857z"/>
	<path fill="#666666" d="M149.414,281.627c0.013,1.225,0.176,2.324,0.488,3.301s0.762,1.805,1.348,2.48
		c0.586,0.678,1.299,1.195,2.139,1.553c0.84,0.359,1.787,0.537,2.842,0.537c2.252,0,4.381-0.787,6.387-2.363v2.461
		c-1.914,1.367-4.232,2.051-6.953,2.051c-1.341,0-2.559-0.234-3.652-0.703s-2.024-1.148-2.793-2.041
		c-0.769-0.891-1.36-1.988-1.777-3.291c-0.417-1.301-0.625-2.785-0.625-4.453c0-1.496,0.228-2.883,0.684-4.16
		c0.456-1.275,1.087-2.379,1.895-3.311c0.808-0.93,1.765-1.66,2.871-2.188s2.316-0.791,3.633-0.791c1.289,0,2.428,0.225,3.418,0.674
		c0.988,0.449,1.818,1.092,2.49,1.924c0.67,0.834,1.182,1.85,1.533,3.047c0.352,1.199,0.527,2.539,0.527,4.023v1.25H149.414z
		 M161.289,279.439c-0.039-2.082-0.535-3.697-1.484-4.844c-0.951-1.145-2.273-1.719-3.965-1.719c-0.848,0-1.631,0.15-2.354,0.449
		c-0.723,0.301-1.357,0.732-1.904,1.299s-0.999,1.258-1.357,2.07c-0.358,0.814-0.608,1.729-0.752,2.744H161.289z"/>
	<path fill="#666666" d="M168.77,291.178v-29.609h2.5v29.609H168.77z"/>
</g>
<g>
	<path fill="#666666" d="M8,356.961v-28.008h2.598v25.645h11.25v2.363H8z"/>
	<path fill="#666666" d="M27.355,347.41c0.013,1.225,0.176,2.324,0.488,3.301s0.762,1.804,1.348,2.48
		c0.586,0.678,1.299,1.195,2.139,1.553c0.84,0.358,1.787,0.537,2.842,0.537c2.252,0,4.381-0.787,6.387-2.363v2.461
		c-1.914,1.367-4.232,2.051-6.953,2.051c-1.341,0-2.559-0.234-3.652-0.703s-2.025-1.148-2.793-2.041
		c-0.769-0.892-1.361-1.988-1.777-3.291c-0.417-1.302-0.625-2.786-0.625-4.453c0-1.497,0.228-2.884,0.684-4.16
		c0.456-1.275,1.087-2.379,1.895-3.311c0.807-0.931,1.764-1.66,2.871-2.188c1.106-0.527,2.317-0.791,3.633-0.791
		c1.289,0,2.428,0.225,3.418,0.674c0.989,0.449,1.819,1.091,2.49,1.924c0.67,0.834,1.182,1.85,1.533,3.047
		c0.352,1.198,0.527,2.539,0.527,4.023v1.25H27.355z M39.23,345.223c-0.039-2.083-0.534-3.697-1.484-4.844
		c-0.951-1.146-2.272-1.719-3.965-1.719c-0.847,0-1.631,0.15-2.354,0.449c-0.723,0.3-1.357,0.732-1.904,1.299s-1,1.257-1.357,2.07
		c-0.358,0.814-0.609,1.729-0.752,2.744H39.23z"/>
	<path fill="#666666" d="M63.234,355.418c0,3.711-0.843,6.461-2.529,8.252c-1.687,1.79-4.287,2.686-7.803,2.686
		c-2.188,0-4.258-0.488-6.211-1.465v-2.539c2.174,1.211,4.245,1.816,6.211,1.816c5.221,0,7.832-2.761,7.832-8.281v-2.402h-0.078
		c-1.537,2.631-3.88,3.945-7.031,3.945c-1.237,0-2.367-0.229-3.389-0.684c-1.022-0.455-1.898-1.113-2.627-1.973
		c-0.729-0.859-1.296-1.904-1.699-3.135c-0.404-1.23-0.605-2.62-0.605-4.17c0-1.641,0.215-3.135,0.645-4.482
		s1.042-2.503,1.836-3.467c0.794-0.963,1.754-1.709,2.881-2.236c1.126-0.527,2.393-0.791,3.799-0.791
		c2.825,0,4.889,1.146,6.191,3.438h0.078v-2.969h2.5V355.418z M60.734,344.813c0-0.833-0.15-1.621-0.449-2.363
		c-0.3-0.742-0.716-1.393-1.25-1.953c-0.534-0.56-1.169-1.006-1.904-1.338c-0.736-0.332-1.546-0.498-2.432-0.498
		c-1.042,0-1.982,0.202-2.822,0.605c-0.84,0.404-1.556,0.977-2.148,1.719c-0.593,0.742-1.048,1.645-1.367,2.705
		c-0.319,1.062-0.479,2.256-0.479,3.584c0,1.225,0.149,2.331,0.449,3.32c0.299,0.99,0.723,1.83,1.27,2.52
		c0.547,0.69,1.208,1.225,1.982,1.602c0.774,0.378,1.637,0.566,2.588,0.566c0.989,0,1.888-0.179,2.695-0.537
		c0.807-0.357,1.497-0.853,2.07-1.484c0.573-0.631,1.016-1.373,1.328-2.227c0.313-0.853,0.469-1.773,0.469-2.764V344.813z"/>
	<path fill="#666666" d="M70.871,347.41c0.013,1.225,0.176,2.324,0.488,3.301s0.762,1.804,1.348,2.48
		c0.586,0.678,1.299,1.195,2.139,1.553c0.84,0.358,1.787,0.537,2.842,0.537c2.252,0,4.381-0.787,6.387-2.363v2.461
		c-1.914,1.367-4.232,2.051-6.953,2.051c-1.341,0-2.559-0.234-3.652-0.703s-2.025-1.148-2.793-2.041
		c-0.769-0.892-1.361-1.988-1.777-3.291c-0.417-1.302-0.625-2.786-0.625-4.453c0-1.497,0.228-2.884,0.684-4.16
		c0.456-1.275,1.087-2.379,1.895-3.311c0.807-0.931,1.764-1.66,2.871-2.188c1.106-0.527,2.317-0.791,3.633-0.791
		c1.289,0,2.428,0.225,3.418,0.674c0.989,0.449,1.819,1.091,2.49,1.924c0.67,0.834,1.182,1.85,1.533,3.047
		c0.352,1.198,0.527,2.539,0.527,4.023v1.25H70.871z M82.746,345.223c-0.039-2.083-0.534-3.697-1.484-4.844
		c-0.951-1.146-2.272-1.719-3.965-1.719c-0.847,0-1.631,0.15-2.354,0.449c-0.723,0.3-1.357,0.732-1.904,1.299s-1,1.257-1.357,2.07
		c-0.358,0.814-0.609,1.729-0.752,2.744H82.746z"/>
	<path fill="#666666" d="M103.723,356.961v-11.523c0-4.518-1.641-6.777-4.922-6.777c-0.873,0-1.68,0.173-2.422,0.518
		c-0.742,0.346-1.384,0.824-1.924,1.436c-0.541,0.612-0.964,1.338-1.27,2.178c-0.306,0.84-0.459,1.748-0.459,2.725v11.445h-2.5v-20
		h2.5v3.477h0.078c1.484-2.63,3.717-3.945,6.699-3.945c2.188,0,3.854,0.71,5,2.129c1.146,1.42,1.719,3.471,1.719,6.152v12.188
		H103.723z"/>
	<path fill="#666666" d="M126.262,356.961v-3.516h-0.078c-0.664,1.264-1.611,2.243-2.842,2.939s-2.627,1.045-4.189,1.045
		c-1.25,0-2.386-0.231-3.408-0.693c-1.022-0.462-1.898-1.129-2.627-2.002c-0.729-0.872-1.292-1.927-1.689-3.164
		c-0.397-1.236-0.596-2.637-0.596-4.199c0-1.614,0.218-3.089,0.654-4.424c0.436-1.334,1.055-2.48,1.855-3.438
		s1.764-1.699,2.891-2.227c1.126-0.527,2.379-0.791,3.76-0.791c2.877,0,4.941,1.152,6.191,3.457h0.078v-12.598h2.5v29.609H126.262z
		 M126.262,344.891c0-0.872-0.15-1.686-0.449-2.441c-0.3-0.755-0.716-1.412-1.25-1.973c-0.534-0.56-1.175-1.002-1.924-1.328
		c-0.749-0.325-1.572-0.488-2.471-0.488c-0.99,0-1.901,0.195-2.734,0.586c-0.833,0.391-1.546,0.954-2.139,1.689
		c-0.593,0.736-1.055,1.631-1.387,2.686s-0.498,2.253-0.498,3.594c0,1.264,0.149,2.396,0.449,3.398
		c0.299,1.003,0.726,1.85,1.279,2.539c0.553,0.69,1.214,1.218,1.982,1.582c0.768,0.365,1.621,0.547,2.559,0.547
		c1.016,0,1.93-0.182,2.744-0.547c0.813-0.364,1.504-0.865,2.07-1.504c0.566-0.638,1.002-1.387,1.309-2.246
		c0.306-0.859,0.459-1.777,0.459-2.754V344.891z"/>
</g>
<g>
	<path fill="#002664" d="M48.442,140.782H36.03l-19.979-26.266c-0.748-0.987-1.201-1.655-1.361-2.002h-0.16v28.268H5V83.366h9.529
		v26.986h0.16c0.32-0.587,0.774-1.241,1.361-1.962L35.31,83.366h11.411l-22.542,27.547L48.442,140.782z"/>
	<path fill="#002664" d="M87.801,122.804H59.854c0.106,3.791,1.274,6.713,3.503,8.769c2.229,2.056,5.292,3.083,9.189,3.083
		c4.377,0,8.395-1.308,12.052-3.924v7.487c-3.737,2.349-8.675,3.523-14.814,3.523c-6.033,0-10.764-1.862-14.194-5.585
		c-3.43-3.724-5.145-8.962-5.145-15.715c0-6.379,1.888-11.578,5.666-15.595c3.777-4.017,8.468-6.026,14.074-6.026
		s9.943,1.802,13.013,5.405c3.069,3.604,4.604,8.608,4.604,15.015V122.804z M78.832,116.238c-0.027-3.336-0.814-5.932-2.362-7.788
		c-1.548-1.855-3.684-2.783-6.406-2.783c-2.669,0-4.932,0.975-6.787,2.923c-1.855,1.949-2.997,4.498-3.423,7.647H78.832z"/>
	<path fill="#002664" d="M132.164,99.782l-18.498,47.566c-3.844,8.488-9.236,12.732-16.176,12.732c-1.949,0-3.577-0.174-4.885-0.521
		v-7.728c1.468,0.48,2.803,0.721,4.004,0.721c3.47,0,6.059-1.708,7.768-5.125l2.763-6.727l-16.296-40.92h10.29l9.77,29.789
		c0.106,0.374,0.347,1.361,0.721,2.963h0.2c0.133-0.614,0.374-1.575,0.721-2.883l10.25-29.869H132.164z"/>
	<path fill="#002664" d="M184.055,87.65c-1.254-0.721-2.682-1.081-4.283-1.081c-4.512,0-6.768,2.549-6.768,7.647v5.565h9.529v7.287
		h-9.488v33.713h-9.289v-33.713h-7.008v-7.287h7.008v-6.646c0-4.324,1.414-7.734,4.244-10.23c2.828-2.496,6.365-3.744,10.609-3.744
		c2.295,0,4.111,0.254,5.445,0.761V87.65z"/>
	<path fill="#002664" d="M193.824,91.173c-1.521,0-2.822-0.494-3.904-1.481c-1.08-0.987-1.621-2.242-1.621-3.764
		s0.541-2.789,1.621-3.804c1.082-1.014,2.383-1.521,3.904-1.521c1.574,0,2.91,0.507,4.004,1.521
		c1.094,1.015,1.643,2.282,1.643,3.804c0,1.441-0.549,2.676-1.643,3.704C196.734,90.66,195.398,91.173,193.824,91.173z
		 M198.43,140.782h-9.289v-41h9.289V140.782z"/>
	<path fill="#002664" d="M247.877,137.499c0,15.055-7.566,22.582-22.701,22.582c-5.34,0-9.998-0.895-13.975-2.683v-8.488
		c4.484,2.563,8.742,3.844,12.773,3.844c9.742,0,14.613-4.792,14.613-14.374v-4.484h-0.16c-3.07,5.232-7.688,7.848-13.854,7.848
		c-4.992,0-9.016-1.822-12.07-5.465c-3.059-3.644-4.586-8.535-4.586-14.674c0-6.967,1.643-12.505,4.926-16.616
		c3.283-4.11,7.793-6.166,13.533-6.166c5.418,0,9.436,2.216,12.051,6.646h0.16v-5.686h9.289V137.499z M238.668,122.003v-5.325
		c0-2.883-0.955-5.345-2.861-7.387c-1.91-2.042-4.293-3.063-7.148-3.063c-3.523,0-6.279,1.301-8.268,3.904s-2.982,6.24-2.982,10.911
		c0,4.031,0.953,7.254,2.863,9.669c1.906,2.416,4.436,3.624,7.586,3.624c3.203,0,5.807-1.154,7.809-3.463
		C237.668,128.563,238.668,125.607,238.668,122.003z"/>
	<path fill="#002664" d="M295.725,140.782h-9.289v-6.486h-0.16c-2.697,4.965-6.887,7.447-12.572,7.447
		c-9.689,0-14.535-5.819-14.535-17.457V99.782h9.289v23.543c0,7.367,2.844,11.051,8.529,11.051c2.748,0,5.01-1.014,6.787-3.043
		c1.773-2.028,2.662-4.685,2.662-7.968V99.782h9.289V140.782z"/>
	<path fill="#002664" d="M331.6,108.63c-1.121-0.881-2.736-1.321-4.846-1.321c-2.75,0-5.045,1.241-6.887,3.724
		s-2.762,5.859-2.762,10.13v19.619h-9.289v-41h9.289v8.448h0.16c0.906-2.883,2.301-5.131,4.184-6.747
		c1.881-1.615,3.984-2.422,6.307-2.422c1.682,0,2.963,0.254,3.844,0.761V108.63z"/>
	<path fill="#002664" d="M372.158,122.804h-27.947c0.107,3.791,1.275,6.713,3.504,8.769c2.229,2.056,5.291,3.083,9.189,3.083
		c4.377,0,8.395-1.308,12.051-3.924v7.487c-3.736,2.349-8.676,3.523-14.814,3.523c-6.033,0-10.764-1.862-14.193-5.585
		s-5.145-8.962-5.145-15.715c0-6.379,1.887-11.578,5.664-15.595c3.777-4.017,8.469-6.026,14.074-6.026s9.943,1.802,13.014,5.405
		c3.068,3.604,4.604,8.608,4.604,15.015V122.804z M363.189,116.238c-0.027-3.336-0.814-5.932-2.361-7.788
		c-1.549-1.855-3.684-2.783-6.406-2.783c-2.67,0-4.932,0.975-6.787,2.923c-1.855,1.949-2.996,4.498-3.424,7.647H363.189z"/>
</g>
</svg>
