<svg xmlns="http://www.w3.org/2000/svg" xmlns:xlink="http://www.w3.org/1999/xlink" viewBox="0 0 436 355"><defs><clipPath id="a"><rect width="436" height="283.12" style="fill:none"/></clipPath></defs><rect x="120.45" y="1.52" width="202.7" height="109.92" style="fill:#d4e3ee"/><g style="clip-path:url(#a)"><rect x="120.45" y="1.52" width="202.7" height="109.92" style="fill:none;stroke:#b4cee0;stroke-linecap:round;stroke-linejoin:round;stroke-width:3.0427083543954527px"/></g><rect x="213.63" y="209.45" width="4.93" height="34.78" style="fill:#bbb"/><g style="clip-path:url(#a)"><path d="M191.91,245.66h0a1.49,1.49,0,0,1,1.38-1.49l22.8-1.72,22.8,1.72a1.5,1.5,0,1,1-.22,3l-22.58-1.71-22.57,1.71a1.51,1.51,0,0,1-1.61-1.5" style="fill:#bbb"/><path d="M240.32,189.67H191.86a2.81,2.81,0,0,0-2.78,2.56l-1.4,15.15a2.82,2.82,0,0,0,2.78,3.09h51.26a2.81,2.81,0,0,0,2.78-3.09l-1.4-15.15a2.8,2.8,0,0,0-2.78-2.56" style="fill:#bbb"/><path d="M227.68,185.49H204.51a7.7,7.7,0,0,1-7.65-8.54L200,148.14a7.69,7.69,0,0,1,7.64-6.85h16.83a7.69,7.69,0,0,1,7.64,6.85L235.32,177a7.69,7.69,0,0,1-7.64,8.54" style="fill:#526374"/><path d="M227.68,185.49H204.51a7.7,7.7,0,0,1-7.65-8.54L200,148.14a7.69,7.69,0,0,1,7.64-6.85h16.83a7.69,7.69,0,0,1,7.64,6.85L235.32,177A7.69,7.69,0,0,1,227.68,185.49Z" style="fill:none;stroke:#526374;stroke-linecap:round;stroke-linejoin:round;stroke-width:1.5213541771977264px"/><path d="M242.21,250.25a2.09,2.09,0,1,1-.76-2.85,2.08,2.08,0,0,1,.76,2.85" style="fill:#526374"/><path d="M242.21,250.25a2.09,2.09,0,1,1-.76-2.85A2.08,2.08,0,0,1,242.21,250.25Z" style="fill:none;stroke:#526374;stroke-linecap:round;stroke-linejoin:round;stroke-width:1.5213541771977264px"/><path d="M194.61,249.21a2.09,2.09,0,1,1-2.09-2.09,2.09,2.09,0,0,1,2.09,2.09" style="fill:#526374"/><path d="M194.61,249.21a2.09,2.09,0,1,1-2.09-2.09A2.09,2.09,0,0,1,194.61,249.21Z" style="fill:none;stroke:#526374;stroke-linecap:round;stroke-linejoin:round;stroke-width:1.5213541771977264px"/><path d="M195,163.93c-.32,6.58,7.47,4.13,16.89,4.59l-4.33,6.28c-19.14.31-23.29.57-23-5.82.41-8.47,6.14-25,6.14-33.48l2.05-6.53a2.88,2.88,0,0,1,1.62-2.19l13.8-8.53,8.49,13.45,8.93-13.45L240.54,127a2.87,2.87,0,0,1,1.94,2.36l.23,1.81.62,4.59c0,8.69,5.39,25.19,5,33.87-.34,7-13.48,4.1-26.38,4.89l-.3-6c13.68-1.85,17.6,3.13,17.92-3.67a23.34,23.34,0,0,0-4.05-14.28" style="fill:#659eca"/><path d="M195,163.93c-.32,6.58,7.47,4.13,16.89,4.59l-4.33,6.28c-19.14.31-23.29.57-23-5.82.41-8.47,6.14-25,6.14-33.48l2.05-6.53a2.88,2.88,0,0,1,1.62-2.19l13.8-8.53,8.49,13.45,8.93-13.45L240.54,127a2.87,2.87,0,0,1,1.94,2.36l.23,1.81.62,4.59c0,8.69,5.39,25.19,5,33.87-.34,7-13.48,4.1-26.38,4.89l-.3-6c13.68-1.85,17.6,3.13,17.92-3.67a23.34,23.34,0,0,0-4.05-14.28" style="fill:none;stroke:#659eca;stroke-linecap:round;stroke-linejoin:round;stroke-width:1.2170833417581826px"/><path d="M204,258.72a5.13,5.13,0,0,1-1.93,4.79c-1.31,1.18-2.81,1.7-3.82,2.65-2.73,2.55-3.86,4.87-3,6.27,1.34,2.11,5.58,1.21,10.11-1.4,1.82-1,2.56-3.67,3.57-4.87,1.49-1.78,3.35-2.35,2.74-4.69l-.83-3.19" style="fill:#e5a67a"/><path d="M210.83,258.28l.83,3.19c.61,2.34-1.25,2.91-2.74,4.69-1,1.2-1.75,3.82-3.57,4.87-4.53,2.61-8.77,3.51-10.11,1.4-.89-1.4.25-3.72,3-6.27a12.74,12.74,0,0,1,2.11-1.43c-1.17,1.68-1.56,3.31-.83,4,.95,1,3.45,0,5.59-2.14a25.5,25.5,0,0,0,4.3-6.06c.38-.69,1.45-2.28,1.45-2.28" style="fill:#203264"/><path d="M228.76,258.76a5.45,5.45,0,0,0,1.74,4.75c1.31,1.18,2.81,1.7,3.82,2.65,2.73,2.55,3.86,4.87,3,6.27-1.34,2.11-5.58,1.21-10.11-1.4-1.82-1-2.56-3.67-3.57-4.87-1.48-1.78-3.35-2.35-2.74-4.69l.83-3.19" style="fill:#e5a67a"/><path d="M221.7,258.28l-.83,3.19c-.61,2.34,1.26,2.91,2.74,4.69,1,1.2,1.75,3.82,3.57,4.87,4.53,2.61,8.77,3.51,10.11,1.4.89-1.4-.24-3.72-3-6.27a12.74,12.74,0,0,0-2.11-1.43c1.17,1.68,1.56,3.31.83,4-.95,1-3.45,0-5.59-2.14a25.79,25.79,0,0,1-4.3-6.06c-.38-.69-1.45-2.28-1.45-2.28" style="fill:#203264"/><path d="M222.39,113a15,15,0,0,0,9-14c0-8.3-6.22-15-13.89-15s-13.9,6.73-13.9,15a15,15,0,0,0,9,14.08,9.36,9.36,0,0,0,4.86,1,14,14,0,0,0,4.93-1.05" style="fill:#e5a67a"/><path d="M222.39,113a15,15,0,0,0,9-14c0-8.3-6.22-15-13.89-15s-13.9,6.73-13.9,15a15,15,0,0,0,9,14.08,9.36,9.36,0,0,0,4.86,1A14,14,0,0,0,222.39,113Z" style="fill:none;stroke:#e5a67a;stroke-miterlimit:10;stroke-width:1.2170833417581826px"/><path d="M220.16,93.54c-3.58,2.72-12.54,5.48-17.07,5.38" style="fill:#fff1bf"/><path d="M220.16,93.54c-3.58,2.72-12.54,5.48-17.07,5.38" style="fill:none;stroke:#fff1bf;stroke-miterlimit:10;stroke-width:1.2170833417581826px"/><path d="M220.16,93.54a16.09,16.09,0,0,0,11.19,5.38h0c0-8.3-6.22-15-13.89-15s-13.9,6.74-13.9,15c0,0-.21,0,0,0" style="fill:#fff1bf"/><path d="M220.16,93.54a16.09,16.09,0,0,0,11.19,5.38h0c0-8.3-6.22-15-13.89-15s-13.9,6.74-13.9,15c0,0-.21,0,0,0" style="fill:none;stroke:#fff1bf;stroke-miterlimit:10;stroke-width:1.2170833417581826px"/><polygon points="208.17 118.25 202.45 125.82 210.46 126.87 207.23 131 216.88 130.86 208.17 118.25" style="fill:#d4e3ee"/><polygon points="208.17 118.25 202.45 125.82 210.46 126.87 207.23 131 216.88 130.86 208.17 118.25" style="fill:none;stroke:#d4e3ee;stroke-linecap:round;stroke-linejoin:round;stroke-width:1.2170833417581826px"/><polygon points="225.59 118.25 231.31 125.82 223.3 126.87 226.52 131 216.88 130.86 225.59 118.25" style="fill:#d4e3ee"/><polygon points="225.59 118.25 231.31 125.82 223.3 126.87 226.52 131 216.88 130.86 225.59 118.25" style="fill:none;stroke:#d4e3ee;stroke-linecap:round;stroke-linejoin:round;stroke-width:1.2170833417581826px"/><path d="M209.09,86.91a8.31,8.31,0,1,1,15.73-.74" style="fill:#fff1bf"/><path d="M209.09,86.91a8.31,8.31,0,1,1,15.73-.74" style="fill:none;stroke:#fff1bf;stroke-miterlimit:10;stroke-width:1.2170833417581826px"/><path d="M221.58,105.32a4.71,4.71,0,0,1-4.12,2.05,5,5,0,0,1-4.13-2.05" style="fill:none;stroke:#c26f30;stroke-linecap:round;stroke-linejoin:round;stroke-width:1.2170833417581826px"/><path d="M225.05,100.24a1.51,1.51,0,1,1-1.54-1.47A1.49,1.49,0,0,1,225.05,100.24Z" style="fill:none;stroke:#526374;stroke-miterlimit:10;stroke-width:1.82562501263727px"/><path d="M214.73,100.24a1.51,1.51,0,0,1-3,.07,1.51,1.51,0,0,1,3-.07Z" style="fill:none;stroke:#526374;stroke-miterlimit:10;stroke-width:1.82562501263727px"/><path d="M216.25,156.38l0,27.36a4.62,4.62,0,0,0,4.62,4.62l12.81-.12,1.7-6.57-2.9-14.55s3.8-16,3.05-29.47l-18.89,17.77v18l-.39,10.37a4.63,4.63,0,0,1-4.52,4.62c-5.64.13-14.92.35-14.89-.12.69-10.79,4.9-18.26,4.71-21.12a68.21,68.21,0,0,1-4.44-29.47" style="fill:#659eca"/><path d="M216.25,156.38l0,27.36a4.62,4.62,0,0,0,4.62,4.62l12.81-.12,1.7-6.57-2.9-14.55s3.8-16,3.05-29.47l-18.89,17.77v18l-.39,10.37a4.63,4.63,0,0,1-4.52,4.62c-5.64.13-14.92.35-14.89-.12.69-10.79,4.9-18.26,4.71-21.12a68.21,68.21,0,0,1-4.44-29.47" style="fill:none;stroke:#659eca;stroke-linecap:round;stroke-linejoin:round;stroke-width:1.2170833417581826px"/><path d="M221.91,159.15a1.35,1.35,0,1,1-1.34-1.35A1.34,1.34,0,0,1,221.91,159.15Z" style="fill:none;stroke:#203264;stroke-linecap:round;stroke-linejoin:round;stroke-width:1.5213541771977264px"/><path d="M227.87,216.94v-2.33a2.23,2.23,0,0,1,2.23-2.23" style="fill:none;stroke:#203264;stroke-linecap:round;stroke-linejoin:round;stroke-width:1.5213541771977264px"/><line x1="222.58" y1="269.23" x2="222.58" y2="262.27" style="fill:none;stroke:#203264;stroke-linecap:round;stroke-linejoin:round;stroke-width:1.5213541771977264px"/><line x1="209.78" y1="269.23" x2="209.78" y2="262.27" style="fill:none;stroke:#203264;stroke-linecap:round;stroke-linejoin:round;stroke-width:1.5213541771977264px"/><line x1="216.27" y1="130.86" x2="216.27" y2="185.95" style="fill:none;stroke:#d4e3ee;stroke-linecap:round;stroke-linejoin:round;stroke-width:1.2170833417581826px"/><path d="M233.32,203.47a5.86,5.86,0,1,1-5.86-5.86,5.85,5.85,0,0,1,5.86,5.86" style="fill:#e5a67a"/><path d="M211.87,203.47a5.86,5.86,0,1,1-5.86-5.86,5.85,5.85,0,0,1,5.86,5.86" style="fill:#e5a67a"/><path d="M196.86,186.13c-3,2.38-6.56,10.27-3.14,17.77a6.45,6.45,0,0,0,5.88,3.72l32.55,0a5,5,0,0,0,4.24-1.71c8-7.84,2.13-18-2-20.4a12.64,12.64,0,0,0-7.06-1.41H203.53a9.22,9.22,0,0,0-6.67,2" style="fill:#526374"/><path d="M196.86,186.13c-3,2.38-6.56,10.27-3.14,17.77a6.45,6.45,0,0,0,5.88,3.72l32.55,0a5,5,0,0,0,4.24-1.71c8-7.84,2.13-18-2-20.4a12.64,12.64,0,0,0-7.06-1.41H203.53A9.22,9.22,0,0,0,196.86,186.13Z" style="fill:none;stroke:#526374;stroke-linecap:round;stroke-linejoin:round;stroke-width:1.5213541771977264px"/><path d="M232.37,196.73a5.85,5.85,0,0,0-11.7-.31h0s-.67,8.4-.77,11.21c-.46,12.89,1.8,50.65,1.8,50.65l7,1.1s3.21-38,3.73-50.55c0,0-.09-11.86-.09-12.1" style="fill:#e5a67a"/><path d="M211.87,199.08c0-.66,0-.76,0-1.15a6.33,6.33,0,0,0-12.64-.6h0c0,.17,0,.36,0,.54v.1c.12,14.26,4.76,60.74,4.76,60.74l6.86-.44s1.66-37.63,1.55-50.71c0-2.13-.23-4-.51-8.49" style="fill:#e5a67a"/><path d="M213.05,176a13.69,13.69,0,0,1,4.79.17c1,.39,1.73,1.25,2.83,1.05l5.39-.22a3,3,0,0,0,2.44-3.48l-.52-2.69a3,3,0,0,0-3.48-2.43l-5.27.73a6.09,6.09,0,0,0-2.77,1.24,11.93,11.93,0,0,1-3.87.79" style="fill:#e5a67a"/><path d="M213.05,176a13.69,13.69,0,0,1,4.79.17c1,.39,1.73,1.25,2.83,1.05l5.39-.22a3,3,0,0,0,2.44-3.48l-.52-2.69a3,3,0,0,0-3.48-2.43l-5.27.73a6.09,6.09,0,0,0-2.77,1.24,11.93,11.93,0,0,1-3.87.79" style="fill:none;stroke:#e5a67a;stroke-miterlimit:10;stroke-width:1.2170833417581826px"/><line x1="204.38" y1="179.2" x2="232.4" y2="179.2" style="fill:none;stroke:#526374;stroke-linecap:round;stroke-linejoin:round;stroke-width:1.82562501263727px"/><path d="M277.79,268.13H243.46a1.84,1.84,0,0,1-1.84-1.84V241a1.83,1.83,0,0,1,1.84-1.83h34.33a1.83,1.83,0,0,1,1.84,1.83v25.27a1.84,1.84,0,0,1-1.84,1.84" style="fill:#0a2967"/><path d="M254.25,239v-2.33a2.23,2.23,0,0,1,2.23-2.23l10.5.17a2.24,2.24,0,0,1,1.37,2.06V239" style="fill:none;stroke:#0a2967;stroke-linecap:round;stroke-linejoin:round;stroke-width:1.2170833417581826px"/><rect x="119.27" y="209.79" width="4.93" height="34.78" style="fill:#bbb"/><path d="M97.55,246h0a1.48,1.48,0,0,1,1.38-1.49l22.8-1.73,22.8,1.73a1.48,1.48,0,0,1,1.38,1.49,1.5,1.5,0,0,1-1.6,1.49l-22.58-1.71-22.57,1.71A1.5,1.5,0,0,1,97.55,246" style="fill:#bbb"/><path d="M146,190H97.5a2.79,2.79,0,0,0-2.78,2.56l-1.4,15.15a2.81,2.81,0,0,0,2.78,3.08h51.26a2.81,2.81,0,0,0,2.78-3.08l-1.4-15.15A2.79,2.79,0,0,0,146,190" style="fill:#bbb"/><path d="M133.32,185.82H110.15a7.69,7.69,0,0,1-7.65-8.53l3.17-28.82a7.7,7.7,0,0,1,7.65-6.85h16.82a7.69,7.69,0,0,1,7.65,6.85L141,177.29a7.69,7.69,0,0,1-7.64,8.53" style="fill:#526374"/><path d="M133.32,185.82H110.15a7.69,7.69,0,0,1-7.65-8.53l3.17-28.82a7.7,7.7,0,0,1,7.65-6.85h16.82a7.69,7.69,0,0,1,7.65,6.85L141,177.29A7.69,7.69,0,0,1,133.32,185.82Z" style="fill:none;stroke:#526374;stroke-linecap:round;stroke-linejoin:round;stroke-width:1.5213541771977264px"/><path d="M146,250.58a2.09,2.09,0,1,1-.77-2.85,2.09,2.09,0,0,1,.77,2.85" style="fill:#526374"/><path d="M146,250.58a2.09,2.09,0,1,1-.77-2.85A2.09,2.09,0,0,1,146,250.58Z" style="fill:none;stroke:#526374;stroke-linecap:round;stroke-linejoin:round;stroke-width:1.5213541771977264px"/><path d="M100.25,249.54a2.09,2.09,0,1,1-2.09-2.09,2.1,2.1,0,0,1,2.09,2.09" style="fill:#526374"/><path d="M100.25,249.54a2.09,2.09,0,1,1-2.09-2.09A2.1,2.1,0,0,1,100.25,249.54Z" style="fill:none;stroke:#526374;stroke-linecap:round;stroke-linejoin:round;stroke-width:1.5213541771977264px"/><path d="M169.49,177.15a9.59,9.59,0,0,1,3.14,1c.84.61,1.37,1.62,2.48,1.7l5.29,1.1a3,3,0,0,0,3.21-2.79l.15-2.73a3,3,0,0,0-2.79-3.21l-5.28-.56a5.85,5.85,0,0,0-3,.42,6.92,6.92,0,0,1-2.48,0" style="fill:#c26f30"/><path d="M102.38,185.94c-1.28,3.27-6.68,15.28-.74,21.74h33.48c8.54-6.3,4-18.88,1.17-21.74-.72-.72-33.63-.72-33.91,0" style="fill:#526374"/><path d="M172.61,171.77c-9.11-.45-10.76-.07-24.8-5-.88-7.47-.51-24.5-1.93-33.07-.32-1.89-.7-7.5-2.25-7.16s-6.14,11.52-6.14,11.52-1.63,28.74,4.24,35.35c5.45,6.14,29.14,4.68,29.14,4.68l1.74-6.37" style="fill:#9aa7b5"/><polyline points="133.66 123.9 127.74 118.19 119.27 123.9 114.41 120.68 110.65 118.19 103.47 123.49" style="fill:none;stroke:#b4cee0;stroke-linecap:round;stroke-linejoin:round;stroke-width:1.2170833417581826px"/><path d="M103.18,123l-7,3.38,2.91,11.74c-1.18,17.17,2.9,48.36,3.31,47.83h33.91s2.77-33.92,1.2-47.83c0,0,5.27-10.11,6.41-11.53l-9.67-3.09-8.67,6.64-6.29-6.23L113,130.13Z" style="fill:#b4cee0"/><path d="M124.2,113.48a15,15,0,0,0,9-14c0-8.3-6.21-15-13.89-15s-13.89,6.72-13.89,15a15,15,0,0,0,9,14.09,9.34,9.34,0,0,0,4.85,1,13.93,13.93,0,0,0,4.94-1.06" style="fill:#c26f30"/><path d="M108.26,99.18a2.83,2.83,0,0,1,1.82-3.07,10.58,10.58,0,0,1,3.69-.67c3.15,0,4,1.08,4.22,2.54a4.81,4.81,0,0,1-5,5.52,4.37,4.37,0,0,1-4.74-4.31Z" style="fill:none;stroke:#203264;stroke-linecap:round;stroke-linejoin:round;stroke-width:1.5213541771977264px"/><path d="M130.33,99.18a2.84,2.84,0,0,0-1.82-3.07,10.64,10.64,0,0,0-3.7-.67c-3.14,0-4,1.08-4.22,2.54a4.81,4.81,0,0,0,5,5.52,4.37,4.37,0,0,0,4.74-4.31Z" style="fill:none;stroke:#203264;stroke-linecap:round;stroke-linejoin:round;stroke-width:1.5213541771977264px"/><path d="M117.76,97.16a3.47,3.47,0,0,1,3.07,0" style="fill:none;stroke:#203264;stroke-linecap:round;stroke-linejoin:round;stroke-width:1.5213541771977264px"/><line x1="130.31" y1="98.26" x2="133.11" y2="98.26" style="fill:none;stroke:#203264;stroke-linecap:round;stroke-linejoin:round;stroke-width:1.5213541771977264px"/><line x1="105.37" y1="98.26" x2="108.17" y2="98.26" style="fill:none;stroke:#203264;stroke-linecap:round;stroke-linejoin:round;stroke-width:1.5213541771977264px"/><path d="M115.15,99.67a.58.58,0,0,1-.58.6.59.59,0,1,1,0-1.18.6.6,0,0,1,.6.58" style="fill:#8e4d21"/><path d="M115.15,99.67a.58.58,0,0,1-.58.6.59.59,0,1,1,0-1.18A.6.6,0,0,1,115.15,99.67Z" style="fill:none;stroke:#8e4d21;stroke-miterlimit:10;stroke-width:1.2170833417581826px"/><path d="M127.08,99.71a.59.59,0,1,1-1.18,0,.6.6,0,0,1,.58-.6.58.58,0,0,1,.6.58" style="fill:#8e4d21"/><path d="M127.08,99.71a.59.59,0,1,1-1.18,0,.6.6,0,0,1,.58-.6A.58.58,0,0,1,127.08,99.71Z" style="fill:none;stroke:#8e4d21;stroke-miterlimit:10;stroke-width:1.2170833417581826px"/><path d="M123.42,106.57a4.72,4.72,0,0,1-4.13,2.05,5,5,0,0,1-4.13-2.05" style="fill:none;stroke:#692e14;stroke-linecap:round;stroke-linejoin:round;stroke-width:1.5213541771977264px"/><polyline points="115.08 128.55 116.94 130.51 116.33 160.26 119.33 164.35 122.34 160.26 121.73 130.51 123.59 128.55" style="fill:#222f64"/><polyline points="115.08 128.55 116.94 130.51 116.33 160.26 119.33 164.35 122.34 160.26 121.73 130.51 123.59 128.55" style="fill:none;stroke:#222f64;stroke-linecap:round;stroke-linejoin:round;stroke-width:1.2170833417581826px"/><polyline points="116.94 130.51 119.34 132.58 121.73 130.51" style="fill:none;stroke:#222f64;stroke-linecap:round;stroke-linejoin:round;stroke-width:1.2170833417581826px"/><path d="M132.54,262.5a4.58,4.58,0,0,0,1.66,4.79c1.31,1.18,2.81,1.7,3.82,2.65,2.72,2.55,3.86,4.87,3,6.27-1.34,2.11-5.58,1.21-10.11-1.4-1.82-1.05-2.57-3.67-3.57-4.87-1.49-1.78-3.35-2.35-2.74-4.69l.83-3.19" style="fill:#526374"/><path d="M107.16,262.5a4.58,4.58,0,0,1-1.65,4.79c-1.32,1.18-2.82,1.7-3.83,2.65-2.72,2.55-3.86,4.87-3,6.27,1.34,2.11,5.58,1.21,10.11-1.4,1.83-1.05,2.57-3.67,3.57-4.87,1.49-1.78,3.35-2.35,2.74-4.69l-.83-3.19" style="fill:#526374"/><path d="M174,268.46H142.79a3.41,3.41,0,0,1-3.41-3.41V242.93a3.41,3.41,0,0,1,3.41-3.41H174a3.41,3.41,0,0,1,3.41,3.41v22.12a3.41,3.41,0,0,1-3.41,3.41" style="fill:#526374"/><path d="M151.34,239.35V237a2.23,2.23,0,0,1,2.23-2.23l10.5.17a2.24,2.24,0,0,1,1.36,2.06v2.33" style="fill:none;stroke:#526374;stroke-linecap:round;stroke-linejoin:round;stroke-width:1.2170833417581826px"/><path d="M125.63,176.05a13.65,13.65,0,0,1,4.71.89c.9.53,1.52,1.49,2.64,1.46l5.37.59a3,3,0,0,0,2.92-3.08l-.11-2.74a3,3,0,0,0-3.08-2.92l-5.31-.06a6.17,6.17,0,0,0-2.93.8,11.9,11.9,0,0,1-3.94.22" style="fill:#c26f30"/><path d="M128.64,176.56v-5.78A87.49,87.49,0,0,1,102,167.67c-1.37-7.39-1.47-28.95-1.47-28.95l-4.39-12.35s-2.66,4.14-3,8.15c-.63,8.45-.3,25.24-.71,33.72-.3,6.38-5.76,11.36,36.15,8.32" style="fill:#9aa7b5"/><path d="M124.4,200.4l-.77,11.21c0,12.9,1,50.53,1,50.53l8.79,1.38s2.25-38.15,2.77-50.71c0,0,.56-12.21-.36-13.86" style="fill:#9aa7b5"/><path d="M136.1,200.71a5.86,5.86,0,1,1-5.86-5.85,5.86,5.86,0,0,1,5.86,5.85" style="fill:#9aa7b5"/><path d="M102.05,201.19c0,13.43,3.87,61.89,3.87,61.89l9.14-.74s-.07-37.71.44-50.79c0,0,.57-10.07-2.64-13.93" style="fill:#9aa7b5"/><path d="M113.74,200.71a5.86,5.86,0,1,1-5.86-5.85,5.86,5.86,0,0,1,5.86,5.85" style="fill:#9aa7b5"/><rect x="313.81" y="212.35" width="4.93" height="34.78" style="fill:#bbb"/><path d="M340.46,248.56h0a1.5,1.5,0,0,0-1.38-1.49l-22.8-1.72-22.8,1.72a1.49,1.49,0,1,0,.22,3l22.58-1.7,22.57,1.7a1.49,1.49,0,0,0,1.61-1.49" style="fill:#bbb"/><path d="M292.05,192.57h48.46a2.81,2.81,0,0,1,2.78,2.56l1.39,15.15a2.8,2.8,0,0,1-2.78,3.08H290.65a2.8,2.8,0,0,1-2.78-3.08l1.4-15.15a2.8,2.8,0,0,1,2.78-2.56" style="fill:#bbb"/><path d="M304.69,188.38h23.17a7.7,7.7,0,0,0,7.65-8.53L332.33,151a7.69,7.69,0,0,0-7.64-6.85H307.86a7.69,7.69,0,0,0-7.64,6.85L297,179.85a7.7,7.7,0,0,0,7.65,8.53" style="fill:#526374"/><path d="M304.69,188.38h23.17a7.7,7.7,0,0,0,7.65-8.53L332.33,151a7.69,7.69,0,0,0-7.64-6.85H307.86a7.69,7.69,0,0,0-7.64,6.85L297,179.85A7.7,7.7,0,0,0,304.69,188.38Z" style="fill:none;stroke:#526374;stroke-linecap:round;stroke-linejoin:round;stroke-width:1.5213541771977264px"/><path d="M292,253.14a2.09,2.09,0,1,0,.77-2.85,2.09,2.09,0,0,0-.77,2.85" style="fill:#526374"/><path d="M292,253.14a2.09,2.09,0,1,0,.77-2.85A2.09,2.09,0,0,0,292,253.14Z" style="fill:none;stroke:#526374;stroke-linecap:round;stroke-linejoin:round;stroke-width:1.5213541771977264px"/><path d="M337.76,252.1a2.09,2.09,0,1,0,2.09-2.09,2.1,2.1,0,0,0-2.09,2.09" style="fill:#526374"/><path d="M337.76,252.1a2.09,2.09,0,1,0,2.09-2.09A2.1,2.1,0,0,0,337.76,252.1Z" style="fill:none;stroke:#526374;stroke-linecap:round;stroke-linejoin:round;stroke-width:1.5213541771977264px"/><path d="M333.42,188.51c1.28,3.27,6.68,15.27.74,21.73H300.69c-8.55-6.3-4.06-18.87-1.18-21.73.73-.72,33.63-.73,33.91,0" style="fill:#8cb3d3"/><path d="M337.21,154.33H286.7L289,140.56l.85-6.4a2.89,2.89,0,0,1,1.94-2.36l9.08-3,5.93-5.7,8.46,5.7,4.87-3.22,3.75-2.48,7.19,5.3" style="fill:#203264"/><path d="M337.21,154.33H286.7L289,140.56l.85-6.4a2.89,2.89,0,0,1,1.94-2.36l9.08-3,5.93-5.7,8.46,5.7,4.87-3.22,3.75-2.48,7.19,5.3" style="fill:none;stroke:#203264;stroke-linecap:round;stroke-linejoin:round;stroke-width:1.5213541771977264px"/><path d="M309.87,117.78a15.06,15.06,0,0,1-8.95-14.06c0-8.3,6.21-15,13.89-15s13.89,6.72,13.89,15a15,15,0,0,1-9,14.09,9.34,9.34,0,0,1-4.85,1,14,14,0,0,1-4.94-1" style="fill:#fff1bf"/><path d="M309.87,117.78a15.06,15.06,0,0,1-8.95-14.06c0-8.3,6.21-15,13.89-15s13.89,6.72,13.89,15a15,15,0,0,1-9,14.09,9.34,9.34,0,0,1-4.85,1A14,14,0,0,1,309.87,117.78Z" style="fill:none;stroke:#fff1bf;stroke-miterlimit:10;stroke-width:1.2170833417581826px"/><path d="M317.2,103.12a3.64,3.64,0,1,0,3.64-3.64A3.64,3.64,0,0,0,317.2,103.12Z" style="fill:none;stroke:#526374;stroke-linecap:round;stroke-linejoin:round;stroke-width:1.5213541771977264px"/><path d="M305.17,103.12a3.64,3.64,0,1,0,3.64-3.64A3.64,3.64,0,0,0,305.17,103.12Z" style="fill:none;stroke:#526374;stroke-linecap:round;stroke-linejoin:round;stroke-width:1.5213541771977264px"/><path d="M317.2,103.12s-2.93-2.07-4.75,0" style="fill:none;stroke:#526374;stroke-linecap:round;stroke-linejoin:round;stroke-width:1.5213541771977264px"/><line x1="305.17" y1="103.12" x2="300.85" y2="103.12" style="fill:none;stroke:#526374;stroke-linecap:round;stroke-linejoin:round;stroke-width:1.5213541771977264px"/><line x1="328.7" y1="103.12" x2="324.48" y2="103.12" style="fill:none;stroke:#526374;stroke-linecap:round;stroke-linejoin:round;stroke-width:1.5213541771977264px"/><path d="M319.64,103.55a.59.59,0,1,0,1.18,0,.58.58,0,0,0-.57-.6A.59.59,0,0,0,319.64,103.55Z" style="fill:none;stroke:#203264;stroke-linecap:round;stroke-linejoin:round;stroke-width:1.5213541771977264px"/><path d="M307.71,103.59a.58.58,0,0,0,.58.6.59.59,0,0,0,.6-.57.59.59,0,1,0-1.18,0Z" style="fill:none;stroke:#203264;stroke-linecap:round;stroke-linejoin:round;stroke-width:1.5213541771977264px"/><path d="M310.39,109.26a4.6,4.6,0,0,0,4.43,2.62,4.45,4.45,0,0,0,4.4-2.62" style="fill:none;stroke:#f79047;stroke-linecap:round;stroke-linejoin:round;stroke-width:1.2170833417581826px"/><path d="M303.73,265.06a4.57,4.57,0,0,1-1.66,4.79c-1.31,1.18-2.81,1.7-3.82,2.65-2.72,2.55-3.86,4.87-3,6.27,1.34,2.11,5.58,1.21,10.11-1.4,1.82-1.05,2.57-3.67,3.57-4.87,1.49-1.78,3.35-2.35,2.74-4.69l-.83-3.19" style="fill:#8e4d21"/><path d="M329.11,265.06a4.58,4.58,0,0,0,1.65,4.79c1.32,1.18,2.82,1.7,3.83,2.65,2.72,2.55,3.86,4.87,3,6.27-1.34,2.11-5.58,1.21-10.11-1.4-1.82-1.05-2.57-3.67-3.57-4.87-1.49-1.78-3.35-2.35-2.74-4.69l.83-3.19" style="fill:#8e4d21"/><path d="M302.83,95.65s11.31,4,20-4c-2.6-3.68-5.75-3.79-9.52-3.67-4.24.13-9.88,4.16-10.48,7.66" style="fill:#8e4d21"/><path d="M302.83,95.65s11.31,4,20-4c-2.6-3.68-5.75-3.79-9.52-3.67C309.07,88.12,303.43,92.15,302.83,95.65Z" style="fill:none;stroke:#8e4d21;stroke-miterlimit:10;stroke-width:1.2170833417581826px"/><path d="M331.05,128.37l6.89,3.23a2.88,2.88,0,0,1,1.62,2.19s2.32,5,2.32,6.77l2.62,13.51h-8.78" style="fill:#203264"/><path d="M331.05,128.37l6.89,3.23a2.88,2.88,0,0,1,1.62,2.19s2.32,5,2.32,6.77l2.62,13.51h-8.78" style="fill:none;stroke:#203264;stroke-linecap:round;stroke-linejoin:round;stroke-width:1.5213541771977264px"/><path d="M297,143.07c-.75,15,2.25,44.59,2.25,44.59h33.91c.41.59,3.44-25.59,2.25-44.59" style="fill:#203264"/><path d="M297,143.07c-.75,15,2.25,44.59,2.25,44.59h33.91c.41.59,3.44-25.59,2.25-44.59" style="fill:none;stroke:#203264;stroke-linecap:round;stroke-linejoin:round;stroke-width:1.5213541771977264px"/><polyline points="318.95 184.02 318.95 132.56 315.24 128.77 311.52 132.56 311.52 184.01" style="fill:#8cb3d3"/><polyline points="331.05 128.37 321.5 135 315.24 128.77" style="fill:none;stroke:#d7e0ee;stroke-linecap:round;stroke-linejoin:round;stroke-width:1.5213541771977264px"/><polyline points="300.27 128.97 308.96 135 315.24 128.77" style="fill:none;stroke:#d7e0ee;stroke-linecap:round;stroke-linejoin:round;stroke-width:1.5213541771977264px"/><path d="M334.53,173.92s1.38-17.38,1.38-19c3.62.26,6.89.43,6.89.43,0,8.48-1.23,10.78-.82,19.26,0,0,1.82,5.27-10.05,5.27H306.07s-1.66.74-3.06-2.38c-1.23-2.74,1.84-3.57,5.8-3.12a15.45,15.45,0,0,1,6,1.75l19.72-2.16" style="fill:#fff1bf"/><path d="M334.53,173.92s1.38-17.38,1.38-19c3.62.26,6.89.43,6.89.43,0,8.48-1.23,10.78-.82,19.26,0,0,1.82,5.27-10.05,5.27H306.07s-1.66.74-3.06-2.38c-1.23-2.74,1.84-3.57,5.8-3.12a15.45,15.45,0,0,1,6,1.75l19.72-2.16" style="fill:none;stroke:#fff1bf;stroke-miterlimit:10;stroke-width:1.2170833417581826px"/><path d="M311.4,203l.77,11.2c0,12.9-1,50.53-1,50.53l-8.79,1.38s-2.25-38.14-2.77-50.71c0,0-.56-12.21.36-13.86" style="fill:#d7e0ee"/><path d="M299.7,203.28a5.86,5.86,0,1,0,5.86-5.86,5.85,5.85,0,0,0-5.86,5.86" style="fill:#d7e0ee"/><path d="M333.75,203.75c0,13.43-3.87,61.89-3.87,61.89l-9.13-.74s.06-37.71-.45-50.79c0,0-.57-10.07,2.64-13.93" style="fill:#d7e0ee"/><path d="M322.06,203.28a5.86,5.86,0,1,0,5.86-5.86,5.85,5.85,0,0,0-5.86,5.86" style="fill:#d7e0ee"/><path d="M312.52,175.11a91.71,91.71,0,0,1-15.87-2.57c-.65-8.46-.81-17-.81-17h-7.47s-.52,6.15-.52,15.38c.66,8.57-3.15,10.71,28.46,8.94" style="fill:#fff1bf"/><path d="M312.52,175.11a91.71,91.71,0,0,1-15.87-2.57c-.65-8.46-.81-17-.81-17h-7.47s-.52,6.15-.52,15.38c.66,8.57-3.15,10.71,28.46,8.94" style="fill:none;stroke:#fff1bf;stroke-miterlimit:10;stroke-width:1.2170833417581826px"/><line x1="141.27" y1="178.99" x2="179.53" y2="178.99" style="fill:none;stroke:#526374;stroke-linecap:round;stroke-linejoin:round;stroke-width:2.434166683516365px"/><path d="M13.11,203.24l2-.27a5.51,5.51,0,0,0,4.7-6.21L12.91,147.2a5.49,5.49,0,0,0-6.2-4.7l-2,.27A5.5,5.5,0,0,0,.05,149l6.86,49.57a5.49,5.49,0,0,0,6.2,4.7" style="fill:#bbb"/><path d="M12.58,200.37S7.09,214.77,22.23,215" style="fill:none;stroke:#bbb;stroke-miterlimit:10;stroke-width:3.0427083543954527px"/><path d="M20.72,127.28a15,15,0,0,1-9-14c0-8.3,6.22-15,13.89-15s13.89,6.73,13.89,15a15,15,0,0,1-9,14.08,9.36,9.36,0,0,1-4.86,1,14,14,0,0,1-4.93-1.05" style="fill:#fabc93"/><path d="M20.72,127.28a15,15,0,0,1-9-14c0-8.3,6.22-15,13.89-15s13.89,6.73,13.89,15a15,15,0,0,1-9,14.08,9.36,9.36,0,0,1-4.86,1A14,14,0,0,1,20.72,127.28Z" style="fill:none;stroke:#fabc93;stroke-miterlimit:10;stroke-width:1.2170833417581826px"/><path d="M30.77,98.55a14.7,14.7,0,0,0-8.25,8.92" style="fill:#cfd0d3"/><path d="M25.67,107.63,21.81,114c0-.53-.09-1.06-.09-1.61a15.19,15.19,0,0,1,.8-4.89" style="fill:#cfd0d3"/><path d="M35.66,107.63a26.88,26.88,0,0,1-4.89-.53" style="fill:#cfd0d3"/><path d="M35.66,107.63l-2.29-2.07L39,107.47a25.46,25.46,0,0,1-3.38.16" style="fill:#cfd0d3"/><path d="M25.47,97.5a14,14,0,0,1,5.3,1l-9,15.42c-1.25,1.09-4.07,4.46-8.49,3.54C11,117,11.21,114,11.21,114a14.2,14.2,0,0,1-.1-1.61A14.62,14.62,0,0,1,25.47,97.5" style="fill:#cfd0d3"/><path d="M39,107.47l-11.81-2.83,3.54-6.09a14.17,14.17,0,0,1,3.83,2.34A15,15,0,0,1,39,107.47" style="fill:#cfd0d3"/><path d="M30.77,107.1a28.85,28.85,0,0,1-5.44.57l1.79-3.39,8.69,2-.15,1.33Z" style="fill:#cfd0d3"/><path d="M30.07,120a13.55,13.55,0,0,0,4.58.79,9.84,9.84,0,0,0,3.41-.76" style="fill:none;stroke:#c26f30;stroke-linecap:round;stroke-linejoin:round;stroke-width:1.2170833417581826px"/><path d="M31,114a1.51,1.51,0,1,0,1.54-1.48A1.51,1.51,0,0,0,31,114" style="fill:#526374"/><path d="M61.13,179.67a14.36,14.36,0,0,1,4.76-.22c1,.27,1.75,1,2.84.73l5.34-.64c1.61-.4,4.76-.24,4.42-1.71,0,0-.37-2.76-1.25-3.83a11.55,11.55,0,0,0-7-1.78,28.74,28.74,0,0,0-3.16.67,6.59,6.59,0,0,0-2.71,1.35,13,13,0,0,1-3.81,1" style="fill:#fabc93"/><path d="M61.13,179.67a14.36,14.36,0,0,1,4.76-.22c1,.27,1.75,1,2.84.73l5.34-.64c1.61-.4,4.76-.24,4.42-1.71,0,0-.37-2.76-1.25-3.83a11.55,11.55,0,0,0-7-1.78,28.74,28.74,0,0,0-3.16.67,6.59,6.59,0,0,0-2.71,1.35,13,13,0,0,1-3.81,1" style="fill:none;stroke:#fabc93;stroke-miterlimit:10;stroke-width:1.2170833417581826px"/><rect x="42.89" y="221.48" width="4.93" height="50.18" style="fill:#bbb"/><path d="M21.18,272.51h0A1.49,1.49,0,0,1,22.56,271l22.8-1.72L68.16,271a1.49,1.49,0,1,1-.23,3l-22.57-1.7L22.79,274a1.49,1.49,0,0,1-1.61-1.49" style="fill:#bbb"/><path d="M69.59,201.7H21.13a2.8,2.8,0,0,0-2.78,2.56L17,219.41a2.81,2.81,0,0,0,2.78,3.08H71a2.81,2.81,0,0,0,2.78-3.08l-1.4-15.15a2.8,2.8,0,0,0-2.78-2.56" style="fill:#bbb"/><path d="M69.65,277.1a2.09,2.09,0,1,1-.76-2.86,2.08,2.08,0,0,1,.76,2.86" style="fill:#526374"/><path d="M69.65,277.1a2.09,2.09,0,1,1-.76-2.86A2.08,2.08,0,0,1,69.65,277.1Z" style="fill:none;stroke:#526374;stroke-linecap:round;stroke-linejoin:round;stroke-width:1.5213541771977264px"/><path d="M23.87,276.05A2.09,2.09,0,1,1,21.79,274a2.08,2.08,0,0,1,2.08,2.09" style="fill:#526374"/><path d="M23.87,276.05A2.09,2.09,0,1,1,21.79,274,2.08,2.08,0,0,1,23.87,276.05Z" style="fill:none;stroke:#526374;stroke-linecap:round;stroke-linejoin:round;stroke-width:1.5213541771977264px"/><path d="M20,200.06c1.59,0,19.4-.52,19.4-.52,5.47.3,7-.23,7.19-10.37L44,161.32c-1.29-13.55-10.62-29.24-20.2-28.33-6.53.62-11.1,8.61-10.22,17.84L17.48,192c.88,9.23-1.05,8.18,2.56,8.11" style="fill:#526374"/><path d="M79.16,261.79c1.51,2.49,11.65,6.59,11.65,6.59l2.4,4.36-9.34-.89L72,265.09s.63-.84.54-1.15c-2.15-7.42-.79-3.24-.79-15.79,0-3.59,5.37,4.35,7.39,13.64" style="fill:#b2856d"/><path d="M72.28,264.7s-.87,1-.33,4.25c.4,2.39,7.85,2.38,9.94,3.4,1.4.69,3.15,2.78,5.24,3,5.2.54,9.44-.37,9.8-2.84.25-1.65-1.74-3.3-5.26-4.51a18.39,18.39,0,0,0-3.12-.57c1.75,1.05,3.38,2.51,3,3.46-.48,1.26-3.16,1.4-6,.32a25.32,25.32,0,0,1-6.39-3.78c-.63-.47-6.9-2.72-6.9-2.72" style="fill:#b2856d"/><path d="M24,213.31l56.48-1.83v-1c.08-12.88-5.45-13.44-13.66-13.44H24c-6.19-.07-7.06,2.86-7.06,6.38v1.66c0,3.53,3.16,8.21,7.06,8.21" style="fill:#659eca"/><polygon points="68.11 262.44 80.52 260.53 80.44 210.5 66.72 210.96 67.46 233.56 68.11 262.44" style="fill:#659eca"/><path d="M20,140.82A4.53,4.53,0,0,1,25.48,144h0L32,170.75A4.31,4.31,0,0,0,36,174l25.79.35v7.4H28.93a4.32,4.32,0,0,1-4.19-3.27l-8-32.21h0A4.53,4.53,0,0,1,20,140.82" style="fill:#9aa7b5"/><path d="M41.54,149.63,26.64,133H21.72l5.51,8.66,2.36-1.12,1.4,7.8,13,13-1.41-9.5a4.23,4.23,0,0,0-1-2.19" style="fill:#9aa7b5"/><path d="M31.88,134.32l-3,1.15L41,149l-1.62-4.38a11.05,11.05,0,0,0-1.62-2.88Z" style="fill:#659eca"/><path d="M368.05,180.93a14.36,14.36,0,0,0-4.76-.22c-1,.27-1.75,1-2.83.73l-5.34-.64c-1.61-.4-4.77-.24-4.43-1.71,0,0,.38-2.76,1.25-3.83a11.62,11.62,0,0,1,7.05-1.78,28.74,28.74,0,0,1,3.16.67,6.72,6.72,0,0,1,2.71,1.35,13,13,0,0,0,3.8,1" style="fill:#c26f30"/><path d="M368.05,180.93a14.36,14.36,0,0,0-4.76-.22c-1,.27-1.75,1-2.83.73l-5.34-.64c-1.61-.4-4.77-.24-4.43-1.71,0,0,.38-2.76,1.25-3.83a11.62,11.62,0,0,1,7.05-1.78,28.74,28.74,0,0,1,3.16.67,6.72,6.72,0,0,1,2.71,1.35,13,13,0,0,0,3.8,1" style="fill:none;stroke:#c26f30;stroke-miterlimit:10;stroke-width:1.2170833417581826px"/><rect x="385.65" y="221.48" width="4.93" height="50.18" style="fill:#bbb"/><path d="M412.29,272.51h0a1.49,1.49,0,0,0-1.38-1.49l-22.8-1.72L365.31,271a1.49,1.49,0,1,0,.23,3l22.57-1.7,22.58,1.7a1.49,1.49,0,0,0,1.6-1.49" style="fill:#bbb"/><path d="M363.88,201.7h48.46a2.8,2.8,0,0,1,2.78,2.56l1.4,15.15a2.81,2.81,0,0,1-2.78,3.08H362.48a2.81,2.81,0,0,1-2.78-3.08l1.4-15.15a2.81,2.81,0,0,1,2.78-2.56" style="fill:#bbb"/><path d="M363.82,277.1a2.09,2.09,0,1,0,.76-2.86,2.08,2.08,0,0,0-.76,2.86" style="fill:#526374"/><path d="M363.82,277.1a2.09,2.09,0,1,0,.76-2.86A2.08,2.08,0,0,0,363.82,277.1Z" style="fill:none;stroke:#526374;stroke-linecap:round;stroke-linejoin:round;stroke-width:1.5213541771977264px"/><path d="M409.6,276.05a2.09,2.09,0,1,0,2.09-2.09,2.08,2.08,0,0,0-2.09,2.09" style="fill:#526374"/><path d="M409.6,276.05a2.09,2.09,0,1,0,2.09-2.09A2.08,2.08,0,0,0,409.6,276.05Z" style="fill:none;stroke:#526374;stroke-linecap:round;stroke-linejoin:round;stroke-width:1.5213541771977264px"/><path d="M413.43,200.06c-1.59,0-19.4-.52-19.4-.52-5.47.3-7-.23-7.19-10.37l2.66-27.85c1.29-13.55,10.63-29.24,20.2-28.33,6.53.62,11.1,8.61,10.22,17.84L416,192c-.89,9.23,1,8.18-2.57,8.11" style="fill:#d4e3ee"/><path d="M416.25,127.9c6.32-2.37,9.56-3.5,9.56-10,0-10.66-8.91-24.55-21.27-24.55s-16.4,14.3-16.4,25c0,6.54-.83,10.26,6.56,11.09l4-4.28s15.07,3.74,17.51,2.82" style="fill:#203264"/><path d="M416.25,127.9c6.32-2.37,9.56-3.5,9.56-10,0-10.66-8.91-24.55-21.27-24.55s-16.4,14.3-16.4,25c0,6.54-.83,10.26,6.56,11.09l4-4.28S413.81,128.82,416.25,127.9Z" style="fill:none;stroke:#203264;stroke-linecap:round;stroke-linejoin:round;stroke-width:1.5213541771977264px"/><path d="M398.73,124.51a14.26,14.26,0,0,1-8.5-13.33c0-7.87,5.9-14.25,13.18-14.25s13.18,6.38,13.18,14.25A14.27,14.27,0,0,1,408,124.54a8.9,8.9,0,0,1-4.61,1,13.22,13.22,0,0,1-4.68-1" style="fill:#c26f30"/><path d="M398.73,124.51a14.26,14.26,0,0,1-8.5-13.33c0-7.87,5.9-14.25,13.18-14.25s13.18,6.38,13.18,14.25A14.27,14.27,0,0,1,408,124.54a8.9,8.9,0,0,1-4.61,1A13.22,13.22,0,0,1,398.73,124.51Z" style="fill:none;stroke:#c26f30;stroke-miterlimit:10;stroke-width:1.2170833417581826px"/><line x1="405.29" y1="110.22" x2="398.33" y2="110.22" style="fill:none;stroke:#203264;stroke-linecap:round;stroke-linejoin:round;stroke-width:1.5213541771977264px"/><path d="M392.61,111.34a.56.56,0,0,0,.55.57.54.54,0,0,0,.57-.54.55.55,0,0,0-.54-.57A.56.56,0,0,0,392.61,111.34Z" style="fill:none;stroke:#692e14;stroke-linecap:round;stroke-linejoin:round;stroke-width:1.5213541771977264px"/><path d="M392.1,119a5.33,5.33,0,0,0,4.64-.72" style="fill:none;stroke:#692e14;stroke-linecap:round;stroke-linejoin:round;stroke-width:1.5213541771977264px"/><path d="M394.2,115h.14a2.78,2.78,0,0,0,2.79-2.79v-2.87a1.56,1.56,0,0,0-1.56-1.55h-3.08a1.56,1.56,0,0,0-1.56,1.55v2.39A3.26,3.26,0,0,0,394.2,115Z" style="fill:none;stroke:#203264;stroke-linecap:round;stroke-linejoin:round;stroke-width:1.5213541771977264px"/><path d="M413.44,100.31s-8.4,4.28-20,0c0,0-3.86-4.62,4.34-5.35,4.89-.43,17.17,3.34,15.66,5.35" style="fill:#203264"/><path d="M413.44,100.31s-8.4,4.28-20,0c0,0-3.86-4.62,4.34-5.35C402.67,94.53,415,98.3,413.44,100.31Z" style="fill:none;stroke:#203264;stroke-linecap:round;stroke-linejoin:round;stroke-width:1.5213541771977264px"/><polygon points="403.98 102.71 401.73 131.38 416.25 127.9 423.42 109.02 415.31 100.01 404.05 101.66 403.98 102.71" style="fill:#203264"/><polygon points="403.98 102.71 401.73 131.38 416.25 127.9 423.42 109.02 415.31 100.01 404.05 101.66 403.98 102.71" style="fill:none;stroke:#203264;stroke-linecap:round;stroke-linejoin:round;stroke-width:1.5213541771977264px"/><polygon points="406.93 180.52 366.75 180.52 366.75 174.33 406.93 171.9 406.93 180.52" style="fill:#d4e3ee"/><path d="M353.52,210.32s5.19,42.76,3.17,52.05C355.18,264.87,345,269,345,269l-2.4,4.36,9.34-.89,11.85-6.76s-.63-.84-.54-1.15c2.15-7.42,1.79-14.73,2.34-27.27.85-19.84,0-28.54,0-28.54Z" style="fill:#c26f30"/><path d="M363.57,265.28s.87,1,.33,4.25c-.4,2.39-7.85,2.38-9.94,3.41-1.41.68-3.15,2.77-5.24,3-5.2.53-9.44-.37-9.81-2.85-.24-1.64,1.75-3.29,5.27-4.51a12.61,12.61,0,0,1,2.51-.44c-1.75,1.05-2.77,2.38-2.4,3.34.48,1.25,3.16,1.4,6,.32a25.53,25.53,0,0,0,6.4-3.78c.62-.48,6.9-2.73,6.9-2.73" style="fill:#bbb"/><path d="M409.51,215.2H351.82V214c3.27-15.67,6.66-16.76,14.88-16.76h42.81c6.19-.09,7.06,3.57,7.06,8v2.07c0,4.4-3.16,8-7.06,8" style="fill:#f7e15b"/><path d="M409.51,215.2H351.82V214c3.27-15.67,6.66-16.76,14.88-16.76h42.81c6.19-.09,7.06,3.57,7.06,8v2.07C416.57,211.64,413.41,215.2,409.51,215.2Z" style="fill:none;stroke:#f7e15b;stroke-linecap:round;stroke-linejoin:round;stroke-width:1.5213541771977264px"/><path d="M422.89,205.43l-2-.27a5.52,5.52,0,0,1-4.7-6.21l6.86-49.57a5.49,5.49,0,0,1,6.2-4.69l2,.27a5.5,5.5,0,0,1,4.7,6.2l-6.86,49.57a5.49,5.49,0,0,1-6.2,4.7" style="fill:#bbb"/><path d="M423.42,202.55s5.49,14.41-9.65,14.63" style="fill:none;stroke:#bbb;stroke-miterlimit:10;stroke-width:3.0427083543954527px"/><rect x="60.64" y="180.16" width="322.32" height="14.08" style="fill:#d4e3ee"/><rect x="95.81" y="189.44" width="9.25" height="93.68" style="fill:#d4e3ee"/><rect x="338.54" y="189.44" width="9.25" height="93.68" style="fill:#d4e3ee"/></g></svg>