<svg xmlns="http://www.w3.org/2000/svg" xmlns:xlink="http://www.w3.org/1999/xlink" viewBox="0 0 436 355"><defs><clipPath id="a"><rect x="151.2" y="180.96" width="105.09" height="105.09" style="fill:none"/></clipPath><clipPath id="b"><rect x="2" y="19.15" width="103.49" height="96.71" style="fill:none"/></clipPath><clipPath id="c"><rect x="303.99" y="1.5" width="132.01" height="132" style="fill:none"/></clipPath></defs><rect x="315.19" y="177.63" width="81.61" height="111.74" style="fill:none;stroke:#ffcb05;stroke-linecap:round;stroke-linejoin:round;stroke-width:3.263667843673831px"/><path d="M345,201.09a9.7,9.7,0,1,1-9.7-9.7,9.7,9.7,0,0,1,9.7,9.7" style="fill:#74c044"/><polyline points="330.29 201.68 334 204.72 340.08 197.8" style="fill:none;stroke:#fff;stroke-linecap:round;stroke-linejoin:round;stroke-width:2.611666690748427px"/><path d="M345,230.6a9.71,9.71,0,1,1-9.71-9.71A9.71,9.71,0,0,1,345,230.6" style="fill:#74c044"/><polyline points="330.33 231.31 334.05 234.34 340.12 227.43" style="fill:none;stroke:#fff;stroke-linecap:round;stroke-linejoin:round;stroke-width:2.611666690748427px"/><path d="M344.93,260.1a9.71,9.71,0,1,1-9.7-9.7,9.7,9.7,0,0,1,9.7,9.7" style="fill:#74c044"/><polyline points="330.25 260.69 333.96 263.73 340.04 256.81" style="fill:none;stroke:#fff;stroke-linecap:round;stroke-linejoin:round;stroke-width:2.611666690748427px"/><line x1="352.52" y1="197.62" x2="383.04" y2="197.62" style="fill:none;stroke:#f79047;stroke-linecap:round;stroke-linejoin:round;stroke-width:3.263667843673831px"/><line x1="352.52" y1="204.56" x2="373.55" y2="204.56" style="fill:none;stroke:#f79047;stroke-linecap:round;stroke-linejoin:round;stroke-width:3.263667843673831px"/><line x1="352.42" y1="227.21" x2="382.95" y2="227.21" style="fill:none;stroke:#f79047;stroke-linecap:round;stroke-linejoin:round;stroke-width:3.263667843673831px"/><line x1="352.42" y1="234.15" x2="373.46" y2="234.15" style="fill:none;stroke:#f79047;stroke-linecap:round;stroke-linejoin:round;stroke-width:3.263667843673831px"/><line x1="352.33" y1="256.8" x2="382.85" y2="256.8" style="fill:none;stroke:#f79047;stroke-linecap:round;stroke-linejoin:round;stroke-width:3.263667843673831px"/><line x1="352.33" y1="263.74" x2="373.36" y2="263.74" style="fill:none;stroke:#f79047;stroke-linecap:round;stroke-linejoin:round;stroke-width:3.263667843673831px"/><g style="clip-path:url(#a)"><path d="M255.19,233.5a51.45,51.45,0,1,1-51.45-51.45,51.46,51.46,0,0,1,51.45,51.45" style="fill:#f79047"/><circle cx="203.74" cy="233.5" r="51.45" style="fill:none;stroke:#f79047;stroke-linecap:round;stroke-linejoin:round;stroke-width:2.188999891281128px"/><path d="M197.85,233.5a5.9,5.9,0,1,0,5.89-5.9A5.89,5.89,0,0,0,197.85,233.5Z" style="fill:none;stroke:#223064;stroke-linecap:round;stroke-miterlimit:10;stroke-width:2.736999988555908px"/><path d="M248.89,233.5a45.15,45.15,0,1,1-45.15-45.15,45.14,45.14,0,0,1,45.15,45.15" style="fill:#fff"/><path d="M244.06,233.9c0,10.26-5.92,20.79-12.23,27.88L203.74,233.9V193.77h.38a40,40,0,0,1,39.94,40.13" style="fill:#b6d993"/><line x1="203.74" y1="195.18" x2="203.74" y2="199.33" style="fill:none;stroke:#223064;stroke-linecap:round;stroke-miterlimit:10;stroke-width:2.736999988555908px;stroke-dasharray:25.177000045776367,7.6620001792907715,1094.6409912109375,25.177000045776367,7.6620001792907715,1094.6409912109375"/><line x1="203.74" y1="267.66" x2="203.74" y2="271.82" style="fill:none;stroke:#223064;stroke-linecap:round;stroke-miterlimit:10;stroke-width:2.736999988555908px;stroke-dasharray:25.177000045776367,7.6620001792907715,1094.6409912109375,25.177000045776367,7.6620001792907715,1094.6409912109375"/><line x1="242.06" y1="233.5" x2="237.91" y2="233.5" style="fill:none;stroke:#223064;stroke-linecap:round;stroke-miterlimit:10;stroke-width:2.736999988555908px;stroke-dasharray:25.177000045776367,7.6620001792907715,1094.6409912109375,25.177000045776367,7.6620001792907715,1094.6409912109375"/><line x1="169.58" y1="233.5" x2="165.42" y2="233.5" style="fill:none;stroke:#223064;stroke-linecap:round;stroke-miterlimit:10;stroke-width:2.736999988555908px;stroke-dasharray:25.177000045776367,7.6620001792907715,1094.6409912109375,25.177000045776367,7.6620001792907715,1094.6409912109375"/><line x1="230.84" y1="206.4" x2="227.9" y2="209.34" style="fill:none;stroke:#223064;stroke-linecap:round;stroke-miterlimit:10;stroke-width:2.736999988555908px;stroke-dasharray:25.177000045776367,7.6620001792907715,1094.6409912109375,25.177000045776367,7.6620001792907715,1094.6409912109375"/><line x1="179.58" y1="257.66" x2="176.64" y2="260.6" style="fill:none;stroke:#223064;stroke-linecap:round;stroke-miterlimit:10;stroke-width:2.736999988555908px;stroke-dasharray:25.177000045776367,7.6620001792907715,1094.6409912109375,25.177000045776367,7.6620001792907715,1094.6409912109375"/><line x1="230.84" y1="260.59" x2="227.9" y2="257.66" style="fill:none;stroke:#223064;stroke-linecap:round;stroke-miterlimit:10;stroke-width:2.736999988555908px;stroke-dasharray:25.177000045776367,7.6620001792907715,1094.6409912109375,25.177000045776367,7.6620001792907715,1094.6409912109375"/><line x1="179.58" y1="209.34" x2="176.64" y2="206.4" style="fill:none;stroke:#223064;stroke-linecap:round;stroke-miterlimit:10;stroke-width:2.736999988555908px;stroke-dasharray:25.177000045776367,7.6620001792907715,1094.6409912109375,25.177000045776367,7.6620001792907715,1094.6409912109375"/><line x1="197.87" y1="261.23" x2="202.61" y2="239.5" style="fill:none;stroke:#659eca;stroke-linecap:round;stroke-linejoin:round;stroke-width:3.2839999198913574px"/><line x1="200.24" y1="229.27" x2="188.46" y2="219.62" style="fill:none;stroke:#659eca;stroke-linecap:round;stroke-linejoin:round;stroke-width:3.2839999198913574px"/><path d="M209.64,233.5a5.9,5.9,0,1,1-5.9-5.9,5.9,5.9,0,0,1,5.9,5.9" style="fill:#659eca"/><path d="M209.64,233.5a5.9,5.9,0,1,1-5.9-5.9A5.9,5.9,0,0,1,209.64,233.5Z" style="fill:none;stroke:#659eca;stroke-linecap:round;stroke-linejoin:round;stroke-width:2.188999891281128px"/></g><g style="clip-path:url(#b)"><path d="M104.14,64.11c0-4.78-3.28-9.62-9.55-9.62H66.18c4.06-7.26,5.26-17.48,2.44-25-2.08-5.49-6-8.7-11.16-9h-.08a6.13,6.13,0,0,0-6.5,5.62c-.73,7.41-4,20.52-8.63,25.18-3.92,3.92-7.27,5.56-12.83,8.28L26.8,60.87a6.08,6.08,0,0,1,0,.61v46.45l2,.68c9.17,3.16,17.1,5.9,29.22,5.9H81c6.27,0,9.55-4.84,9.55-9.62a10.34,10.34,0,0,0-.86-4.14A9.07,9.07,0,0,0,95,97.83a9.85,9.85,0,0,0,2.38-6.54,10.32,10.32,0,0,0-.85-4.13,9.28,9.28,0,0,0,7.65-9.46,10,10,0,0,0-2.6-6.8,10,10,0,0,0,2.6-6.79" style="fill:#fabc93"/><path d="M104.14,64.11c0-4.78-3.28-9.62-9.55-9.62H66.18c4.06-7.26,5.26-17.48,2.44-25-2.08-5.49-6-8.7-11.16-9h-.08a6.13,6.13,0,0,0-6.5,5.62c-.73,7.41-4,20.52-8.63,25.18-3.92,3.92-7.27,5.56-12.83,8.28L26.8,60.87a6.08,6.08,0,0,1,0,.61v46.45l2,.68c9.17,3.16,17.1,5.9,29.22,5.9H81c6.27,0,9.55-4.84,9.55-9.62a10.34,10.34,0,0,0-.86-4.14A9.07,9.07,0,0,0,95,97.83a9.85,9.85,0,0,0,2.38-6.54,10.32,10.32,0,0,0-.85-4.13,9.28,9.28,0,0,0,7.65-9.46,10,10,0,0,0-2.6-6.8A10,10,0,0,0,104.14,64.11Z" style="fill:none;stroke:#c26f30;stroke-miterlimit:10;stroke-width:2.694999933242798px"/><path d="M23.87,58.55H6.28a2.9,2.9,0,0,0-2.93,2.93v46.93a2.9,2.9,0,0,0,2.93,2.93H23.87a2.9,2.9,0,0,0,2.93-2.93V61.48a2.9,2.9,0,0,0-2.93-2.93" style="fill:#659eca"/><path d="M23.87,58.55H6.28a2.9,2.9,0,0,0-2.93,2.93v46.93a2.9,2.9,0,0,0,2.93,2.93H23.87a2.9,2.9,0,0,0,2.93-2.93V61.48A2.9,2.9,0,0,0,23.87,58.55Z" style="fill:none;stroke:#659eca;stroke-linecap:round;stroke-linejoin:round;stroke-width:2.694999933242798px"/></g><line x1="6.56" y1="253.78" x2="108.66" y2="253.78" style="fill:none;stroke:#d6dfed;stroke-linecap:round;stroke-linejoin:round;stroke-width:2.227944296408549px"/><line x1="6.56" y1="232.6" x2="108.66" y2="232.6" style="fill:none;stroke:#d6dfed;stroke-linecap:round;stroke-linejoin:round;stroke-width:2.227944296408549px"/><line x1="6.56" y1="211.41" x2="108.66" y2="211.41" style="fill:none;stroke:#d6dfed;stroke-linecap:round;stroke-linejoin:round;stroke-width:2.227944296408549px"/><line x1="27.11" y1="196.37" x2="27.11" y2="275.09" style="fill:none;stroke:#d6dfed;stroke-linecap:round;stroke-linejoin:round;stroke-width:2.227944296408549px"/><line x1="52.23" y1="196.37" x2="52.23" y2="275.09" style="fill:none;stroke:#d6dfed;stroke-linecap:round;stroke-linejoin:round;stroke-width:2.227944296408549px"/><line x1="77.34" y1="196.37" x2="77.34" y2="275.09" style="fill:none;stroke:#d6dfed;stroke-linecap:round;stroke-linejoin:round;stroke-width:2.227944296408549px"/><line x1="102.45" y1="196.37" x2="102.45" y2="275.09" style="fill:none;stroke:#d6dfed;stroke-linecap:round;stroke-linejoin:round;stroke-width:2.227944296408549px"/><polygon points="105.43 275.09 105.43 228.03 76.11 250.77 62.23 236.89 5.11 271 5.11 275.09 105.43 275.09" style="fill:#b5d892"/><polyline points="5.11 191.91 5.11 275.09 112.89 275.09" style="fill:none;stroke:#516374;stroke-linecap:round;stroke-linejoin:round;stroke-width:2.227944296408549px"/><polyline points="12.28 267.43 62.23 236.89 76.11 250.77 105.43 228.03" style="fill:none;stroke:#72be44;stroke-linecap:round;stroke-linejoin:round;stroke-width:2.7849303705106863px;stroke-dasharray:14.481637954711914,7.797804832458496,334.191650390625"/><line x1="105.43" y1="228.03" x2="105.43" y2="237.37" style="fill:none;stroke:#72be44;stroke-linecap:round;stroke-linejoin:round;stroke-width:2.7849303705106863px;stroke-dasharray:14.481637954711914,11.139721870422363,334.191650390625"/><line x1="105.24" y1="227.64" x2="96.08" y2="227.64" style="fill:none;stroke:#72be44;stroke-linecap:round;stroke-linejoin:round;stroke-width:2.7849303705106863px;stroke-dasharray:14.481637954711914,11.139721870422363,334.191650390625"/><polyline points="217.28 11.01 213.66 20.93 181.37 109.79" style="fill:none;stroke:#f68f46;stroke-linecap:round;stroke-linejoin:round;stroke-width:3.3227813243865967px"/><line x1="156.67" y1="68.96" x2="226.97" y2="94.45" style="fill:#659cc9"/><path d="M239.7,76.23a43.34,43.34,0,1,1-26-55.3,43.22,43.22,0,0,1,26,55.3" style="fill:#d3e2ec;stroke:#d3e2ec;stroke-miterlimit:10;stroke-width:3.3227813243865967px"/><ellipse cx="198.96" cy="61.45" rx="43.1" ry="22.09" transform="translate(73.35 227.53) rotate(-70.06)" style="fill:#d3e2ec;stroke:#d3e2ec;stroke-miterlimit:10;stroke-width:3.3227813243865967px"/><line x1="171.08" y1="28.33" x2="241.55" y2="53.89" style="fill:#659cc9"/><line x1="158.22" y1="46.67" x2="239.7" y2="76.23" style="fill:#659cc9"/><line x1="156.67" y1="68.96" x2="226.97" y2="94.45" style="fill:none;stroke:#659cc9;stroke-miterlimit:10;stroke-width:3.3227813243865967px"/><ellipse cx="198.96" cy="61.45" rx="43.1" ry="22.09" transform="translate(73.35 227.53) rotate(-70.06)" style="fill:none;stroke:#659cc9;stroke-miterlimit:10;stroke-width:3.3227813243865967px"/><line x1="171.08" y1="28.33" x2="241.55" y2="53.89" style="fill:none;stroke:#659cc9;stroke-miterlimit:10;stroke-width:3.3227813243865967px"/><line x1="158.22" y1="46.67" x2="239.7" y2="76.23" style="fill:none;stroke:#659cc9;stroke-miterlimit:10;stroke-width:3.3227813243865967px"/><line x1="213.66" y1="20.93" x2="184.26" y2="101.97" style="fill:none;stroke:#659cc9;stroke-miterlimit:10;stroke-width:3.3227813243865967px"/><path d="M239.7,76.23a43.34,43.34,0,1,1-26-55.3,43.22,43.22,0,0,1,26,55.3" style="fill:none;stroke:#659cc9;stroke-miterlimit:10;stroke-width:3.3227813243865967px"/><path d="M251.85,61.45A52.89,52.89,0,0,1,199,114.34c-6.35,0-17.32-3.15-23-5.21" style="fill:none;stroke:#f68f46;stroke-linecap:round;stroke-linejoin:round;stroke-width:3.3227813243865967px"/><path d="M213.81,9.66c20.74,7.15,38,28.62,38,51.79" style="fill:none;stroke:#f68f46;stroke-linecap:round;stroke-linejoin:round;stroke-width:3.3227813243865967px"/><line x1="199.4" y1="115.67" x2="199.4" y2="123.57" style="fill:none;stroke:#f68f46;stroke-linecap:round;stroke-linejoin:round;stroke-width:3.3227813243865967px"/><line x1="171.79" y1="125.34" x2="227.47" y2="125.34" style="fill:none;stroke:#f68f46;stroke-linecap:round;stroke-linejoin:round;stroke-width:3.3227813243865967px"/><g style="clip-path:url(#c)"><path d="M398.19,45.62A49.77,49.77,0,1,1,355.54,21.4a49.47,49.47,0,0,1,35.24,14.71s3.35,3.5,4.33,4.78c.86,1.12,3.08,4.73,3.08,4.73" style="fill:#fff2be"/><path d="M398.19,45.62A49.77,49.77,0,1,1,355.54,21.4a49.47,49.47,0,0,1,35.24,14.71s3.35,3.5,4.33,4.78C396,42,398.19,45.62,398.19,45.62Z" style="fill:none;stroke:#f79047;stroke-miterlimit:10;stroke-width:3.437500400248076px"/><path d="M378.92,44.82a35.12,35.12,0,0,0-23.37-8.88,35.59,35.59,0,1,0,31.12,18.65s-2.19-3.43-3-4.51c-1.08-1.39-4.72-5.26-4.72-5.26" style="fill:#f79047"/><path d="M367.65,54.89a20.39,20.39,0,0,0-12.1-4,20.71,20.71,0,1,0,20.54,20.7,20.93,20.93,0,0,0-1.32-7.32,43.7,43.7,0,0,0-2.54-5,50.41,50.41,0,0,0-4.58-4.43" style="fill:#fff2be"/><path d="M362.66,71.62a7.12,7.12,0,1,1-7.11-7.17,7.14,7.14,0,0,1,7.11,7.17" style="fill:#f79047"/><polygon points="418.2 35.03 404.84 31.79 404.5 19.31 420.1 5.5 422.4 17.39 433.8 21.22 418.2 35.03" style="fill:#659eca"/><polygon points="418.2 35.03 404.84 31.79 404.5 19.31 420.1 5.5 422.4 17.39 433.8 21.22 418.2 35.03" style="fill:none;stroke:#0a2967;stroke-linecap:round;stroke-linejoin:round;stroke-width:2.750000320198461px"/><line x1="422.4" y1="17.39" x2="357.06" y2="70.95" style="fill:none;stroke:#0a2967;stroke-linecap:round;stroke-linejoin:round;stroke-width:3.437500400248076px"/></g></svg>