<svg xmlns="http://www.w3.org/2000/svg" viewBox="0 0 817 571"><rect x="1.7" y="94.73" width="764.77" height="397.84" rx="29.78" style="fill:#e5edf3"/><path d="M323.25,436.07h19.42a0,0,0,0,1,0,0v6.26a0,0,0,0,1,0,0H323.25a3.13,3.13,0,0,1-3.13-3.13v0A3.13,3.13,0,0,1,323.25,436.07Z" transform="translate(-107.8 770.6) rotate(-90)" style="fill:#b9b9ba"/><path d="M378.2,436.07h19.42a0,0,0,0,1,0,0v6.26a0,0,0,0,1,0,0H378.2a3.13,3.13,0,0,1-3.13-3.13v0A3.13,3.13,0,0,1,378.2,436.07Z" transform="translate(-52.85 825.54) rotate(-90)" style="fill:#b9b9ba"/><path d="M462.77,436.07h19.42a0,0,0,0,1,0,0v6.26a0,0,0,0,1,0,0H462.77a3.13,3.13,0,0,1-3.13-3.13v0A3.13,3.13,0,0,1,462.77,436.07Z" transform="translate(31.72 910.11) rotate(-90)" style="fill:#b9b9ba"/><path d="M517.71,436.07h19.42a0,0,0,0,1,0,0v6.26a0,0,0,0,1,0,0H517.71a3.13,3.13,0,0,1-3.13-3.13v0a3.13,3.13,0,0,1,3.13-3.13Z" transform="translate(86.66 965.05) rotate(-90)" style="fill:#b9b9ba"/><rect x="305.85" y="342.57" width="109.62" height="89.51" rx="24.71" style="fill:#e4a47a"/><rect x="441.93" y="342.57" width="109.62" height="89.51" rx="24.71" style="fill:#e4a47a"/><path d="M297.39,463.37H814.25a0,0,0,0,1,0,0v6.26a0,0,0,0,1,0,0H297.39a3.13,3.13,0,0,1-3.13-3.13v0a3.13,3.13,0,0,1,3.13-3.13Z" style="fill:#b9b9ba"/><path d="M302.39,488.22H355.2a0,0,0,0,1,0,0v6.26a0,0,0,0,1,0,0H302.39a3.13,3.13,0,0,1-3.13-3.13v0A3.13,3.13,0,0,1,302.39,488.22Z" transform="translate(-164.12 818.58) rotate(-90)" style="fill:#b9b9ba"/><path d="M365.67,488.22h52.82a0,0,0,0,1,0,0v6.26a0,0,0,0,1,0,0H365.67a3.13,3.13,0,0,1-3.13-3.13v0A3.13,3.13,0,0,1,365.67,488.22Z" transform="translate(-100.83 881.86) rotate(-90)" style="fill:#b9b9ba"/><path d="M440.6,488.22h52.82a0,0,0,0,1,0,0v6.26a0,0,0,0,1,0,0H440.6a3.13,3.13,0,0,1-3.13-3.13v0A3.13,3.13,0,0,1,440.6,488.22Z" transform="translate(-25.9 956.79) rotate(-90)" style="fill:#b9b9ba"/><path d="M503.89,488.22H556.7a0,0,0,0,1,0,0v6.26a0,0,0,0,1,0,0H503.89a3.13,3.13,0,0,1-3.13-3.13v0A3.13,3.13,0,0,1,503.89,488.22Z" transform="translate(37.38 1020.08) rotate(-90)" style="fill:#b9b9ba"/><path d="M597.48,436.07H616.9a0,0,0,0,1,0,0v6.26a0,0,0,0,1,0,0H597.48a3.13,3.13,0,0,1-3.13-3.13v0A3.13,3.13,0,0,1,597.48,436.07Z" transform="translate(166.43 1044.82) rotate(-90)" style="fill:#b9b9ba"/><path d="M652.42,436.07h19.42a0,0,0,0,1,0,0v6.26a0,0,0,0,1,0,0H652.42a3.13,3.13,0,0,1-3.13-3.13v0A3.13,3.13,0,0,1,652.42,436.07Z" transform="translate(221.37 1099.77) rotate(-90)" style="fill:#b9b9ba"/><path d="M737,436.07h19.42a0,0,0,0,1,0,0v6.26a0,0,0,0,1,0,0H737a3.13,3.13,0,0,1-3.13-3.13v0A3.13,3.13,0,0,1,737,436.07Z" transform="translate(305.95 1184.34) rotate(-90)" style="fill:#b9b9ba"/><path d="M791.94,436.07h19.42a0,0,0,0,1,0,0v6.26a0,0,0,0,1,0,0H791.94a3.13,3.13,0,0,1-3.13-3.13v0A3.13,3.13,0,0,1,791.94,436.07Z" transform="translate(360.89 1239.28) rotate(-90)" style="fill:#b9b9ba"/><rect x="580.08" y="342.57" width="109.62" height="89.51" rx="24.71" style="fill:#e4a47a"/><path d="M814.25,428.27a22.22,22.22,0,0,1-13.18,3.81h-60.2a24.71,24.71,0,0,1-24.71-24.71V367.28a24.71,24.71,0,0,1,24.71-24.71h60.2a24.64,24.64,0,0,1,13.19,3.81" style="fill:#e4a47a"/><path d="M576.61,488.22h52.82a0,0,0,0,1,0,0v6.26a0,0,0,0,1,0,0H576.61a3.13,3.13,0,0,1-3.13-3.13v0A3.13,3.13,0,0,1,576.61,488.22Z" transform="translate(110.11 1092.8) rotate(-90)" style="fill:#b9b9ba"/><path d="M639.9,488.22h52.82a0,0,0,0,1,0,0v6.26a0,0,0,0,1,0,0H639.9a3.13,3.13,0,0,1-3.13-3.13v0a3.13,3.13,0,0,1,3.13-3.13Z" transform="translate(173.4 1156.09) rotate(-90)" style="fill:#b9b9ba"/><path d="M714.83,488.22h52.82a0,0,0,0,1,0,0v6.26a0,0,0,0,1,0,0H714.83a3.13,3.13,0,0,1-3.13-3.13v0A3.13,3.13,0,0,1,714.83,488.22Z" transform="translate(248.33 1231.02) rotate(-90)" style="fill:#b9b9ba"/><path d="M778.11,488.22h52.82a0,0,0,0,1,0,0v6.26a0,0,0,0,1,0,0H778.11a3.13,3.13,0,0,1-3.13-3.13v0A3.13,3.13,0,0,1,778.11,488.22Z" transform="translate(311.61 1294.3) rotate(-90)" style="fill:#b9b9ba"/><rect x="306.2" y="443.56" width="109.62" height="19.81" rx="8.97" style="fill:#f68f46;stroke:#f68f46;stroke-linecap:round;stroke-linejoin:round;stroke-width:2.085379479551248px"/><rect x="442.28" y="444.6" width="109.62" height="19.81" rx="8.97" style="fill:#f68f46;stroke:#f68f46;stroke-linecap:round;stroke-linejoin:round;stroke-width:2.085379479551248px"/><rect x="580.42" y="444.6" width="109.62" height="19.81" rx="8.97" style="fill:#f68f46;stroke:#f68f46;stroke-linecap:round;stroke-linejoin:round;stroke-width:2.085379479551248px"/><path d="M814.25,464.42H725.47a9,9,0,0,1-9-9v-1.88a9,9,0,0,1,9-9h88.78Z" style="fill:#f68f46;stroke:#f68f46;stroke-linecap:round;stroke-linejoin:round;stroke-width:2.085379479551248px"/><rect x="270.21" y="341.38" width="46.67" height="218.18" rx="12.19" style="fill:none;stroke:#516374;stroke-linecap:round;stroke-linejoin:round;stroke-width:6.256138438653759px"/><circle cx="188.86" cy="71.23" r="63.92" style="fill:#b9b9ba"/><circle cx="188.86" cy="71.23" r="7.32" style="fill:none;stroke:#223064;stroke-linecap:round;stroke-miterlimit:10;stroke-width:2.6067243494390637px"/><circle cx="188.86" cy="71.23" r="56.1" style="fill:#fff"/><line x1="188.86" y1="23.62" x2="188.86" y2="28.78" style="fill:none;stroke:#223064;stroke-linecap:round;stroke-miterlimit:10;stroke-width:2.6067243494390637px;stroke-dasharray:23.98186492919922,7.298828125,1042.689697265625"/><line x1="188.86" y1="113.67" x2="188.86" y2="118.83" style="fill:none;stroke:#223064;stroke-linecap:round;stroke-miterlimit:10;stroke-width:2.6067243494390637px;stroke-dasharray:23.98186492919922,7.298828125,1042.689697265625"/><line x1="236.47" y1="71.23" x2="231.31" y2="71.23" style="fill:none;stroke:#223064;stroke-linecap:round;stroke-miterlimit:10;stroke-width:2.6067243494390637px;stroke-dasharray:23.98186492919922,7.298828125,1042.689697265625"/><line x1="146.42" y1="71.23" x2="141.26" y2="71.23" style="fill:none;stroke:#223064;stroke-linecap:round;stroke-miterlimit:10;stroke-width:2.6067243494390637px;stroke-dasharray:23.98186492919922,7.298828125,1042.689697265625"/><line x1="222.53" y1="37.56" x2="218.88" y2="41.21" style="fill:none;stroke:#223064;stroke-linecap:round;stroke-miterlimit:10;stroke-width:2.6067243494390637px;stroke-dasharray:23.98186492919922,7.298828125,1042.689697265625"/><line x1="158.85" y1="101.24" x2="155.2" y2="104.89" style="fill:none;stroke:#223064;stroke-linecap:round;stroke-miterlimit:10;stroke-width:2.6067243494390637px;stroke-dasharray:23.98186492919922,7.298828125,1042.689697265625"/><line x1="222.53" y1="104.89" x2="218.88" y2="101.24" style="fill:none;stroke:#223064;stroke-linecap:round;stroke-miterlimit:10;stroke-width:2.6067243494390637px;stroke-dasharray:23.98186492919922,7.298828125,1042.689697265625"/><line x1="158.85" y1="41.21" x2="155.2" y2="37.56" style="fill:none;stroke:#223064;stroke-linecap:round;stroke-miterlimit:10;stroke-width:2.6067243494390637px;stroke-dasharray:23.98186492919922,7.298828125,1042.689697265625"/><line x1="197.8" y1="36.4" x2="191.91" y2="63.39" style="fill:none;stroke:#659cc9;stroke-linecap:round;stroke-linejoin:round;stroke-width:3.1280692193268793px"/><line x1="194.31" y1="76.11" x2="208.95" y2="88.09" style="fill:none;stroke:#659cc9;stroke-linecap:round;stroke-linejoin:round;stroke-width:3.1280692193268793px"/><circle cx="188.86" cy="71.23" r="7.32" style="fill:#659cc9;stroke:#659cc9;stroke-linecap:round;stroke-linejoin:round;stroke-width:2.085379479551248px"/><circle cx="375.34" cy="71.23" r="63.92" style="fill:#b9b9ba"/><circle cx="375.34" cy="71.23" r="7.32" style="fill:none;stroke:#223064;stroke-linecap:round;stroke-miterlimit:10;stroke-width:2.6067243494390637px"/><circle cx="375.34" cy="71.23" r="56.1" style="fill:#fff"/><line x1="375.34" y1="23.62" x2="375.34" y2="28.78" style="fill:none;stroke:#223064;stroke-linecap:round;stroke-miterlimit:10;stroke-width:2.6067243494390637px;stroke-dasharray:23.98186492919922,7.298828125,1042.689697265625"/><line x1="375.34" y1="113.67" x2="375.34" y2="118.83" style="fill:none;stroke:#223064;stroke-linecap:round;stroke-miterlimit:10;stroke-width:2.6067243494390637px;stroke-dasharray:23.98186492919922,7.298828125,1042.689697265625"/><line x1="422.95" y1="71.23" x2="417.78" y2="71.23" style="fill:none;stroke:#223064;stroke-linecap:round;stroke-miterlimit:10;stroke-width:2.6067243494390637px;stroke-dasharray:23.98186492919922,7.298828125,1042.689697265625"/><line x1="332.89" y1="71.23" x2="327.73" y2="71.23" style="fill:none;stroke:#223064;stroke-linecap:round;stroke-miterlimit:10;stroke-width:2.6067243494390637px;stroke-dasharray:23.98186492919922,7.298828125,1042.689697265625"/><line x1="409" y1="37.56" x2="405.35" y2="41.21" style="fill:none;stroke:#223064;stroke-linecap:round;stroke-miterlimit:10;stroke-width:2.6067243494390637px;stroke-dasharray:23.98186492919922,7.298828125,1042.689697265625"/><line x1="345.32" y1="101.24" x2="341.67" y2="104.89" style="fill:none;stroke:#223064;stroke-linecap:round;stroke-miterlimit:10;stroke-width:2.6067243494390637px;stroke-dasharray:23.98186492919922,7.298828125,1042.689697265625"/><line x1="409" y1="104.89" x2="405.35" y2="101.24" style="fill:none;stroke:#223064;stroke-linecap:round;stroke-miterlimit:10;stroke-width:2.6067243494390637px;stroke-dasharray:23.98186492919922,7.298828125,1042.689697265625"/><line x1="345.32" y1="41.21" x2="341.67" y2="37.56" style="fill:none;stroke:#223064;stroke-linecap:round;stroke-miterlimit:10;stroke-width:2.6067243494390637px;stroke-dasharray:23.98186492919922,7.298828125,1042.689697265625"/><line x1="384.28" y1="36.4" x2="378.38" y2="63.39" style="fill:none;stroke:#659cc9;stroke-linecap:round;stroke-linejoin:round;stroke-width:3.1280692193268793px"/><line x1="369.06" y1="74.8" x2="354.88" y2="87.32" style="fill:none;stroke:#659cc9;stroke-linecap:round;stroke-linejoin:round;stroke-width:3.1280692193268793px"/><circle cx="375.34" cy="71.23" r="7.32" style="fill:#659cc9;stroke:#659cc9;stroke-linecap:round;stroke-linejoin:round;stroke-width:2.085379479551248px"/><circle cx="561.81" cy="71.23" r="63.92" style="fill:#b9b9ba"/><circle cx="561.81" cy="71.23" r="7.32" style="fill:none;stroke:#223064;stroke-linecap:round;stroke-miterlimit:10;stroke-width:2.6067243494390637px"/><circle cx="561.81" cy="71.23" r="56.1" style="fill:#fff"/><line x1="561.81" y1="23.62" x2="561.81" y2="28.78" style="fill:none;stroke:#223064;stroke-linecap:round;stroke-miterlimit:10;stroke-width:2.6067243494390637px;stroke-dasharray:23.98186492919922,7.298828125,1042.689697265625"/><line x1="561.81" y1="113.67" x2="561.81" y2="118.83" style="fill:none;stroke:#223064;stroke-linecap:round;stroke-miterlimit:10;stroke-width:2.6067243494390637px;stroke-dasharray:23.98186492919922,7.298828125,1042.689697265625"/><line x1="609.42" y1="71.23" x2="604.26" y2="71.23" style="fill:none;stroke:#223064;stroke-linecap:round;stroke-miterlimit:10;stroke-width:2.6067243494390637px;stroke-dasharray:23.98186492919922,7.298828125,1042.689697265625"/><line x1="519.36" y1="71.23" x2="514.2" y2="71.23" style="fill:none;stroke:#223064;stroke-linecap:round;stroke-miterlimit:10;stroke-width:2.6067243494390637px;stroke-dasharray:23.98186492919922,7.298828125,1042.689697265625"/><line x1="595.47" y1="37.56" x2="591.83" y2="41.21" style="fill:none;stroke:#223064;stroke-linecap:round;stroke-miterlimit:10;stroke-width:2.6067243494390637px;stroke-dasharray:23.98186492919922,7.298828125,1042.689697265625"/><line x1="531.8" y1="101.24" x2="528.15" y2="104.89" style="fill:none;stroke:#223064;stroke-linecap:round;stroke-miterlimit:10;stroke-width:2.6067243494390637px;stroke-dasharray:23.98186492919922,7.298828125,1042.689697265625"/><line x1="595.47" y1="104.89" x2="591.83" y2="101.24" style="fill:none;stroke:#223064;stroke-linecap:round;stroke-miterlimit:10;stroke-width:2.6067243494390637px;stroke-dasharray:23.98186492919922,7.298828125,1042.689697265625"/><line x1="531.8" y1="41.21" x2="528.15" y2="37.56" style="fill:none;stroke:#223064;stroke-linecap:round;stroke-miterlimit:10;stroke-width:2.6067243494390637px;stroke-dasharray:23.98186492919922,7.298828125,1042.689697265625"/><line x1="570.75" y1="36.4" x2="564.86" y2="63.39" style="fill:none;stroke:#659cc9;stroke-linecap:round;stroke-linejoin:round;stroke-width:3.1280692193268793px"/><line x1="544.13" y1="54" x2="558.77" y2="65.99" style="fill:none;stroke:#659cc9;stroke-linecap:round;stroke-linejoin:round;stroke-width:3.1280692193268793px"/><circle cx="561.81" cy="71.23" r="7.32" style="fill:#659cc9;stroke:#659cc9;stroke-linecap:round;stroke-linejoin:round;stroke-width:2.085379479551248px"/><polyline points="532.93 187.56 508.51 170.2 517.68 166.41 552.75 180.8" style="fill:#fff;stroke:#e5e5e4;stroke-linecap:round;stroke-linejoin:round;stroke-width:2.6067243494390637px"/><polyline points="547.93 212.84 543.75 214.57 537.72 249.89 548.81 245.31 565.5 205.59 547.93 212.84" style="fill:#fff;stroke:#e5e5e4;stroke-linecap:round;stroke-linejoin:round;stroke-width:2.6067243494390637px"/><path d="M504.58,200.86c26.56-11.34,70.43-29.66,79.13-32.12,12.51-3.55,32.31-3.15,33.94.8,1.51,3.67-5.83,16.92-13.87,20.23l-101.72,42" style="fill:#fff;stroke:#fff;stroke-linecap:round;stroke-linejoin:round;stroke-width:2.6067243494390637px"/><path d="M504.58,200.86l-26.25,1.53-19.89-12.58-11.95,4.94,27.95,33.78h0l27.62,3.26" style="fill:#fff;stroke:#e5e5e4;stroke-linecap:round;stroke-linejoin:round;stroke-width:2.6067243494390637px"/><polyline points="609.57 167.02 592.85 173.93 592.17 185.13 607.79 178.71" style="fill:none;stroke:#e2e2e2;stroke-linecap:round;stroke-linejoin:round;stroke-width:2.6067243494390637px"/><line x1="579.76" y1="185.18" x2="485.87" y2="223.9" style="fill:none;stroke:#223064;stroke-linecap:round;stroke-linejoin:round;stroke-width:2.6067243494390637px;stroke-dasharray:2.0853793621063232,5.213448524475098"/><path d="M504.58,200.86c26.56-11.34,70.43-29.66,79.13-32.12,12.51-3.55,32.31-3.15,33.94.8,1.51,3.67-5.83,16.92-13.87,20.23l-101.72,42" style="fill:none;stroke:#e2e2e2;stroke-linecap:round;stroke-linejoin:round;stroke-width:2.6067243494390637px"/><line x1="375.64" y1="284.38" x2="436.02" y2="259.43" style="fill:none;stroke:#fff;stroke-linecap:round;stroke-linejoin:round;stroke-width:3.1280692193268793px;stroke-dasharray:7.298828125,7.298828125,1042.689697265625,1.0426896810531616"/><line x1="431.19" y1="237.07" x2="389.87" y2="254.14" style="fill:none;stroke:#fff;stroke-linecap:round;stroke-linejoin:round;stroke-width:3.1280692193268793px;stroke-dasharray:5.213448524475098,7.298828125,1042.689697265625,1.0426896810531616"/><line x1="434.38" y1="248.33" x2="384.19" y2="269.06" style="fill:none;stroke:#fff;stroke-linecap:round;stroke-linejoin:round;stroke-width:3.1280692193268793px;stroke-dasharray:5.213448524475098,8.341517448425293,1042.689697265625,1.0426896810531616"/><rect x="236.2" y="411.49" width="114.7" height="154.35" rx="23.34" style="fill:#659cc9"/><line x1="257.74" y1="437.31" x2="257.74" y2="534.62" style="fill:none;stroke:#538aae;stroke-linecap:round;stroke-linejoin:round;stroke-width:6.256138438653759px"/><line x1="281.15" y1="437.31" x2="281.15" y2="534.62" style="fill:none;stroke:#538aae;stroke-linecap:round;stroke-linejoin:round;stroke-width:6.256138438653759px"/><line x1="304.55" y1="437.31" x2="304.55" y2="534.62" style="fill:none;stroke:#538aae;stroke-linecap:round;stroke-linejoin:round;stroke-width:6.256138438653759px"/><line x1="327.95" y1="437.31" x2="327.95" y2="534.62" style="fill:none;stroke:#538aae;stroke-linecap:round;stroke-linejoin:round;stroke-width:6.256138438653759px"/><rect x="357.17" y="480.93" width="17.16" height="82.89" transform="translate(-60.71 48.26) rotate(-6.97)" style="fill:#516374;stroke:#516374;stroke-linecap:round;stroke-linejoin:round;stroke-width:6.256138438653759px"/><path d="M47.57,354.57s-1,9.69-.63,28.7h0s.91,56.75.89,75.41c0,22.11,6.24,87.42,6.24,87.42l11.74-1.36s2.07-62.37,2.92-83.91c.75-19.27,4.64-77.56,4.64-77.56h5.72S81.7,440,81.63,458.68c-.07,22.11,2.8,86.06,2.8,86.06l11.58.79s5.62-63.17,6.52-84.7c.81-19.28.73-58.3,2-77.56.54-7.72-.41-28.7-.41-28.7Z" style="fill:#c16f30"/><path d="M45.52,344.22S33.64,407.56,46.28,461l56.17-.17c18.62-53.42,2.47-116.61,2.47-116.61Z" style="fill:#f6e05a;stroke:#f6e05a;stroke-linecap:round;stroke-linejoin:round;stroke-width:2.6067243494390637px"/><path d="M41.28,279.07c-2,29.42,5.95,39.14,7.6,50.5.37,2.58-2.34,7.44-4.39,14.19l61.77.48s-4.45-10.93-4.39-14.67c.24-12.69,6.52-27.33,5.24-50.5l-18,16.85-31.41,7.95-1.17,9.47" style="fill:#d3e2ec"/><path d="M46.19,318.21c4.67,5.62,15.09-2.29,66.08,1.46l1,10.24c-31.29,1.86-82.63,14.21-82.11,3.26.69-14.52.17-43.25.17-57.78l2.4-12.71a4.91,4.91,0,0,1,2.78-3.76l11.8-5.53,12.31-9.09L67,248.57l8.33,5.51h0l8.34-5.51,6.43-4.27,12.32,9.09,11.8,5.53a4.93,4.93,0,0,1,2.78,3.76l4,11.6c0,14.89,3.57,22.5,2.85,37.38-.59,12,32.46-.82,31.28,10.86l28.41,3.34c-20-2.58-63.43,10.48-68.56,0-7-14.2-7-24.65-7-24.65" style="fill:#d3e2ec"/><polyline points="49.19 253.97 64.64 264.7 75.36 254.03" style="fill:none;stroke:#8bb2d2;stroke-linecap:round;stroke-linejoin:round;stroke-width:2.085379479551248px"/><polyline points="101.53 253.97 86.09 264.7 75.36 254.03" style="fill:none;stroke:#8bb2d2;stroke-linecap:round;stroke-linejoin:round;stroke-width:2.085379479551248px"/><path d="M53,239.81c-10.44-6.3-17.27-6.32-17.27-18.14,0-19.24,18.09-45.27,40.4-45.27s40.41,26,40.41,45.27c0,11.82-6.83,11.84-17.27,18.14l-9.58-9H63Z" style="fill:#213264;stroke:#213264;stroke-linecap:round;stroke-linejoin:round;stroke-width:2.6067243494390637px"/><path d="M54.07,546.1a11.49,11.49,0,0,1-3.34,7.6c-2.24,2-4.81,2.92-6.55,4.55-4.66,4.36-6.61,8.33-5.08,10.74,2.29,3.62,9.55,2.07,17.31-2.4,3.13-1.8,4.4-6.28,6.12-8.34,2.55-3.06,5.74-4,4.7-8l-1.42-5.46" style="fill:#c16f30"/><path d="M112.8,329.18c3.89-.57,6.83-.73,8.21-.29,1.7.54,3.1,1.91,5,1.44l9.19-1a5.15,5.15,0,0,0,3.73-6.25l-1.22-4.53a5.14,5.14,0,0,0-6.25-3.73l-8.9,1.9a10.46,10.46,0,0,0-4.59,2.45c-.66.57-3,1.19-6.51,1.84" style="fill:#c16f30;stroke:#c16f30;stroke-miterlimit:10;stroke-width:2.085379479551248px"/><path d="M153.65,327.46c1.46,1,2.38,2.75,4.29,2.87l9.08,1.78a5.16,5.16,0,0,0,5.44-4.84l.21-4.68a5.15,5.15,0,0,0-4.84-5.44l-9.07-.88a10.43,10.43,0,0,0-5.11,1c-.8.34-1.74,7.9,0,10.23" style="fill:#c16f30;stroke:#c16f30;stroke-miterlimit:10;stroke-width:2.085379479551248px"/><path d="M84.67,233.68c9-3.69,15.35-13.07,15.35-24.07,0-14.22-10.66-25.75-23.8-25.75s-23.81,11.53-23.81,25.75c0,11,6.44,20.48,15.48,24.13,0,0,2.65,1.74,8.33,1.74A24,24,0,0,0,84.67,233.68Z" style="fill:#c16f30;stroke:#c16f30;stroke-miterlimit:10;stroke-width:2.085379479551248px"/><path d="M73.63,205.71a6,6,0,0,1,5.27,0" style="fill:none;stroke:#213264;stroke-linecap:round;stroke-linejoin:round;stroke-width:2.6067243494390637px"/><line x1="95.15" y1="207.6" x2="99.95" y2="207.6" style="fill:none;stroke:#213264;stroke-linecap:round;stroke-linejoin:round;stroke-width:2.6067243494390637px"/><line x1="52.41" y1="207.6" x2="57.21" y2="207.6" style="fill:none;stroke:#213264;stroke-linecap:round;stroke-linejoin:round;stroke-width:2.6067243494390637px"/><circle cx="68.16" cy="211.08" r="1.01" style="fill:none;stroke:#682d14;stroke-linecap:round;stroke-linejoin:round;stroke-width:2.6067243494390637px"/><circle cx="88.6" cy="211.14" r="1.01" style="fill:none;stroke:#682d14;stroke-linecap:round;stroke-linejoin:round;stroke-width:2.6067243494390637px"/><path d="M84,221.84s-2.17,3.5-7.71,3.5a9.62,9.62,0,0,1-7.72-3.5" style="fill:none;stroke:#682d14;stroke-linecap:round;stroke-linejoin:round;stroke-width:2.6067243494390637px"/><path d="M81.21,203.42H91.57a2.31,2.31,0,0,1,2.31,2.31v5.88A4.85,4.85,0,0,1,89,216.46H83a4.13,4.13,0,0,1-4.13-4.13v-6.6A2.31,2.31,0,0,1,81.21,203.42Z" style="fill:none;stroke:#213264;stroke-linecap:round;stroke-linejoin:round;stroke-width:2.6067243494390637px"/><path d="M62.06,203.42h6a4.85,4.85,0,0,1,4.85,4.85v5.88a2.31,2.31,0,0,1-2.31,2.31H60.24a2.31,2.31,0,0,1-2.31-2.31v-6.6A4.13,4.13,0,0,1,62.06,203.42Z" transform="translate(130.84 419.88) rotate(-180)" style="fill:none;stroke:#213264;stroke-linecap:round;stroke-linejoin:round;stroke-width:2.6067243494390637px"/><path d="M58.11,190s15.16,7.73,36.11,0c0,0,1-9.27-7.83-9.66S55.37,186.33,58.11,190Z" style="fill:#213264;stroke:#213264;stroke-linecap:round;stroke-linejoin:round;stroke-width:2.6067243494390637px"/><path d="M65.81,544.74l1.42,5.46c1,4-2.15,5-4.7,8-1.72,2.06-3,6.54-6.12,8.34-7.76,4.47-15,6-17.31,2.4-1.53-2.41.42-6.38,5.08-10.74a21.38,21.38,0,0,1,3.62-2.45c-2,2.88-2.67,5.66-1.43,6.91,1.63,1.63,5.93,0,9.59-3.69a43.28,43.28,0,0,0,7.36-10.38C64,547.46,65.81,544.74,65.81,544.74Z" style="fill:#b9b9ba"/><path d="M96,545.53a11,11,0,0,0,3.5,8.17c2.24,2,4.82,2.92,6.55,4.55,4.67,4.36,6.62,8.33,5.09,10.74-2.3,3.62-9.56,2.07-17.32-2.4-3.13-1.8-4.4-6.28-6.12-8.34-2.55-3.06-5.74-4-4.7-8l1.42-5.46" style="fill:#c16f30"/><path d="M84.43,544.74,83,550.2c-1,4,2.15,5,4.7,8,1.72,2.06,3,6.54,6.12,8.34,7.76,4.47,15,6,17.32,2.4,1.53-2.41-.42-6.38-5.09-10.74a21.69,21.69,0,0,0-3.61-2.45c2,2.88,2.66,5.66,1.42,6.91-1.63,1.63-5.92,0-9.59-3.69a43.57,43.57,0,0,1-7.36-10.38C86.27,547.46,84.43,544.74,84.43,544.74Z" style="fill:#b9b9ba"/><line x1="107.89" y1="354.51" x2="105.92" y2="365.97" style="fill:#d3e2ec"/><rect x="122.13" y="328.52" width="139.72" height="10.28" style="fill:#dddddc"/><rect x="163.56" y="337.43" width="56.86" height="228.4" style="fill:#dddddc"/><path d="M245.33,328.57H183a3.91,3.91,0,0,1-3.9-3.9l12.51-50.82a3.91,3.91,0,0,1,3.9-3.9h62.34a3.9,3.9,0,0,1,3.89,3.9l-12.51,50.82A3.91,3.91,0,0,1,245.33,328.57Z" style="fill:#b9b9ba"/><line x1="133.98" y1="325.86" x2="180.34" y2="325.86" style="fill:none;stroke:#516374;stroke-linecap:round;stroke-linejoin:round;stroke-width:6.256138438653759px"/></svg>