<svg xmlns="http://www.w3.org/2000/svg" xmlns:xlink="http://www.w3.org/1999/xlink" viewBox="0 0 436 355"><defs><clipPath id="a"><rect x="246.31" y="198.29" width="143.86" height="143.86" style="fill:none"/></clipPath><clipPath id="b"><rect x="34.65" y="185" width="158.2" height="158.2" style="fill:none"/></clipPath><clipPath id="c"><rect x="34.65" y="32.07" width="158.2" height="158.2" style="fill:none"/></clipPath><clipPath id="d"><rect x="240.43" y="32.07" width="158.2" height="158.2" style="fill:none"/></clipPath></defs><rect x="-0.25" y="24.41" width="436.5" height="330.52" style="fill:#526374"/><rect x="-0.25" width="436.5" height="24.41" style="fill:#bbb"/><rect x="418.05" y="6.5" width="12.36" height="12.36" style="fill:#dcdbdb"/><path d="M428.32,16.78h-8.19V8.59h8.19Zm4.17-12.36H416V20.94h16.53Z" style="fill:#dcdbdb"/><rect x="398.22" y="6.5" width="12.36" height="12.36" style="fill:#dcdbdb"/><path d="M408.5,16.78h-8.2V8.59h8.2Zm4.16-12.36H396.14V20.94h16.52Z" style="fill:#dcdbdb"/><rect x="378.39" y="6.5" width="12.36" height="12.36" style="fill:#dcdbdb"/><path d="M388.67,16.78h-8.19V8.59h8.19Zm4.17-12.36H376.31V20.94h16.53Z" style="fill:#dcdbdb"/><rect x="10.85" y="37.61" width="205.78" height="152.66" style="fill:#659eca"/><rect x="216.63" y="37.61" width="205.78" height="152.66" style="fill:#f79047"/><rect x="216.63" y="190.27" width="205.78" height="152.66" style="fill:#fff"/><rect x="10.85" y="190.27" width="205.78" height="152.66" style="fill:#f7e15b"/><g style="clip-path:url(#a)"><path d="M275.62,338.76c-2.64,38.18,7.72,50.8,9.86,65.55.49,3.35-3,9.65-5.7,18.41l80.19.63s-5.78-14.19-5.69-19c.31-16.47,8.46-35.49,6.79-65.55l-23.35,21.86L296.94,371l-1.52,12.29" style="fill:#d4e3ee"/><path d="M282,389.56c-.72,14.63-8.75,69.76-11.2,87.45l-17.19-2.36c3.27-18.08,8.16-51.46,8.84-65.67.9-18.85.22-56.14.22-75l3.12-16.5a6.39,6.39,0,0,1,3.61-4.88l15.31-7.17,16-11.8,8.35,5.53,10.82,7.16,10.82-7.16,8.36-5.53,16,11.8,15.32,7.17a6.39,6.39,0,0,1,3.61,4.88l5.16,15.06c0,19.33,2.17,57.92,1.23,77.23-.76,15.54-7,54.36-8.59,69.52l-15.29-1.92c3.66-16.7,7.22-54.34,8-69.47.9-18.84-2.14-40.39-2.14-40.39" style="fill:#d4e3ee"/><path d="M305.94,321.26a1.15,1.15,0,0,1-.67-.2l-20-13.93a1.17,1.17,0,0,1-.29-1.63,1.15,1.15,0,0,1,1.63-.29l19.24,13.37L319,305.41a1.17,1.17,0,0,1,1.65,1.66l-13.93,13.85a1.14,1.14,0,0,1-.82.34" style="fill:#8cb3d3"/><path d="M333.79,321.26a1.13,1.13,0,0,1-.82-.34L319,307.07a1.17,1.17,0,0,1,0-1.65,1.18,1.18,0,0,1,1.66,0l13.23,13.17,19.25-13.37a1.17,1.17,0,1,1,1.33,1.92l-20,13.93a1.17,1.17,0,0,1-.67.2" style="fill:#8cb3d3"/><path d="M290.87,287.79c-13.56-8.18-22.42-8.21-22.42-23.56,0-25,23.48-58.76,52.45-58.76s52.45,33.78,52.45,58.76c0,15.35-8.86,15.38-22.42,23.56L338.5,276.1H303.77Z" style="fill:#203264"/><path d="M290.87,289.25a1.5,1.5,0,0,1-.76-.21c-3-1.82-5.83-3.25-8.31-4.51C272.88,280,267,277,267,264.23,267,237.12,291.86,204,320.9,204s53.91,33.12,53.91,60.23c0,12.79-5.89,15.78-14.81,20.3-2.48,1.26-5.3,2.69-8.31,4.51a1.46,1.46,0,0,1-1.76-.19l-12-11.29H304.34l-12.49,11.31a1.47,1.47,0,0,1-1,.38m30-82.32c-27,0-51,32-51,57.3,0,11,4.69,13.37,13.21,17.69,2.28,1.16,4.82,2.45,7.57,4.06l12.1-11a1.48,1.48,0,0,1,1-.38H338.5a1.44,1.44,0,0,1,1,.4L351.13,286c2.74-1.61,5.28-2.9,7.55-4.05,8.52-4.32,13.21-6.7,13.21-17.69,0-25.26-24-57.3-51-57.3" style="fill:#203264"/><path d="M332,279.83c11.64-4.79,19.92-17,19.92-31.25,0-18.46-13.84-33.43-30.9-33.43s-30.9,15-30.9,33.43c0,14.35,8.36,26.58,20.09,31.32,0,0,3.44,2.27,10.81,2.27a31.17,31.17,0,0,0,11-2.34" style="fill:#c26f30"/><path d="M321,283.34c-7,0-10.65-2-11.34-2.39-12.4-5.06-20.73-18.05-20.73-32.37,0-19.08,14.38-34.6,32.07-34.6S353,229.5,353,248.58c0,14.25-8.3,27.24-20.64,32.33A32.1,32.1,0,0,1,321,283.34m0-67c-16.4,0-29.73,14.47-29.73,32.26,0,13.41,7.78,25.56,19.36,30.24l.21.11S314.11,281,321,281a30.25,30.25,0,0,0,10.51-2.24h0C343,274,350.7,261.9,350.7,248.58c0-17.79-13.34-32.26-29.73-32.26" style="fill:#c26f30"/><path d="M317.62,245a1.49,1.49,0,0,1-1.3-.78,1.47,1.47,0,0,1,.61-2,9.24,9.24,0,0,1,8.23,0,1.47,1.47,0,0,1-1.41,2.57,6.2,6.2,0,0,0-5.45,0,1.52,1.52,0,0,1-.68.17" style="fill:#203264"/><path d="M351.77,247.43h-6.22a1.46,1.46,0,1,1,0-2.92h6.22a1.46,1.46,0,1,1,0,2.92" style="fill:#203264"/><path d="M296.29,247.43h-6.22a1.46,1.46,0,1,1,0-2.92h6.22a1.46,1.46,0,1,1,0,2.92" style="fill:#203264"/><path d="M306.44,249.2a2.78,2.78,0,0,1-2.77-2.71,2.78,2.78,0,0,1,5.55-.12,2.77,2.77,0,0,1-2.72,2.83Zm0-2.92h0l-.15.15c0,.09.11.13.16.15a.14.14,0,0,0,.14-.15.16.16,0,0,0-.15-.15" style="fill:#692e14"/><path d="M333,249.28a2.74,2.74,0,1,1,.06,0Zm.15-2.77h-.3c0,.09.05.13.15.15a.15.15,0,0,0,.15-.15Zm-.15-.15h0a.15.15,0,0,0-.15.15h.3a.15.15,0,0,0-.15-.15" style="fill:#692e14"/><path d="M321,270.47a13.89,13.89,0,0,1-11.22-5.18,1.46,1.46,0,0,1,2.4-1.68,11,11,0,0,0,8.82,3.93c6.31,0,8.74-3.82,8.77-3.86a1.46,1.46,0,0,1,2.49,1.54c-.14.22-3.34,5.25-11.26,5.25" style="fill:#692e14"/><path d="M337.6,258.93h-7.78a6.83,6.83,0,0,1-6.83-6.82v-8.57a4.46,4.46,0,0,1,4.46-4.45H340.9a4.46,4.46,0,0,1,4.46,4.45v7.63a7.77,7.77,0,0,1-7.76,7.76M327.45,242a1.54,1.54,0,0,0-1.53,1.53v8.57a3.91,3.91,0,0,0,3.9,3.9h7.78a4.84,4.84,0,0,0,4.83-4.84v-7.63A1.53,1.53,0,0,0,340.9,242Z" style="fill:#203264"/><path d="M311.31,258.93h-7.78a7.77,7.77,0,0,1-7.76-7.76v-7.63a4.46,4.46,0,0,1,4.46-4.45h13.45a4.46,4.46,0,0,1,4.46,4.45v8.57a6.83,6.83,0,0,1-6.83,6.82M300.23,242a1.53,1.53,0,0,0-1.53,1.53v7.63a4.84,4.84,0,0,0,4.83,4.84h7.78a3.91,3.91,0,0,0,3.9-3.9v-8.57a1.54,1.54,0,0,0-1.53-1.53Z" style="fill:#203264"/><path d="M297.46,223.08s19.68,10,46.88,0c0,0,1.34-12-10.17-12.54s-40.26,7.82-36.71,12.54" style="fill:#203264"/><path d="M320,229c-13.85,0-22.67-4.38-23.22-4.65a1.59,1.59,0,0,1-.5-.43,2.87,2.87,0,0,1-.21-3.19c3-5.75,28.11-12.13,38.16-11.69a11.53,11.53,0,0,1,8.64,3.81c3.56,4.15,2.94,10.1,2.91,10.35a1.46,1.46,0,0,1-.94,1.22A71.62,71.62,0,0,1,320,229m-21.33-7c3.32,1.45,21,8.25,44.24,0,0-1.57-.24-4.9-2.27-7.26a8.67,8.67,0,0,0-6.54-2.77c-11.8-.57-34,6.89-35.43,10" style="fill:#203264"/></g><polygon points="114.9 303.05 95.67 289.82 104.56 343.2 123.55 343.2 136.75 289.82 114.9 303.05" style="fill:#fff"/><polygon points="104.26 309.57 109 313.98 108.14 334.11 110.16 343.2 119.12 343.2 123.48 331.95 122.67 313.6 127.36 309.89 116.21 303.78 104.26 309.57" style="fill:#659eca"/><g style="clip-path:url(#b)"><path d="M116.21,305.07a1.25,1.25,0,0,1-.72-.22L95,290.89a1.29,1.29,0,0,1,1.44-2.13l19.82,13.47L136,288.76a1.27,1.27,0,0,1,1.78.34,1.29,1.29,0,0,1-.34,1.79l-20.54,14a1.27,1.27,0,0,1-.72.22" style="fill:#cfd0d3"/><path d="M100.9,312.51a1.29,1.29,0,0,1-.57-2.44l15.31-7.52a1.29,1.29,0,1,1,1.14,2.31l-15.32,7.52a1.39,1.39,0,0,1-.56.13" style="fill:#cfd0d3"/><path d="M129.75,312.51a1.22,1.22,0,0,1-.63-.17l-13.54-7.51a1.29,1.29,0,0,1,1.25-2.25l13.54,7.52a1.29,1.29,0,0,1-.62,2.41" style="fill:#cfd0d3"/><path d="M51.34,332.71c-3.6,20.42.75,61.75-.24,82.48-.75,15.62-6.13,52.33-9.73,72.22L60.28,490l-18.91-2.59L60.28,490l10.46-68.18L69.31,343,58.58,312.78s-6.32,14.71-7.24,19.93" style="fill:#9aa7b5"/><path d="M128.42,277.19c12.8-5.27,21.9-18.67,21.9-34.37,0-20.3-15.21-36.75-34-36.75s-34,16.45-34,36.75c0,15.79,9.2,29.24,22.1,34.45,0,0,3.78,2.49,11.88,2.49a34.31,34.31,0,0,0,12.08-2.57" style="fill:#fabc93"/><path d="M116.34,281.05c-7.69,0-11.71-2.17-12.46-2.63-13.65-5.56-22.8-19.85-22.8-35.6,0-21,15.82-38,35.26-38s35.27,17.07,35.27,38c0,15.68-9.12,30-22.69,35.56a35.45,35.45,0,0,1-12.58,2.67m0-73.69c-18,0-32.69,15.91-32.69,35.46,0,14.75,8.56,28.12,21.29,33.26l.23.12s3.63,2.28,11.17,2.28A33,33,0,0,0,127.9,276h0c12.63-5.19,21.11-18.52,21.11-33.18,0-19.55-14.66-35.46-32.69-35.46" style="fill:#fabc93"/><path d="M116.27,204.58c-18.77,0-34,16.28-34,36.36a39.9,39.9,0,0,0,.31,4.8l12.63-20.43s18.16,9.16,43.27,0L150,244.88a39.34,39.34,0,0,0,.22-3.94c0-20.08-15.21-36.36-34-36.36" style="fill:#cfd0d3"/><path d="M81.77,249.53l-.44-3.63a38.1,38.1,0,0,1-.33-5c0-20.76,15.82-37.65,35.27-37.65s35.26,16.89,35.26,37.65a38.69,38.69,0,0,1-.23,4.07l-.39,3.91-13-22c-21.67,7.55-37.93,1.88-42.2.07Zm34.5-43.66c-18,0-32.7,15.73-32.7,35.07,0,.26,0,.51,0,.77l11.18-18.08,1,.53c.18.09,18,8.78,42.24-.06l1-.36L149,240.53c-.2-19.15-14.79-34.66-32.68-34.66" style="fill:#cfd0d3"/><path d="M116.39,265.51h0c-7.91,0-14.6-5-14.87-5.17a1.28,1.28,0,1,1,1.54-2c.06,0,6.29,4.64,13.33,4.65h0a21.47,21.47,0,0,0,13.31-4.58,1.29,1.29,0,0,1,1.72,1.91,23.66,23.66,0,0,1-15,5.24" style="fill:#c26f30"/><path d="M132.73,244.61A3.69,3.69,0,1,1,129,241a3.7,3.7,0,0,1,3.77,3.61" style="fill:#526374"/><path d="M107.48,244.61a3.69,3.69,0,1,1-3.77-3.61,3.7,3.7,0,0,1,3.77,3.61" style="fill:#526374"/><path d="M113.88,465.57a11.31,11.31,0,0,0,11.31,11.31l31.35-.29,6.51-1-5.4-56.42L160.84,339l13.63-24.64-19.61-10.22-17.57-13-23.62,65.33-18.2-67.34-17.93,15-19.17,9.67s10.4,25.32,10.1,34.24c-1.27,38.3,3.91,91.34,3.91,91.34L66.2,477.65l41.33-.54a7.47,7.47,0,0,0,6.84-6.59" style="fill:#526374"/><path d="M171.31,492.5c1.68-16.67,8.6-59.37,9.43-76.46,1-21.24,3.5-64.06,0-85-.76-4.61-6.06-17.68-6.06-17.68L160.07,335l1.34,78.17L151.7,490l19.61,2.88-16.83-2.5" style="fill:#9aa7b5"/><polygon points="86.24 296.9 81.36 315.39 93.56 315.39 87.46 334.11 114.51 378.16 144.84 334.11 138.75 315.39 150.94 315.39 145.2 296.8 136.63 287.52 114.2 355.05 95.88 287.52 86.24 296.9" style="fill:#9aa7b5"/></g><g style="clip-path:url(#c)"><path d="M140.31,148.4h16.05a4.68,4.68,0,0,0,4.68-4.68V103.59c0-26.4-19.32-47.79-43.16-47.79S74.71,77.19,74.71,103.59v40.13a4.69,4.69,0,0,0,4.69,4.68H92a4.64,4.64,0,0,0,3.82-2c4.38-6.28,19.73-23.9,41,.42a4.65,4.65,0,0,0,3.49,1.56" style="fill:#c26f30"/><polyline points="83.83 97.61 120.22 97.61 125.25 87.58 130.28 97.61 150.72 97.61" style="fill:#fabc93"/><polygon points="150.72 98.89 129.49 98.89 125.25 90.44 121.01 98.89 83.83 98.89 83.83 96.32 119.42 96.32 125.25 84.71 131.08 96.32 150.72 96.32 150.72 98.89" style="fill:#fabc93"/><path d="M150.72,97.61H130.28l-5-10-5,10H83.83a40.42,40.42,0,0,0-.53,6.46c0,15.78,9.19,29.24,22.1,34.45,0,0,3.77,2.49,11.88,2.49a34.29,34.29,0,0,0,12.07-2.57c12.8-5.27,21.91-18.67,21.91-34.37a40.41,40.41,0,0,0-.54-6.46" style="fill:#fabc93"/><path d="M117.28,142.3c-7.69,0-11.72-2.18-12.47-2.63C91.17,134.11,82,119.82,82,104.07a41.87,41.87,0,0,1,.55-6.67l.18-1.08h36.68l5.83-11.61,5.83,11.61h20.73L152,97.4a42,42,0,0,1,.55,6.67c0,15.68-9.12,30-22.7,35.56a35.16,35.16,0,0,1-12.56,2.67M84.94,98.89a37.91,37.91,0,0,0-.36,5.18c0,14.75,8.56,28.11,21.3,33.26l.22.12s3.63,2.27,11.18,2.27a32.93,32.93,0,0,0,11.55-2.46c12.65-5.2,21.14-18.54,21.14-33.19a38,38,0,0,0-.36-5.18H129.49l-4.24-8.44L121,98.89Z" style="fill:#fabc93"/><path d="M160.47,115.12h-6.24v-21h6.24a5.29,5.29,0,0,1,5.29,5.29v10.37a5.29,5.29,0,0,1-5.29,5.29" style="fill:#203264"/><path d="M160.47,116.73h-6.24a1.61,1.61,0,0,1-1.61-1.61v-21a1.61,1.61,0,0,1,1.61-1.6h6.24a6.91,6.91,0,0,1,6.9,6.9v10.37a6.91,6.91,0,0,1-6.9,6.9m-4.63-3.22h4.63a3.68,3.68,0,0,0,3.68-3.68V99.46a3.69,3.69,0,0,0-3.68-3.69h-4.63Z" style="fill:#203264"/><path d="M74.08,115.12h6.24v-21H74.08a5.29,5.29,0,0,0-5.29,5.29v10.37a5.29,5.29,0,0,0,5.29,5.29" style="fill:#203264"/><path d="M80.32,116.73H74.08a6.91,6.91,0,0,1-6.9-6.9V99.46a6.91,6.91,0,0,1,6.9-6.9h6.24a1.61,1.61,0,0,1,1.61,1.6v21a1.61,1.61,0,0,1-1.61,1.61m-6.24-21a3.69,3.69,0,0,0-3.68,3.69v10.37a3.68,3.68,0,0,0,3.68,3.68h4.63V95.77Z" style="fill:#203264"/><path d="M81.37,128.16a1.59,1.59,0,0,1-1.23-.58,19.69,19.69,0,0,1-4.21-12.46,1.61,1.61,0,1,1,3.21,0,16.51,16.51,0,0,0,3.47,10.41,1.61,1.61,0,0,1-1.24,2.63" style="fill:#203264"/><path d="M105.84,132.24H89.37a12,12,0,0,1-9.23-4.66,1.61,1.61,0,0,1,2.47-2.06,8.87,8.87,0,0,0,6.76,3.5h16.47a1.61,1.61,0,1,1,0,3.22" style="fill:#203264"/><path d="M123.9,132.24H113.43a1.61,1.61,0,1,1,0-3.22H123.9a1.61,1.61,0,0,1,0,3.22" style="fill:#203264"/><path d="M116.63,125.32c-11.69,0-16.45-6.66-16.64-6.95a1.28,1.28,0,1,1,2.11-1.46c.17.23,4.26,5.84,14.53,5.84,10.11,0,14.46-5.64,14.64-5.88a1.29,1.29,0,0,1,1.79-.26,1.27,1.27,0,0,1,.27,1.79c-.2.28-5.23,6.92-16.7,6.92" style="fill:#c26f30"/><path d="M130.42,109.8a5.3,5.3,0,0,1-.12-10.59,5.44,5.44,0,0,1,3.78,1.47,5.24,5.24,0,0,1,1.63,3.71,5.3,5.3,0,0,1-5.17,5.41h-.12m0-7.38h0a2,2,0,0,0-1.45.64,2.08,2.08,0,0,0-.58,1.49A2,2,0,0,0,129,106a1.83,1.83,0,0,0,1.49.58,2.09,2.09,0,0,0,2-2.12,2.05,2.05,0,0,0-.64-1.46,2.09,2.09,0,0,0-1.44-.58" style="fill:#4e555e"/><path d="M105.17,109.8a5.3,5.3,0,0,1-.12-10.59,5.42,5.42,0,0,1,3.78,1.47,5.24,5.24,0,0,1,1.63,3.71,5.3,5.3,0,0,1-5.17,5.41h-.12m0-7.38h0a2,2,0,0,0-1.45.64,2.08,2.08,0,1,0,3.58,1.4,2.05,2.05,0,0,0-.64-1.46,2.09,2.09,0,0,0-1.44-.58" style="fill:#4e555e"/><path d="M67.5,187C64.6,229,72,286.86,73,285.57h84.43s5.86-65.5,4-98.56l-24.3-35.63s-5.23,11.2-22.23,11.2c-16.79,0-20.37-11.2-20.37-11.2" style="fill:#eaebec"/><path d="M73,286.22a.78.78,0,0,1-.22,0c-2.26-.85-8.47-61.67-5.87-99.23a.63.63,0,0,1,.68-.59.64.64,0,0,1,.6.68c-2.76,40,3.82,93.17,5.21,97.87h83.5c.58-6.59,5.67-66.66,4-97.7l-23.62-34.63c-1.75,2.75-8,10.63-22.28,10.63-17.07,0-20.94-11.53-21-11.64a.65.65,0,0,1,.41-.81.64.64,0,0,1,.81.42c.15.43,3.67,10.75,19.76,10.75,16.36,0,21.6-10.72,21.65-10.83a.65.65,0,0,1,.53-.37.62.62,0,0,1,.59.28L162,186.65a.72.72,0,0,1,.11.32c1.81,32.73-4,98-4,98.65a.63.63,0,0,1-.64.59H73" style="fill:#eaebec"/><path d="M72.86,294.31s-1.49,13.83-.89,41c0,0,1.3,81,1.26,107.65,0,31.56,2.39,124.8,2.39,124.8H103s-1.13-91,.08-121.72c1.07-27.52,6.62-110.73,6.62-110.73h8.17s3.72,81,3.63,107.65c-.11,31.56-1.9,124.8-1.9,124.8H147s3.09-91,4.38-121.72c1.15-27.53,1-83.24,2.92-110.73.76-11-.59-41-.59-41Z" style="fill:#f7e15b"/><path d="M147,569.34H119.59a1.62,1.62,0,0,1-1.15-.48,1.67,1.67,0,0,1-.46-1.16c0-.93,1.8-93.59,1.9-124.77.09-24.28-3-94.73-3.55-106H111.2c-.76,11.38-5.55,84-6.53,109.18-1.18,30.34-.09,120.73-.08,121.64a1.6,1.6,0,0,1-1.6,1.63H75.63A1.61,1.61,0,0,1,74,567.77c0-.93-2.44-93.62-2.4-124.84,0-26.32-1.25-106.81-1.26-107.62-.59-26.93.89-41,.9-41.17a1.61,1.61,0,0,1,1.6-1.44h80.8a1.62,1.62,0,0,1,1.61,1.54c0,1.22,1.34,30.17.59,41.15-1.11,16.14-1.52,41.63-1.92,66.28-.27,17-.53,33.06-1,44.4-1.27,30.38-4.34,120.81-4.37,121.71a1.61,1.61,0,0,1-1.61,1.56m-25.72-3.22H145.4c.41-12.15,3.14-92,4.32-120.18.47-11.31.73-27.34,1-44.32.4-24.69.81-50.23,1.93-66.45.64-9.38-.27-33-.53-39.25H74.33c-.34,4.19-1.23,17.48-.75,39.33,0,.82,1.29,81.34,1.26,107.68,0,28.94,2,110.82,2.35,123.19h24.17c-.14-12.41-1-92,.1-120.18,1.06-27.22,6.57-109.93,6.63-110.76a1.6,1.6,0,0,1,1.6-1.51h8.17a1.62,1.62,0,0,1,1.61,1.54c0,.81,3.72,81.35,3.63,107.73-.1,28.9-1.63,110.57-1.87,123.18" style="fill:#f7e15b"/><path d="M44,336.72c-1,5.53-2.11,9.58-3.34,11.25-1.5,2.06-4,3.33-4.2,6.06l-2.76,12.91a7.35,7.35,0,0,0,6.78,7.88l6.68.42a7.36,7.36,0,0,0,7.88-6.77l1.46-12.93a14.87,14.87,0,0,0-1.24-7.32c-.47-1.14-.23-4.64.47-9.64" style="fill:#fabc93"/><path d="M155.93,339.13c-.8,3.67-1.68,6.36-2.62,7.65-1.5,2.06-4,3.33-4.19,6.05l-2.76,12.92a7.34,7.34,0,0,0,6.77,7.88l6.68.41a7.35,7.35,0,0,0,7.88-6.77l1.46-12.92a14.57,14.57,0,0,0-1-7.24c-.36-.87-.33-3,0-6.07" style="fill:#fabc93"/><path d="M161,103.46a1.6,1.6,0,0,1-1.6-1.61c0-25.46-18.65-46.18-41.56-46.18S76.32,76.39,76.32,101.85a1.61,1.61,0,1,1-3.21,0c0-27.24,20.08-49.4,44.77-49.4s44.77,22.16,44.77,49.4a1.61,1.61,0,0,1-1.61,1.61" style="fill:#203264"/><path d="M114.93,163.87c-17.53,0-21.44-11.6-21.59-12.1a1.29,1.29,0,0,1,2.45-.78c.13.42,3.57,10.3,19.14,10.3,15.91,0,20.87-10,21.07-10.46a1.29,1.29,0,0,1,2.33,1.1c-.23.48-5.78,11.94-23.4,11.94" style="fill:#8cb3d3"/><path d="M137.16,286.85h-42a1.29,1.29,0,1,1,0-2.57h42a1.29,1.29,0,1,1,0,2.57" style="fill:#8cb3d3"/><path d="M161.28,218.61s3.35,23.7,2.36,44.43c-1,20-4.2,78-9.83,85.71l14.85.33c-2.31-5.61,11.51-63.77,12.5-84,1-21.24,0-70.91,0-70.91l-2.68-15.67a7,7,0,0,0-4.74-5.76l-36.58-21.37V285.57h20.28Z" style="fill:#4e555e"/><path d="M168.66,350.68h0l-14.86-.33a1.57,1.57,0,0,1-1.4-.89,1.6,1.6,0,0,1,.14-1.66c4.31-5.9,7.75-47.69,9.52-84.84a215.14,215.14,0,0,0-.34-23.39l-2.64,46.09a1.61,1.61,0,0,1-1.61,1.52H137.16a1.61,1.61,0,0,1-1.6-1.61V151.38a1.59,1.59,0,0,1,.8-1.39,1.62,1.62,0,0,1,1.62,0l36.43,21.29a8.67,8.67,0,0,1,5.67,7l2.66,15.61,0,.23c0,.5,1,50,0,71-.47,9.72-3.8,27.69-7,45.08-3,15.9-6.62,35.69-5.59,38.21A1.64,1.64,0,0,1,170,350a1.61,1.61,0,0,1-1.33.7m-12.3-3.48,10.46.23c-.17-5.41,2.1-18,5.75-37.77,3.2-17.28,6.51-35.14,7-44.65,1-20.44.06-67.95,0-70.68l-2.65-15.55a5.47,5.47,0,0,0-3.67-4.5,1.64,1.64,0,0,1-.3-.14l-34.16-20V284h17.16l3.75-65.44a1.61,1.61,0,0,1,3.2-.13c0,.24,3.35,24.09,2.36,44.72-1.28,26.81-4.07,71.36-8.88,84.09" style="fill:#4e555e"/><path d="M94.56,285.75V151.38L60.82,172.25a7,7,0,0,0-4,5.37l-5.1,16.56c0,20.74.75,49.33-.24,70.05-1,20-5.66,63.67-8.69,72.49l13.75,1.56c1.18-6.45,12.16-55.37,13.15-75.6,0,0,.89,21.95,3.12,24,10.28,0,19.44-.93,21.72-.93" style="fill:#4e555e"/><path d="M56.57,339.89h-.18l-13.75-1.56a1.58,1.58,0,0,1-1.18-.74,1.6,1.6,0,0,1-.16-1.38c3-8.66,7.67-52.48,8.6-72,.71-14.71.53-33.7.37-50.46-.06-7-.13-13.54-.13-19.52a1.92,1.92,0,0,1,.07-.48l5.06-16.44a8.63,8.63,0,0,1,4.78-6.43L93.71,150a1.62,1.62,0,0,1,2.46,1.37V285.75a1.61,1.61,0,0,1-1.61,1.61c-.68,0-2.15.1-4,.22-4.25.28-10.67.71-17.71.71a1.63,1.63,0,0,1-1.09-.42c-1-.94-1.77-4.16-2.33-8.2C66.82,297,62.26,318.79,59.71,331c-.78,3.72-1.34,6.4-1.56,7.59a1.61,1.61,0,0,1-1.58,1.32M44.9,335.34l10.38,1.18c.29-1.46.73-3.57,1.28-6.2,3.22-15.38,10.76-51.4,11.55-67.72a1.61,1.61,0,0,1,1.61-1.52h0a1.61,1.61,0,0,1,1.6,1.54c.37,9.13,1.37,19.75,2.41,22.45,6.58,0,12.57-.43,16.6-.7L93,284.2V154.27L61.66,173.62a.8.8,0,0,1-.16.08,5.41,5.41,0,0,0-3.06,4.14,1,1,0,0,1-.06.25l-5,16.33c0,5.9.06,12.39.13,19.25.15,16.8.33,35.84-.37,50.64-.92,19-5.14,58.91-8.22,71" style="fill:#4e555e"/><path d="M71.83,287.58a1.61,1.61,0,0,1-1.6-1.42c-2.46-20.92-.11-68,0-70a1.61,1.61,0,0,1,3.22.16c0,.49-2.44,48.86,0,69.51A1.61,1.61,0,0,1,72,287.57h-.19" style="fill:#3b4045"/><path d="M159,287.58h-.19a1.61,1.61,0,0,1-1.41-1.78c2.43-20.65,0-69,0-69.51a1.61,1.61,0,0,1,3.22-.16c.1,2,2.45,49.12,0,70a1.61,1.61,0,0,1-1.6,1.42" style="fill:#3b4045"/></g><g style="clip-path:url(#d)"><path d="M266.91,216.63H390.46L384.88,183l-2.07-15.66a7,7,0,0,0-4.75-5.76l-22.22-7.41-14.49-14-20.7,14-11.9-7.88-9.19-6.08-17.58,13" style="fill:#203264"/><path d="M390.46,218.23H266.91a1.61,1.61,0,1,1,0-3.21H388.56l-5.27-31.8-2.08-15.72a5.44,5.44,0,0,0-3.66-4.45l-22.21-7.4a1.72,1.72,0,0,1-.61-.37l-13.56-13.06-19.63,13.23a1.58,1.58,0,0,1-1.78,0l-20.15-13.34-16.67,12.31a1.61,1.61,0,1,1-1.91-2.59l17.58-13a1.61,1.61,0,0,1,1.84-.05l20.19,13.37,19.81-13.36a1.6,1.6,0,0,1,2,.17l14.23,13.71L378.57,160a8.68,8.68,0,0,1,5.83,7.08l2.07,15.66L392,216.36a1.6,1.6,0,0,1-1.58,1.87" style="fill:#203264"/><path d="M333.79,127.22c12.8-5.27,21.9-18.67,21.9-34.37,0-20.3-15.21-36.76-34-36.76s-34,16.46-34,36.76c0,15.78,9.2,29.24,22.11,34.45,0,0,3.77,2.49,11.88,2.49a34.29,34.29,0,0,0,12.07-2.57" style="fill:#fff1bf"/><path d="M321.72,131.08c-7.69,0-11.72-2.18-12.47-2.63-13.64-5.56-22.8-19.85-22.8-35.6,0-21,15.82-38,35.27-38S357,71.87,357,92.85c0,15.68-9.12,30-22.69,35.55a35.17,35.17,0,0,1-12.57,2.68m0-73.7c-18,0-32.7,15.91-32.7,35.47,0,14.75,8.56,28.11,21.3,33.26l.22.11s3.63,2.28,11.18,2.28A33.25,33.25,0,0,0,333.27,126h0c12.62-5.2,21.11-18.53,21.11-33.18,0-19.56-14.67-35.47-32.69-35.47" style="fill:#fff1bf"/><path d="M307,101.88a10.51,10.51,0,1,1,10.51-10.51A10.52,10.52,0,0,1,307,101.88m0-17.81a7.3,7.3,0,1,0,7.3,7.3,7.32,7.32,0,0,0-7.3-7.3" style="fill:#526374"/><path d="M336.39,101.88a10.51,10.51,0,1,1,10.52-10.51,10.52,10.52,0,0,1-10.52,10.51m0-17.81a7.3,7.3,0,1,0,7.3,7.3,7.31,7.31,0,0,0-7.3-7.3" style="fill:#526374"/><path d="M327.49,93a1.6,1.6,0,0,1-1.21-.54c-3.44-3.9-9.26.08-9.5.25a1.61,1.61,0,0,1-1.85-2.64c2.89-2,9.48-4.59,13.76.26a1.6,1.6,0,0,1-.14,2.27,1.58,1.58,0,0,1-1.06.4" style="fill:#526374"/><path d="M355.84,93H345.3a1.61,1.61,0,0,1,0-3.22h10.54a1.61,1.61,0,1,1,0,3.22" style="fill:#526374"/><path d="M298,93h-10.3a1.61,1.61,0,0,1,0-3.22H298A1.61,1.61,0,0,1,298,93" style="fill:#526374"/><path d="M255.49,216.63c0,20.74.75,28.75-.24,49.48-1,20-4.2,78-9.83,85.71-1.51,2.06-4,3.33-4.2,6.05l-2.76,12.92a7.35,7.35,0,0,0,6.77,7.88l6.68.41a7.33,7.33,0,0,0,7.88-6.77l1.47-12.92a14.85,14.85,0,0,0-1.24-7.32c-2.31-5.6,12.45-67.28,13.44-87.51,0,0-2.89-44.47-2.89-48.57-8.87.64-15.08.64-15.08.64" style="fill:#fff1bf"/><path d="M252.48,380.39l-.66,0-6.67-.41a8.64,8.64,0,0,1-8-9.26l0-.17L240,357.68c.21-2.27,1.64-3.7,2.92-5a14.36,14.36,0,0,0,1.51-1.66c4.35-5.95,7.8-47.82,9.58-85,.67-13.92.55-22,.4-32.26-.07-4.86-.15-10.37-.15-17.16v-1.29h1.28c.06,0,6.27,0,15-.63l1.38-.1V216c0,4,2.86,48,2.89,48.48v.15c-.48,9.77-4.06,28.68-7.52,47-3.32,17.54-7.08,37.41-6,40a16.2,16.2,0,0,1,1.33,7.91l-1.47,13a8.65,8.65,0,0,1-8.59,7.93M239.74,371a6.07,6.07,0,0,0,5.59,6.42l6.66.41a6.06,6.06,0,0,0,6.52-5.59l1.47-13a13.51,13.51,0,0,0-1.15-6.68c-1.28-3.12,1.39-17.78,5.87-41.44,3.44-18.16,7-36.94,7.47-46.55-.16-2.48-2.52-38.87-2.85-47.21-5.85.4-10.42.51-12.54.54,0,6.19.08,11.31.15,15.86.15,10.29.27,18.42-.4,32.41-1.11,23.36-4.33,78.56-10.07,86.41a16.89,16.89,0,0,1-1.78,2c-1.16,1.15-2.07,2.06-2.17,3.43l0,.17Z" style="fill:#fff1bf"/><path d="M307,94a3,3,0,1,1,.06,0Zm.16-3.06h-.33c0,.09.12.16.17.16a.17.17,0,0,0,.16-.17Zm-.16-.16h0a.17.17,0,0,0-.16.17h.33a.16.16,0,0,0-.16-.16" style="fill:#203264"/><path d="M336.15,94.11a3,3,0,0,1-3-3,3,3,0,0,1,.84-2.17,3.07,3.07,0,0,1,2.14-.95,3.27,3.27,0,0,1,2.18.85,3,3,0,0,1-2.05,5.25Zm0-3.21h0a.17.17,0,0,0-.17.17c0,.08.15.13.17.16a.18.18,0,0,0,.16-.17.16.16,0,0,0-.16-.16" style="fill:#203264"/><path d="M321.68,114.08c-9.31,0-11.87-7-12-7.26a1.29,1.29,0,0,1,2.43-.85c.08.22,2.1,5.54,9.54,5.54s9.54-5.35,9.63-5.58a1.29,1.29,0,0,1,2.4.93c-.12.3-2.89,7.22-12,7.22" style="fill:#f79047"/><path d="M276.6,294.31s-1.48,13.83-.89,41c0,0,1.3,81,1.26,107.65,0,31.56,2.39,124.8,2.39,124.8h27.37s-1.13-91,.08-121.72c1.07-27.52,6.62-110.73,6.62-110.73h8.17s3.72,81,3.63,107.65c-.1,31.56-1.9,124.8-1.9,124.8h27.36s3.09-91,4.38-121.72c1.15-27.53,1-83.24,2.92-110.73.76-11-.59-41-.59-41Z" style="fill:#d7e0ee"/><path d="M292.4,73.09s27.67,9.84,48.93-9.75c-6.37-9-14.07-9.27-23.3-9-10.36.32-24.14,10.19-25.63,18.74" style="fill:#8e4d21"/><path d="M308.91,76.79A56.58,56.58,0,0,1,292,74.31l-1-.37.19-1.07c1.58-9.09,15.64-19.46,26.87-19.81,9.77-.29,17.78.21,24.38,9.54l.66.92-.84.77c-10.86,10-23.44,12.5-33.29,12.5m-15-4.57c5.19,1.49,27.73,6.66,45.67-9-5.74-7.42-12.59-7.81-21.52-7.53-9.37.29-21.84,9-24.15,16.58" style="fill:#8e4d21"/><path d="M384.9,216.63s1,29.09,0,50.33c-1,20.23-14.81,78.39-12.5,84a14.48,14.48,0,0,1,1,7.24l-1.47,12.93a7.35,7.35,0,0,1-7.88,6.77l-6.68-.42a7.35,7.35,0,0,1-6.77-7.88l2.76-12.91c.21-2.73,2.69-4,4.2-6.06,5.63-7.7,8.87-65.74,9.83-85.71,1-20.72-2.36-44.42-2.36-44.42l.48-3.86Z" style="fill:#fff1bf"/><path d="M364.61,379.19c-.22,0-.44,0-.66,0l-6.67-.41a8.63,8.63,0,0,1-8-9.26l0-.17,2.75-12.84c.21-2.28,1.64-3.71,2.92-5a13.58,13.58,0,0,0,1.51-1.66c4.35-5.95,7.8-47.81,9.58-85,1-20.37-2.31-44-2.34-44.18l0-.17.63-5.16h21.78l0,1.24c0,.29,1,29.4,0,50.44-.47,9.71-3.8,27.67-7,45-3.11,16.79-6.63,35.81-5.57,38.4a15.7,15.7,0,0,1,1.08,7.83l-1.47,13a8.63,8.63,0,0,1-8.59,7.93m-12.74-9.41a6.05,6.05,0,0,0,5.59,6.41l6.66.41a6.08,6.08,0,0,0,4.43-1.44,6,6,0,0,0,2.09-4.14l1.47-13a13,13,0,0,0-.9-6.61c-1.29-3.13,1.22-17.18,5.42-39.85,3.2-17.28,6.51-35.16,7-44.69.91-18.47.22-43.21,0-49h-17l-.32,2.57c.3,2.19,3.28,24.81,2.34,44.49-1.11,23.37-4.33,78.56-10.07,86.41a16.22,16.22,0,0,1-1.78,2c-1.16,1.15-2.07,2-2.17,3.43l0,.17Z" style="fill:#fff1bf"/><path d="M282,153.13,265.14,161a7,7,0,0,0-4,5.36s-5.68,12.19-5.68,16.56l-6.41,33h21.49" style="fill:#203264"/><path d="M270.57,217.6H249.08a1.6,1.6,0,0,1-1.58-1.92l6.39-32.89c.11-4.51,4.82-14.9,5.72-16.87a8.61,8.61,0,0,1,4.85-6.35l16.84-7.89a1.61,1.61,0,1,1,1.36,2.91l-16.84,7.89a5.41,5.41,0,0,0-3.06,4.14,1.39,1.39,0,0,1-.14.45c-1.53,3.3-5.52,12.59-5.52,15.88a1.55,1.55,0,0,1,0,.31l-6,31.12h19.54a1.61,1.61,0,1,1,0,3.22" style="fill:#203264"/><path d="M365.21,188.88c1.83,33.07-5.51,98.56-5.51,98.56H276.75c-1,1.3-8.41-56.56-5.51-98.56" style="fill:#203264"/><path d="M276.69,289.06a1.77,1.77,0,0,1-.56-.09c-1-.38-1.39-.53-2.77-11.07-.9-6.89-1.79-15.5-2.5-24.25-1.15-14.18-2.84-41.46-1.23-64.88a1.62,1.62,0,0,1,1.72-1.49,1.6,1.6,0,0,1,1.49,1.71c-2.69,39,3.37,89.29,5,96.84h80.4c1.06-9.76,7-67,5.35-96.86a1.61,1.61,0,0,1,1.52-1.69,1.64,1.64,0,0,1,1.69,1.52c1.82,32.81-5.44,98.16-5.52,98.82a1.6,1.6,0,0,1-1.59,1.43h-83" style="fill:#203264"/><polyline points="311.58 289.25 311.59 163.38 320.67 154.12 329.76 163.38 329.74 289.23" style="fill:#8cb3d3"/><path d="M305.33,171a1.63,1.63,0,0,1-.92-.28l-23.35-16.23a1.61,1.61,0,1,1,1.84-2.64l22.25,15.46L319.51,153a1.61,1.61,0,1,1,2.27,2.28L306.47,170.5a1.63,1.63,0,0,1-1.14.46" style="fill:#d7e0ee"/><path d="M336,171a1.59,1.59,0,0,1-1.14-.46l-15.37-15.24a1.61,1.61,0,1,1,2.27-2.28l14.42,14.29,20.15-14a1.61,1.61,0,0,1,1.83,2.64l-21.25,14.77a1.58,1.58,0,0,1-.91.28" style="fill:#d7e0ee"/></g><path d="M194.43,314.75a12.14,12.14,0,1,1-12.14-12.14,12.13,12.13,0,0,1,12.14,12.14" style="fill:#659eca"/><circle cx="182.29" cy="314.75" r="12.14" transform="translate(-181.29 304.35) rotate(-58.28)" style="fill:none;stroke:#222f64;stroke-linecap:round;stroke-linejoin:round;stroke-width:2.083795818539171px"/><path d="M228.77,314.75a12.14,12.14,0,1,1-12.14-12.14,12.13,12.13,0,0,1,12.14,12.14" style="fill:#659eca"/><path d="M228.77,314.75a12.14,12.14,0,1,1-12.14-12.14A12.13,12.13,0,0,1,228.77,314.75Z" style="fill:none;stroke:#222f64;stroke-linecap:round;stroke-linejoin:round;stroke-width:2.083795818539171px"/><path d="M263.11,314.75A12.14,12.14,0,1,1,251,302.61a12.13,12.13,0,0,1,12.14,12.14" style="fill:#659eca"/><path d="M263.11,314.75A12.14,12.14,0,1,1,251,302.61,12.13,12.13,0,0,1,263.11,314.75Z" style="fill:none;stroke:#222f64;stroke-linecap:round;stroke-linejoin:round;stroke-width:2.083795818539171px"/></svg>